<svg width="100" height="100" viewBox="0 0 100 100" fill="none" xmlns="http://www.w3.org/2000/svg">
<g clip-path="url(#clip0_2006_3084)">
<mask id="mask0_2006_3084" style="mask-type:luminance" maskUnits="userSpaceOnUse" x="0" y="0" width="100" height="100">
<path d="M100 0H0V100H100V0Z" fill="white"/>
</mask>
<g mask="url(#mask0_2006_3084)">
<path d="M2.50781 60.2935V54.0968C2.82448 54.0468 3.01948 54.2868 3.26281 54.4135C3.41531 54.5262 3.59521 54.5958 3.78378 54.6152C3.97235 54.6347 4.16266 54.6032 4.3349 54.524C4.50715 54.4448 4.65501 54.321 4.76311 54.1652C4.8712 54.0095 4.93556 53.8277 4.94948 53.6385C5.01813 53.2055 5.03993 52.7663 5.01446 52.3285C5.01446 38.6863 5.01446 25.0442 5.01446 11.4019C4.98955 10.839 5.00961 10.275 5.07446 9.71525C5.13633 9.14958 5.40106 8.62547 5.81963 8.23998C6.23821 7.8545 6.7823 7.63373 7.35113 7.61857C7.75613 7.5869 8.1628 7.59857 8.5678 7.59857H92.3295C92.6411 7.59857 92.9545 7.59857 93.2645 7.59857C93.6025 7.57458 93.9416 7.62223 94.2598 7.73835C94.5781 7.85448 94.8683 8.03648 95.1113 8.27248C95.3543 8.50847 95.5448 8.7931 95.6703 9.10778C95.7958 9.42247 95.8535 9.76008 95.8395 10.0986C95.8645 10.4736 95.8561 10.8486 95.8561 11.2253C95.8561 28.4963 95.8561 45.768 95.8561 63.0402C95.8561 65.2485 95.8211 65.2818 93.6028 65.2818H7.2228C5.06613 65.2818 5.01946 65.2318 5.0128 63.0868C5.0128 62.3985 5.05448 61.7085 4.98448 61.0235C4.86615 59.8418 4.15113 59.4835 3.10613 60.0702C2.9178 60.1785 2.74948 60.3452 2.50781 60.2935Z" fill="white"/>
<path d="M2.50776 8.82687C2.74526 8.2252 3.02369 7.64048 3.34109 7.07687C3.83644 6.39402 4.49588 5.84702 5.25851 5.48638C6.02113 5.12575 6.86234 4.96313 7.70443 5.01353C21.9645 5.03242 36.2245 5.03577 50.4845 5.02353C64.7133 5.02353 78.9421 5.02353 93.1711 5.02353C94.3316 4.91868 95.4905 5.24168 96.4295 5.93173C97.3685 6.6218 98.0228 7.63129 98.2695 8.7702C98.357 9.22862 98.3916 9.69555 98.3728 10.1619C98.3728 30.9396 98.3728 51.7174 98.3728 72.4953C98.425 73.1746 98.3306 73.8574 98.0963 74.4973C97.8618 75.1371 97.4928 75.7193 97.014 76.2041C96.5353 76.6891 95.958 77.0656 95.3211 77.3081C94.6843 77.5508 94.0028 77.6538 93.3228 77.6103C89.1728 77.6353 85.0228 77.6103 80.8728 77.6103C80.8095 77.6103 80.7478 77.6103 80.6861 77.6103C79.6195 77.5669 79.0611 77.0953 79.0411 76.2219C79.0211 75.3486 79.6461 74.7553 80.7078 74.7453C82.2995 74.7286 83.8911 74.7453 85.4828 74.7453C88.1045 74.7453 90.7261 74.7453 93.3461 74.7453C93.642 74.7819 93.9421 74.7516 94.2246 74.6564C94.5071 74.5614 94.7648 74.4039 94.9781 74.1959C95.1916 73.9879 95.3556 73.7346 95.458 73.4546C95.5603 73.1746 95.5985 72.8753 95.5695 72.5786C95.5911 71.1436 95.5495 69.7086 95.5878 68.2736C95.6028 67.7236 95.4111 67.6069 94.8995 67.6153C93.5278 67.6469 92.1528 67.6553 90.7811 67.6153C90.2161 67.5969 90.1045 67.8103 90.1311 68.3119C90.1695 68.9953 90.1561 69.6853 90.1311 70.3703C90.143 70.7488 90.0056 71.1168 89.7488 71.3953C89.492 71.6736 89.136 71.8399 88.7578 71.8586C88.563 71.8606 88.37 71.8228 88.1903 71.7474C88.0108 71.6719 87.8486 71.5604 87.714 71.4199C87.5791 71.2793 87.4746 71.1126 87.4066 70.9301C87.3388 70.7476 87.3091 70.5531 87.3195 70.3586C87.3195 70.2969 87.3195 70.2336 87.3195 70.1719C87.2528 69.3386 87.6895 68.2086 87.1345 67.7703C86.6095 67.3569 85.5245 67.6369 84.6861 67.6369C58.5995 67.6369 32.5128 67.6296 6.42609 67.6153C5.56609 67.6153 5.22109 67.7469 5.29776 68.6969C5.39609 69.9053 5.31776 71.1269 5.32276 72.3453C5.32276 74.0619 6.03609 74.7586 7.77443 74.7586C29.5521 74.7586 51.33 74.7586 73.1078 74.7586C73.511 74.7146 73.9188 74.7451 74.3111 74.8486C74.6161 74.9304 74.8831 75.1163 75.0656 75.3741C75.2483 75.6318 75.3351 75.9453 75.3111 76.2603C75.3133 76.5929 75.1895 76.9141 74.9643 77.1591C74.7391 77.4039 74.4295 77.5544 74.0978 77.5803C73.7886 77.6174 73.4773 77.6319 73.1661 77.6236C70.6078 77.6236 68.0478 77.6369 65.4895 77.6236C64.9395 77.6236 64.6561 77.6819 64.6695 78.3653C64.7061 82.4829 64.7061 86.6008 64.6695 90.7186C64.6695 91.3253 64.8645 91.4336 65.4128 91.4269C67.7211 91.3986 70.0311 91.4136 72.3411 91.4153C72.7033 91.3774 73.0666 91.4759 73.3601 91.6918C73.6535 91.9074 73.856 92.2249 73.9278 92.5819C74.0006 92.8719 73.973 93.1781 73.8495 93.4506C73.726 93.7229 73.514 93.9454 73.2478 94.0819C72.8498 94.2683 72.4056 94.3326 71.9711 94.2669C67.1933 94.2669 62.4188 94.2669 57.6478 94.2669H29.0095C27.6045 94.2669 26.8978 93.7969 26.8911 92.8653C26.8845 91.9336 27.6228 91.4153 28.9878 91.4153C31.1095 91.4153 33.2328 91.3786 35.3528 91.4353C36.0861 91.4553 36.2095 91.2186 36.2045 90.5469C36.1728 86.5469 36.1628 82.5603 36.2045 78.5686C36.2145 77.7553 35.9578 77.6153 35.2045 77.6169C26.2495 77.6436 17.2928 77.6336 8.33776 77.6336C4.96609 77.6336 3.78943 76.8619 2.49609 73.8003V60.1336C2.94109 59.4669 3.49609 58.9769 4.35443 59.2819C5.21276 59.5869 5.34276 60.2903 5.31276 61.1053C5.27443 62.1336 5.32443 63.1636 5.29443 64.1919C5.28109 64.6586 5.38443 64.9053 5.90109 64.8203C6.05696 64.8078 6.21356 64.8078 6.36943 64.8203C35.7283 64.8203 65.0871 64.8291 94.4461 64.8469C95.4245 64.8469 95.5761 64.5736 95.5745 63.6803C95.5466 45.9946 95.54 28.3091 95.5545 10.6235C95.5545 8.49187 94.9661 7.9002 92.8495 7.9002H7.96443C5.91276 7.9002 5.31609 8.5052 5.31609 10.5869C5.31609 24.7169 5.31609 38.8463 5.31609 52.9753C5.38549 53.4408 5.28998 53.9159 5.04609 54.3186C4.37943 55.1903 3.35609 55.0503 2.50776 53.9636V8.82687Z" fill="#066AA8"/>
<path d="M32.0468 23.555C38.0468 26.625 43.9103 29.6233 49.7703 32.6283C49.945 32.751 50.1502 32.8232 50.3632 32.8373C50.5763 32.8515 50.7892 32.8068 50.9787 32.7083C56.8902 29.6617 62.812 26.6417 68.8468 23.5567C66.4285 22.2517 64.0835 20.99 61.7435 19.7233C61.4102 19.5383 61.2218 19.7767 61.0118 19.9483C60.0718 20.7217 59.147 21.5133 58.1937 22.27C58.053 22.4163 57.8828 22.531 57.6945 22.6067C57.5062 22.6823 57.304 22.717 57.1012 22.7085C56.8983 22.7 56.6998 22.6485 56.5183 22.5573C56.337 22.4662 56.1772 22.3377 56.0493 22.18C55.9215 22.0223 55.8287 21.8393 55.7768 21.6432C55.7252 21.447 55.7157 21.242 55.7492 21.0418C55.7827 20.8417 55.8583 20.6508 55.9712 20.4822C56.084 20.3135 56.2313 20.1707 56.4035 20.0633C57.1535 19.415 57.927 18.7933 58.7537 18.1083C56.1887 16.7333 53.6987 15.3933 51.2037 14.065C50.9073 13.9239 50.5785 13.8649 50.2517 13.8942C49.9247 13.9235 49.6117 14.0401 49.3452 14.2316C47.4635 15.2633 45.5803 16.2883 43.6787 17.2783C43.4558 17.4273 43.1957 17.5105 42.9278 17.5182C42.66 17.5258 42.3955 17.4578 42.1647 17.3218C41.9337 17.1858 41.746 16.9875 41.6228 16.7495C41.4997 16.5115 41.4462 16.2436 41.4685 15.9766C41.4943 15.7113 41.5905 15.4576 41.7468 15.2417C41.9033 15.0258 42.1145 14.8555 42.3585 14.7483C44.3852 13.66 46.4035 12.5533 48.4452 11.4933C49.0948 11.1471 49.8228 10.9742 50.5588 10.9911C51.2947 11.0081 52.0138 11.2143 52.6468 11.59C55.2487 12.9883 57.8553 14.38 60.4403 15.8066C60.6322 15.954 60.8728 16.0229 61.1137 15.9994C61.3543 15.9758 61.5772 15.8617 61.737 15.68C62.9318 14.6283 64.1902 13.65 65.4035 12.625C65.8515 12.2367 66.4293 12.0314 67.0218 12.05C74.4463 12.0644 81.8708 12.0678 89.2952 12.06C89.7888 12.0212 90.2852 12.0881 90.7508 12.2563C91.2165 12.4245 91.641 12.6901 91.996 13.0354C92.3508 13.3807 92.628 13.7977 92.809 14.2586C92.99 14.7196 93.0705 15.2138 93.0452 15.7083C93.0842 19.4327 93.0842 23.155 93.0452 26.875C93.0695 27.3613 92.9898 27.8473 92.8113 28.3005C92.633 28.7537 92.36 29.1635 92.0107 29.5028C91.6612 29.842 91.2435 30.1028 90.7853 30.268C90.3272 30.433 89.839 30.4985 89.3535 30.46C86.078 30.4743 82.8002 30.4743 79.5202 30.46C79.027 30.5028 78.5303 30.4365 78.0655 30.266C77.6007 30.0955 77.179 29.8248 76.8303 29.4733C76.4817 29.1217 76.2147 28.6977 76.0482 28.2313C75.8818 27.765 75.8198 27.2678 75.8668 26.775C75.8535 23.1083 75.8437 19.4517 75.8803 15.79C75.8803 15.1 75.7318 14.8816 75.0118 14.895C72.6102 14.9433 70.2085 14.9233 67.8068 14.905C67.3727 14.8795 66.9455 15.0248 66.6168 15.31C65.7418 16.0633 64.8418 16.7867 63.9235 17.5467C64.1682 17.8182 64.4787 18.022 64.8252 18.1383C66.6585 19.1383 68.4737 20.1517 70.3253 21.09C71.284 21.5223 72.087 22.2387 72.6257 23.1422C73.1642 24.0455 73.4125 25.0925 73.3368 26.1417C73.2987 32.4633 73.3235 38.785 73.3235 45.1067C73.3235 45.8583 73.3068 46.6067 73.3235 47.36C73.4057 48.3802 73.1627 49.4002 72.6295 50.2738C72.0963 51.1475 71.3002 51.83 70.3552 52.2233C68.7352 53.0067 67.1502 53.8583 65.3785 54.7667C66.6318 55.995 67.8253 57.16 69.0085 58.3317C69.131 58.4273 69.2722 58.496 69.423 58.533C69.5738 58.57 69.7308 58.5747 69.8837 58.5467C71.5987 58.5467 73.3152 58.5183 75.0302 58.5617C75.6768 58.5783 75.8752 58.4067 75.8635 57.7283C75.8302 54.0983 75.8435 50.4667 75.8485 46.8367C75.7787 46.313 75.8303 45.7803 75.9997 45.2798C76.1688 44.7795 76.4513 44.3248 76.8248 43.9512C77.1983 43.5777 77.653 43.2953 78.1535 43.126C78.6538 42.9567 79.1867 42.905 79.7102 42.975C82.8613 42.9638 86.0118 42.9638 89.1618 42.975C89.686 42.9175 90.2162 42.9788 90.7133 43.1542C91.2105 43.3297 91.6618 43.6148 92.0337 43.9885C92.4055 44.3622 92.6885 44.8147 92.8617 45.3127C93.0348 45.8107 93.0935 46.3412 93.0337 46.865C93.0437 50.4017 93.0437 53.9383 93.0337 57.475C93.0895 58.0073 93.0252 58.5457 92.8452 59.0498C92.6652 59.554 92.3742 60.0113 91.9937 60.388C91.6132 60.7647 91.153 61.051 90.647 61.2258C90.141 61.4007 89.6022 61.4597 89.0702 61.3983C82.4568 61.3983 75.8437 61.39 69.237 61.4117C68.8665 61.4303 68.4963 61.367 68.1533 61.2262C67.8102 61.0852 67.5023 60.8703 67.2518 60.5967C65.9568 59.2417 64.6002 57.945 63.3052 56.5967C63.2415 56.504 63.1597 56.4252 63.0647 56.3648C62.9697 56.3047 62.8633 56.2643 62.7523 56.2462C62.6413 56.2282 62.5278 56.2327 62.4185 56.2597C62.3093 56.2867 62.2067 56.3355 62.1168 56.4033C59.0618 58.0017 55.9703 59.5317 52.9203 61.1383C52.1633 61.5723 51.3063 61.8013 50.4338 61.8028C49.5613 61.8043 48.7035 61.5782 47.9453 61.1467C42.133 58.1355 36.3013 55.1455 30.4502 52.1767C29.6072 51.8307 28.8848 51.2437 28.3737 50.4892C27.8627 49.7347 27.5855 48.8462 27.5768 47.935C27.5668 47.2467 27.1835 47.3083 26.7435 47.3083C21.7835 47.3083 16.8235 47.3083 11.8636 47.3083C11.3088 47.383 10.7443 47.328 10.2145 47.1475C9.68466 46.9668 9.20401 46.6657 8.81039 46.2678C8.41677 45.8698 8.12094 45.3858 7.94624 44.854C7.77152 44.3223 7.72267 43.7572 7.80357 43.2033C7.80357 39.73 7.80357 36.256 7.80357 32.7817C7.74246 32.258 7.80004 31.7273 7.97209 31.2292C8.14412 30.7308 8.42617 30.2777 8.79732 29.9033C9.16846 29.529 9.61914 29.2432 10.1159 29.0668C10.6127 28.8905 11.1428 28.8283 11.6669 28.885C14.8491 28.8693 18.0308 28.8693 21.2118 28.885C21.7282 28.828 22.2507 28.889 22.7398 29.0633C23.2292 29.2375 23.6725 29.5207 24.0365 29.8912C24.4003 30.2617 24.6755 30.71 24.841 31.2023C25.0065 31.6947 25.0582 32.2182 24.9918 32.7333C24.9918 36.3333 25.012 39.9317 24.9753 43.5317C24.9753 44.2483 25.1235 44.4933 25.8837 44.4667C27.5503 44.41 27.5503 44.4533 27.5503 42.7867C27.5503 37.2467 27.5852 31.7067 27.5352 26.1683C27.4567 25.1033 27.7092 24.0402 28.2582 23.1242C28.807 22.2083 29.6257 21.4843 30.602 21.0517C32.297 20.2017 33.9452 19.26 35.6202 18.3717C36.5635 17.8717 37.3885 18.0383 37.7985 18.7983C37.8922 18.9875 37.9447 19.1943 37.9528 19.4052C37.961 19.616 37.9245 19.8263 37.8458 20.0222C37.7673 20.218 37.6482 20.395 37.4963 20.5417C37.3447 20.6883 37.1637 20.8013 36.9652 20.8733C35.3602 21.7667 33.7468 22.6333 32.0468 23.555Z" fill="black"/>
<path d="M15.8571 22.3251C17.9205 22.3251 19.9838 22.3251 22.0471 22.3251C23.1555 22.3251 23.8505 22.9167 23.8288 23.8017C23.8071 24.6867 23.1755 25.1951 22.0721 25.1984C17.9143 25.2117 13.7571 25.2117 9.60042 25.1984C8.47876 25.1984 7.77876 24.5934 7.80542 23.7317C7.83209 22.8701 8.53542 22.3267 9.67042 22.3234C11.7321 22.3201 13.7954 22.3251 15.8571 22.3251Z" fill="#066AA8"/>
<path d="M14.2643 12.0218C15.8243 12.0218 17.3843 12.0218 18.9459 12.0218C19.9809 12.0218 20.5476 12.5384 20.5459 13.4251C20.5443 14.3117 19.9559 14.8384 18.9426 14.8418C15.7904 14.8506 12.6382 14.8506 9.48597 14.8418C8.45264 14.8418 7.77097 14.2301 7.80597 13.3768C7.83764 12.5434 8.47264 12.0284 9.48931 12.0218C11.081 12.0151 12.6726 12.0218 14.2643 12.0218Z" fill="#066AA8"/>
<path d="M12.7947 20.0766C11.6997 20.0766 10.6064 20.0883 9.51135 20.0766C9.30104 20.1 9.08815 20.0796 8.88605 20.0168C8.68394 19.9541 8.49695 19.8505 8.33677 19.7121C8.17659 19.5738 8.04665 19.404 7.9551 19.2131C7.86355 19.0225 7.81235 18.8148 7.80469 18.6033C7.81734 18.3996 7.87099 18.2005 7.96242 18.018C8.05387 17.8355 8.18122 17.6731 8.33685 17.5411C8.49249 17.409 8.67319 17.3096 8.86812 17.249C9.06307 17.1883 9.26825 17.1678 9.47135 17.1883C11.7214 17.1628 13.9719 17.1628 16.223 17.1883C16.4263 17.1668 16.6319 17.187 16.8271 17.2478C17.0223 17.3085 17.2031 17.4085 17.3581 17.5416C17.5133 17.6748 17.6396 17.8381 17.7293 18.022C17.8189 18.2056 17.8701 18.4058 17.8798 18.61C17.8914 19.4566 17.2131 20.06 16.1697 20.075C15.0497 20.0883 13.9197 20.0766 12.7947 20.0766Z" fill="#066AA8"/>
<path d="M50.3987 91.3918C46.8671 91.3918 43.3337 91.3751 39.8021 91.4068C39.1654 91.4068 38.9688 91.2818 38.9688 90.6051C39.0044 86.5106 39.0044 82.4156 38.9688 78.3201C38.9688 77.6818 39.1621 77.5518 39.7571 77.5535C46.8837 77.5723 54.0111 77.5723 61.1388 77.5535C61.7404 77.5535 61.9271 77.6935 61.9221 78.3251C61.8911 82.4506 61.8911 86.5768 61.9221 90.7035C61.9221 91.3151 61.7288 91.4085 61.1821 91.4051C57.5804 91.3718 53.9854 91.3918 50.3987 91.3918Z" fill="white"/>
<path d="M70.5092 25.8921V26.6971C70.5092 33.5454 70.4958 40.3954 70.5242 47.2438C70.5723 47.7243 70.4637 48.2076 70.2144 48.6213C69.965 49.0349 69.5884 49.3568 69.1409 49.5388C67.3709 50.3838 65.6409 51.3004 63.9009 52.2221C63.8234 52.2804 63.7348 52.3228 63.6407 52.3461C63.5465 52.3694 63.4485 52.3734 63.3527 52.3578C63.257 52.3423 63.1653 52.3074 63.0833 52.2554C63.0013 52.2034 62.9308 52.1354 62.8758 52.0554C61.8375 50.9721 60.7659 49.9204 59.6959 48.8671C58.9009 48.0871 58.1192 48.0338 57.4825 48.6754C56.8458 49.3171 56.9259 50.0988 57.7059 50.8904C58.5609 51.7588 59.4275 52.6171 60.2925 53.4771C60.5158 53.6988 60.6842 53.8554 60.2525 54.0738C57.4792 55.4688 54.7159 56.8854 51.8559 58.3438V55.1338C51.8559 48.8171 51.8559 42.4998 51.8559 36.1821C51.8559 35.7138 51.8225 35.3188 52.3775 35.0388C58.2665 32.0664 64.1487 29.0764 70.0242 26.0688C70.1825 26.0009 70.3444 25.9419 70.5092 25.8921Z" fill="white"/>
<path d="M49.0268 58.3451C45.7484 56.6701 42.5934 55.0551 39.4368 53.4451C36.8278 52.1118 34.2168 50.7873 31.6034 49.4718C31.2684 49.3388 30.9763 49.1161 30.7591 48.8284C30.5419 48.5406 30.4079 48.1988 30.3718 47.8401C30.3268 47.3684 30.4518 47.1934 30.9701 47.2018C32.8784 47.2334 34.7884 47.2184 36.6984 47.2118C36.9971 47.2318 37.2948 47.1593 37.5509 47.0043C37.8071 46.8493 38.0093 46.6191 38.1301 46.3451C38.2506 46.1061 38.2956 45.8361 38.2593 45.5709C38.2229 45.3058 38.1069 45.0579 37.9268 44.8601C37.7603 44.6726 37.5508 44.5283 37.3161 44.4398C37.0816 44.3513 36.8289 44.3209 36.5801 44.3518C34.7334 44.3518 32.8868 44.3334 31.0401 44.3651C30.4984 44.3751 30.3618 44.1984 30.3634 43.6751C30.3801 37.8534 30.3751 32.0334 30.3768 26.2118C30.3886 26.0901 30.4081 25.9693 30.4351 25.8501C31.9918 26.6468 33.5084 27.4268 35.0284 28.2001C39.4728 30.4623 43.9173 32.7234 48.3618 34.9834C48.7234 35.1668 49.0501 35.2884 49.0484 35.8334C49.0201 43.2801 49.0268 50.7284 49.0268 58.3451Z" fill="white"/>
<path d="M10.6977 37.9434C10.6977 36.2234 10.7243 34.5018 10.686 32.7768C10.6677 31.9568 10.901 31.6101 11.801 31.6101C14.8977 31.6584 17.9959 31.6518 21.0926 31.6101C21.9593 31.6001 22.2459 31.9184 22.2393 32.7618C22.2104 36.2351 22.2104 39.7078 22.2393 43.1801C22.2393 44.0301 21.9493 44.3601 21.0976 44.3468C18.0009 44.3211 14.9032 44.3211 11.8043 44.3468C10.9393 44.3551 10.6577 44.0134 10.681 43.1801C10.7227 41.4484 10.6977 39.6968 10.6977 37.9434Z" fill="white"/>
<path d="M90.1507 21.2402C90.1507 23.0235 90.1257 24.8068 90.1623 26.5902C90.1773 27.3518 89.9223 27.6452 89.1357 27.6368C85.969 27.6052 82.8157 27.6118 79.6557 27.6368C78.9473 27.6368 78.6357 27.4018 78.6407 26.6602C78.6619 23.0625 78.6619 19.4647 78.6407 15.8669C78.6407 15.1685 78.9324 14.9102 79.5874 14.9119C82.8097 14.9185 86.0319 14.9185 89.254 14.9119C89.9474 14.9119 90.1723 15.2302 90.1607 15.8985C90.1323 17.6735 90.1507 19.4568 90.1507 21.2402Z" fill="white"/>
<path d="M90.1524 52.0698C90.1524 53.8532 90.1324 55.6367 90.1624 57.42C90.174 58.105 89.9024 58.3932 89.234 58.3915C86.0119 58.3848 82.7897 58.3848 79.5674 58.3915C78.9007 58.3915 78.6357 58.0982 78.6407 57.4115C78.664 53.8138 78.664 50.216 78.6407 46.6182C78.6407 45.9415 78.8909 45.6615 79.5792 45.6648C82.8014 45.6827 86.0235 45.6827 89.2459 45.6648C89.9625 45.6648 90.1659 45.9717 90.1575 46.63C90.1375 48.4417 90.1524 50.2548 90.1524 52.0698Z" fill="white"/>
<path d="M16.5202 36.8751C15.6752 36.8751 14.8302 36.9001 13.9852 36.8751C13.7892 36.8922 13.5918 36.8684 13.4057 36.8047C13.2195 36.7411 13.0488 36.6392 12.9043 36.5056C12.7599 36.3721 12.6451 36.2097 12.5671 36.0291C12.4892 35.8484 12.4499 35.6536 12.4519 35.4567C12.4396 35.2597 12.4698 35.0622 12.5403 34.8779C12.6108 34.6934 12.72 34.5262 12.8605 34.3876C13.0011 34.2489 13.1698 34.1419 13.3551 34.0739C13.5405 34.0061 13.7383 33.9786 13.9352 33.9934C15.6241 33.9446 17.3141 33.9446 19.0053 33.9934C19.2099 33.9724 19.4169 33.9971 19.6111 34.0654C19.8053 34.1337 19.9819 34.2442 20.1284 34.3887C20.2749 34.5334 20.3878 34.7086 20.4586 34.9019C20.5294 35.0952 20.5568 35.3017 20.5386 35.5067C20.5321 35.7031 20.4853 35.8959 20.4009 36.0732C20.3166 36.2507 20.1968 36.4087 20.0486 36.5377C19.9006 36.6667 19.7274 36.7639 19.5403 36.8231C19.3529 36.8822 19.1554 36.9022 18.9603 36.8817C18.1536 36.8901 17.3384 36.8751 16.5202 36.8751Z" fill="#066AA8"/>
<path d="M16.5569 39.1487C17.4018 39.1487 18.2452 39.1354 19.0885 39.1487C19.2787 39.1409 19.4683 39.1717 19.646 39.2394C19.8238 39.3071 19.986 39.4101 20.1227 39.5422C20.2595 39.6744 20.368 39.8331 20.4417 40.0084C20.5153 40.1837 20.5525 40.3722 20.5512 40.5624C20.5498 40.7527 20.5098 40.9406 20.4338 41.1149C20.3577 41.2892 20.2468 41.4462 20.1082 41.5764C19.9697 41.7067 19.806 41.8074 19.6273 41.8726C19.4485 41.9377 19.2585 41.9659 19.0685 41.9552C17.3497 41.9731 15.6308 41.9731 13.9119 41.9552C13.7219 41.9631 13.5322 41.9322 13.3544 41.8646C13.1767 41.7969 13.0145 41.6939 12.8777 41.5617C12.741 41.4296 12.6325 41.2709 12.5588 41.0956C12.4852 40.9202 12.4479 40.7317 12.4493 40.5414C12.4506 40.3512 12.4906 40.1634 12.5667 39.9891C12.6429 39.8147 12.7536 39.6577 12.8922 39.5274C13.0309 39.3972 13.1945 39.2966 13.3732 39.2314C13.5519 39.1662 13.742 39.1381 13.9319 39.1487C14.8052 39.1371 15.6852 39.1487 16.5569 39.1487Z" fill="#066AA8"/>
<path d="M84.4784 22.3351C85.3117 22.3351 86.1617 22.3101 87.0034 22.3351C87.3976 22.3213 87.7816 22.4626 88.0729 22.7288C88.3642 22.9948 88.5397 23.3644 88.5617 23.7584C88.5594 23.9543 88.5179 24.1478 88.4397 24.3274C88.3616 24.5071 88.2482 24.6693 88.1064 24.8046C87.9647 24.9398 87.7974 25.0453 87.6142 25.1149C87.4311 25.1846 87.2357 25.2169 87.0401 25.2101C85.3267 25.2511 83.6127 25.2511 81.8984 25.2101C81.7026 25.2161 81.5076 25.1828 81.3247 25.1121C81.1421 25.0416 80.9754 24.9351 80.8344 24.7989C80.6936 24.6629 80.5812 24.4999 80.5044 24.3198C80.4276 24.1396 80.3874 23.9459 80.3867 23.7501C80.4116 23.3563 80.5897 22.9879 80.8827 22.7238C81.1759 22.4596 81.5607 22.3206 81.9551 22.3368C82.7951 22.3118 83.6367 22.3351 84.4784 22.3351Z" fill="#066AA8"/>
<path d="M84.5611 17.2903C85.3711 17.2903 86.1828 17.2803 86.9928 17.2903C87.1871 17.2732 87.3828 17.2957 87.5681 17.3564C87.7535 17.417 87.9246 17.5147 88.0711 17.6434C88.2178 17.772 88.3368 17.929 88.421 18.105C88.5051 18.2808 88.5528 18.472 88.5611 18.667C88.5625 18.8625 88.5235 19.0562 88.4466 19.236C88.37 19.4159 88.257 19.5779 88.1148 19.7122C87.9728 19.8465 87.8046 19.95 87.6206 20.0165C87.4368 20.083 87.2413 20.111 87.0461 20.0987C85.3316 20.1164 83.6173 20.1164 81.9028 20.0987C81.7078 20.1114 81.5125 20.084 81.3285 20.0182C81.1446 19.9523 80.9761 19.8494 80.8336 19.7159C80.6911 19.5822 80.5776 19.4209 80.5001 19.2415C80.4225 19.0622 80.3826 18.869 80.3828 18.6737C80.3903 18.479 80.437 18.2878 80.5203 18.1117C80.6036 17.9355 80.7216 17.7782 80.8675 17.6489C81.0131 17.5197 81.1836 17.4212 81.3685 17.3597C81.5533 17.298 81.7486 17.2743 81.9428 17.2903C82.8145 17.277 83.6895 17.2903 84.5611 17.2903Z" fill="#066AA8"/>
<path d="M84.5067 50.9105C83.6967 50.9105 82.8867 50.9255 82.0767 50.9105C81.8746 50.9305 81.6704 50.9103 81.4759 50.8515C81.2816 50.7925 81.1007 50.6957 80.9437 50.5667C80.7867 50.4378 80.6567 50.2792 80.5611 50.0998C80.4656 49.9207 80.4062 49.7243 80.3867 49.522C80.3864 49.3187 80.4276 49.1172 80.5076 48.9302C80.5876 48.7432 80.7049 48.5743 80.8522 48.434C80.9996 48.2937 81.1739 48.1848 81.3646 48.114C81.5552 48.0432 81.7584 48.012 81.9616 48.0222C83.6439 47.9832 85.3272 47.9832 87.0116 48.0222C87.2076 48.014 87.4031 48.0447 87.5869 48.1123C87.7709 48.18 87.9397 48.2833 88.0837 48.4163C88.2277 48.5493 88.3441 48.7093 88.4261 48.8873C88.5081 49.0655 88.5542 49.2578 88.5617 49.4537C88.5532 49.6565 88.5042 49.8557 88.4177 50.0392C88.3311 50.2227 88.2086 50.387 88.0574 50.5225C87.9062 50.658 87.7296 50.7618 87.5376 50.8278C87.3457 50.8938 87.1424 50.9208 86.9399 50.9072C86.1282 50.9288 85.3167 50.9105 84.5067 50.9105Z" fill="#066AA8"/>
<path d="M84.5211 53.1869C85.3944 53.1869 86.2677 53.1669 87.1394 53.1869C87.3231 53.1837 87.5054 53.2169 87.6762 53.2844C87.8471 53.3519 88.0029 53.4522 88.1349 53.5799C88.2671 53.7075 88.3726 53.86 88.4457 54.0285C88.5187 54.1969 88.5579 54.3782 88.5611 54.5619C88.5641 54.7454 88.5309 54.9279 88.4636 55.0987C88.3961 55.2695 88.2957 55.4254 88.1679 55.5574C88.0402 55.6894 87.8879 55.795 87.7194 55.8682C87.5509 55.9412 87.3697 55.9804 87.1861 55.9835C85.3782 56.0135 83.5704 56.0135 81.7627 55.9835C81.5791 55.9805 81.3979 55.9415 81.2292 55.8684C81.0607 55.7954 80.9082 55.6899 80.7806 55.558C80.5226 55.2915 80.3809 54.9335 80.3869 54.5627C80.3929 54.1919 80.5459 53.8385 80.8124 53.5805C81.0787 53.3225 81.4369 53.1809 81.8077 53.1869C82.7111 53.1685 83.6161 53.1869 84.5211 53.1869Z" fill="#066AA8"/>
</g>
</g>
<defs>
<clipPath id="clip0_2006_3084">
<rect width="100" height="100" fill="white"/>
</clipPath>
</defs>
</svg>
