<svg width="120" height="100" viewBox="0 0 120 100" fill="none" xmlns="http://www.w3.org/2000/svg">
<path d="M116 2H4C2.89543 2 2 2.89543 2 4V74C2 75.1046 2.89543 76 4 76H116C117.105 76 118 75.1046 118 74V4C118 2.89543 117.105 2 116 2Z" stroke="#066AA8" stroke-width="2"/>
<path d="M108 8H12C10.8954 8 10 8.89543 10 10V66C10 67.1046 10.8954 68 12 68H108C109.105 68 110 67.1046 110 66V10C110 8.89543 109.105 8 108 8Z" stroke="#066AA8" stroke-width="2"/>
<path d="M55.1986 43.4296C55.1986 42.8494 54.724 42.3748 54.1438 42.3748H48.2376C47.6576 42.3748 47.183 42.8494 47.183 43.4296V53.1326C47.183 53.7128 47.6576 54.1874 48.2376 54.1874H54.1438C54.724 54.1874 55.1986 53.7128 55.1986 53.1326V43.4296ZM53.0892 52.078H49.2922V44.4842H53.0892V52.078ZM42.9642 41.3202C42.9642 40.74 42.4896 40.2654 41.9094 40.2654H36.0032C35.4232 40.2654 34.9486 40.74 34.9486 41.3202V53.2382C34.9486 53.8182 35.4232 54.2928 36.0032 54.2928H41.9094C42.4896 54.2928 42.9642 53.8182 42.9642 53.2382V41.3202ZM40.9602 52.078H37.058V42.3748H40.9602V52.078ZM60.3982 29.9296C62.2016 31.5642 64.986 31.4378 66.6208 29.6342C67.665 28.4846 68.0236 26.8814 67.5806 25.3944L72.3056 22.0404C73.972 23.8124 76.7564 23.8968 78.5282 22.2408C80.3002 20.5744 80.3844 17.7901 78.7286 16.0182C77.0728 14.2463 74.2778 14.1619 72.506 15.8178C71.3142 16.9358 70.8396 18.6127 71.272 20.1842L66.4942 23.5698C64.7856 21.84 61.9908 21.819 60.261 23.5276C59.0376 24.7404 58.6262 26.544 59.217 28.1682L54.8084 31.8806C53.4162 29.8874 50.674 29.3916 48.67 30.7838C47.9106 31.3112 47.3412 32.0706 47.0352 32.9354L43.3754 31.4482C42.9642 29.0436 40.6966 27.43 38.292 27.8412C35.8872 28.2526 34.2736 30.5412 34.6744 32.9354C35.0752 35.3296 37.3532 36.9538 39.758 36.5424C41.34 36.2788 42.6478 35.1714 43.1856 33.6632L46.8454 35.1502C47.2568 37.555 49.5244 39.1686 51.929 38.7572C54.049 38.3986 55.5994 36.5634 55.5994 34.412C55.5994 34.2748 55.5888 34.1272 55.5782 33.99L60.3982 29.9296ZM75.5224 16.7354C76.788 16.7354 77.8216 17.769 77.8216 19.0346C77.8216 20.3002 76.788 21.3338 75.5224 21.3338C74.2568 21.3338 73.2232 20.3002 73.2232 19.0346C73.2232 17.7584 74.2568 16.7354 75.5224 16.7354ZM63.3618 24.3714C64.6274 24.3714 65.661 25.405 65.661 26.6706C65.661 27.9362 64.6274 28.9698 63.3618 28.9698C62.0962 28.9698 61.0626 27.9362 61.0626 26.6706C61.0626 25.405 62.0856 24.3714 63.3618 24.3714ZM39.0302 34.5068C37.7646 34.5068 36.731 33.4732 36.731 32.2076C36.731 30.942 37.7646 29.9084 39.0302 29.9084C40.2958 29.9084 41.3294 30.942 41.3294 32.2076C41.3188 33.4732 40.2958 34.4964 39.0302 34.5068ZM51.1908 36.7112C49.9252 36.7112 48.8916 35.6776 48.8916 34.412C48.8916 33.1464 49.9252 32.1128 51.1908 32.1128C52.4564 32.1128 53.49 33.1464 53.49 34.412C53.49 35.6882 52.467 36.7112 51.1908 36.7112ZM84.097 44.4842H79.7728V44.4104C79.7622 43.9884 79.6884 43.5666 79.5618 43.1658V28.031C79.5618 27.451 79.0766 26.9764 78.4966 26.9764H72.5588C71.9786 26.9764 71.5462 27.451 71.5462 28.031V41.3518C70.27 41.8264 69.4262 43.0498 69.4368 44.421V44.4948H67.433V35.646C67.433 35.0658 66.9162 34.5806 66.3254 34.5806H60.3876C59.797 34.5912 59.3224 35.0658 59.3118 35.646V53.1854C59.3118 53.7654 59.8076 54.1874 60.3876 54.1874H62.7818C62.8978 54.2718 63.0454 54.3138 63.193 54.2928H63.4252V60.083C63.4252 61.897 64.9438 63.3632 66.758 63.3632H82.768C84.5822 63.3632 86.1008 61.897 86.1008 60.083V54.2928H86.333C86.892 54.3034 87.356 53.8498 87.3666 53.2908C87.3666 53.2802 87.3666 53.2698 87.3666 53.2592V47.7642C87.3666 45.9608 85.911 44.4842 84.097 44.4842ZM85.2572 47.7642V52.1834H78.718V51.3608C78.718 50.7806 78.2962 50.285 77.7162 50.285H71.4512C70.8606 50.2956 70.386 50.7702 70.386 51.3608V52.1834H64.2688V47.7642C64.2584 47.121 64.7752 46.6042 65.4079 46.5936C65.4184 46.5936 65.4184 46.5936 65.429 46.5936H84.097C84.7404 46.5936 85.2572 47.1104 85.2572 47.7538V47.7642ZM76.6086 52.3944V54.0818H72.4954V52.3944H76.6086ZM77.4524 29.0858V41.2568C77.1466 41.162 76.8302 41.1092 76.5032 41.1092H73.6556V29.0858H77.4524ZM71.5462 44.4104C71.5252 43.767 72.0314 43.2292 72.6748 43.2186H72.6852H76.5032C77.1572 43.2292 77.674 43.7564 77.6634 44.4104V44.4842H71.5462V44.4104ZM61.4212 36.6796H65.3236V44.4842C63.5516 44.5474 62.1594 46.003 62.1594 47.7748V52.078H61.4212V36.6796ZM83.9916 60.083C83.9916 60.737 83.4114 61.2538 82.768 61.2538H66.758C66.104 61.2538 65.5344 60.737 65.5344 60.083V54.2928H70.386V55.1682C70.3966 55.7378 70.8606 56.2018 71.4408 56.1912H71.4512H77.7162C78.2646 56.2018 78.7076 55.7694 78.718 55.221C78.718 55.1998 78.718 55.1788 78.718 55.1682V54.2928H83.9916V60.083Z" fill="black"/>
<path d="M88 90H40C37.7909 90 36 91.7909 36 94C36 96.2091 37.7909 98 40 98H88C90.2091 98 92 96.2091 92 94C92 91.7909 90.2091 90 88 90Z" stroke="#066AA8" stroke-width="2"/>
<path d="M53 76C54.3334 79.3334 55.6 86.8 50 90" stroke="#066AA8" stroke-width="2"/>
<path d="M75.287 76C73.9536 79.3334 72.687 86.8 78.287 90" stroke="#066AA8" stroke-width="2"/>
</svg>
