<svg width="100" height="76" viewBox="0 0 100 76" fill="none" xmlns="http://www.w3.org/2000/svg">
<g clip-path="url(#clip0_2004_2699)">
<mask id="mask0_2004_2699" style="mask-type:luminance" maskUnits="userSpaceOnUse" x="0" y="0" width="99" height="76">
<path d="M98.8392 0H0V75.8025H98.8392V0Z" fill="white"/>
</mask>
<g mask="url(#mask0_2004_2699)">
<path d="M60.9852 4.44236e-05H96.6067C98.3788 4.44236e-05 98.8396 0.467131 98.8396 2.25447C98.8396 17.7676 98.8396 33.2803 98.8396 48.7924C98.8396 50.6266 98.3864 51.0709 96.5282 51.0709C95.3966 51.0709 94.2611 51.119 93.132 51.0532C92.4092 51.0101 92.2282 51.2177 92.232 51.9393C92.2662 57.362 92.2497 62.7848 92.2497 68.2076C92.2497 70.0608 92.2497 71.9139 92.2497 73.7671C92.2497 75.2076 91.6966 75.7747 90.2877 75.776C81.3307 75.776 72.3738 75.7696 63.4168 75.7937C62.732 75.7937 62.5776 75.6025 62.5814 74.9443C62.5953 72.4823 62.57 72.4823 64.9788 72.4823C72.632 72.4823 80.2848 72.4866 87.9371 72.4949C88.6586 72.4949 89.008 72.4304 88.9826 71.5405C88.9143 69.1886 88.9649 69.1873 86.57 69.1873C78.9181 69.1873 71.2649 69.1696 63.6118 69.2114C62.7257 69.2114 62.5548 68.9582 62.5763 68.138C62.6358 65.8937 62.5953 65.8937 64.8852 65.8937C65.9839 65.8937 67.0877 65.8215 68.1763 65.9152C69.0852 65.9937 69.213 65.6494 69.2042 64.8367C69.1624 60.6152 69.1472 56.3937 69.213 52.1785C69.2282 51.1848 68.8978 51.0468 68.0232 51.0519C62.2915 51.0886 56.5611 51.0709 50.8295 51.0709C42.2843 51.0709 33.7392 51.0709 25.194 51.0709C23.5599 51.0709 23.0586 50.5646 23.0586 48.9266C23.0586 33.3098 23.0586 17.6937 23.0586 2.07852C23.0586 0.513966 23.5776 -0.0012207 25.1548 -0.0012207L60.9852 4.44236e-05Z" fill="#066AA8"/>
<path d="M29.6229 75.7848C22.452 75.7848 15.281 75.8 8.11018 75.7848C5.99881 75.7629 3.97729 74.9274 2.46656 73.4522C0.955812 71.9772 0.0723219 69.976 7.53879e-05 67.8658C-0.00751955 66.5064 0.558304 65.9152 1.89881 65.9076C3.71653 65.9 5.53677 65.8671 7.35323 65.9253C8.08234 65.9481 8.24818 65.7443 8.23932 65.0265C8.21317 55.6933 8.20724 46.3603 8.22158 37.0278C8.22158 34.986 8.61147 34.6038 10.6937 34.6038C13.4381 34.6038 16.1837 34.6278 18.9216 34.5873C19.5938 34.5772 19.7685 34.7595 19.7634 35.4291C19.7495 37.8987 19.7747 37.8987 17.2709 37.8987C15.5899 37.8987 13.9077 37.9253 12.2279 37.8848C11.6381 37.8709 11.4963 38.0519 11.4976 38.6253C11.5161 47.4784 11.5161 56.3312 11.4976 65.1835C11.4976 65.7645 11.652 65.9202 12.233 65.919C23.8296 65.9021 35.4262 65.9021 47.0228 65.919C47.7342 65.919 47.766 65.6381 47.7622 65.0836C47.7419 61.7925 47.7698 58.5012 47.7368 55.2012C47.7292 54.5417 47.8862 54.3455 48.571 54.3493C51.047 54.3658 51.047 54.3367 51.047 56.8367C51.047 59.5822 51.0685 62.3278 51.0305 65.0721C51.0216 65.7379 51.1873 65.9367 51.8684 65.919C53.7203 65.8696 55.5735 65.8936 57.4267 65.905C58.7065 65.9126 59.2811 66.5178 59.2799 67.8115C59.2239 69.905 58.3677 71.8976 56.8873 73.3791C55.4071 74.8606 53.4152 75.7184 51.3217 75.7759C44.1027 75.8063 36.8622 75.7835 29.6229 75.7848Z" fill="#066AA8"/>
<path d="M60.9485 47.7783C49.7612 47.7783 38.5734 47.7855 27.3852 47.7998C26.5295 47.7998 26.3295 47.6023 26.3321 46.7454C26.3659 35.9007 26.3659 25.0568 26.3321 14.2137C26.3321 13.3555 26.5346 13.1618 27.3865 13.1631C49.7621 13.1893 72.1371 13.1893 94.5118 13.1631C95.3675 13.1631 95.5675 13.3606 95.565 14.2163C95.5312 25.0618 95.5312 35.9057 95.565 46.7479C95.565 47.6061 95.3637 47.8023 94.5105 47.7998C83.3232 47.7669 72.1359 47.7598 60.9485 47.7783Z" fill="#FDFEFF"/>
<path d="M60.8458 9.88605C49.693 9.88605 38.5398 9.89323 27.3863 9.90757C26.5306 9.90757 26.2888 9.7139 26.3331 8.85314C26.4116 7.3139 26.404 5.76453 26.3331 4.22276C26.299 3.44175 26.5243 3.27466 27.2863 3.27719C37.7174 3.3042 48.1496 3.3101 58.5825 3.29491C70.5588 3.29491 82.5352 3.28816 94.5116 3.27466C95.3673 3.27466 95.6091 3.46833 95.5648 4.32909C95.4863 5.86959 95.4939 7.41896 95.5648 8.96073C95.6002 9.74175 95.3736 9.90757 94.6116 9.9063C83.3567 9.87762 72.1015 9.87086 60.8458 9.88605Z" fill="white"/>
<path d="M82.3663 58.5899C82.3663 60.7849 82.3473 62.9798 82.3802 65.1722C82.3878 65.7482 82.2372 65.919 81.6486 65.9127C78.8375 65.8815 76.0258 65.8815 73.2131 65.9127C72.6435 65.9127 72.465 65.7785 72.4688 65.1861C72.4941 60.727 72.4941 56.2684 72.4688 51.8102C72.4688 51.2507 72.5853 51.0646 73.1878 51.0507C75.7751 51.0178 75.7751 50.995 75.7751 53.5266C75.7751 53.8355 75.7599 54.1444 75.7815 54.452C75.7867 54.6659 75.8349 54.8765 75.9231 55.0715C76.0113 55.2664 76.1379 55.4416 76.2951 55.5866C76.4524 55.7318 76.6373 55.8439 76.8386 55.9161C77.0399 55.9884 77.2539 56.0196 77.4675 56.0077C77.8827 56.0123 78.283 55.8526 78.581 55.5632C78.8788 55.274 79.0501 54.8785 79.0574 54.4634C79.0979 53.5393 79.0954 52.6102 79.0574 51.6861C79.0372 51.1887 79.2005 51.0722 79.6903 51.0532C82.365 50.952 82.365 50.9368 82.365 53.6444L82.3663 58.5899Z" fill="white"/>
<path d="M85.6588 58.3834C85.6588 56.1872 85.679 53.991 85.6449 51.8011C85.636 51.2188 85.8006 51.0695 86.3816 51.0631C88.9537 51.0327 88.9537 51.0138 88.9537 53.553C88.9537 57.396 88.936 61.2391 88.9702 65.0808C88.9702 65.753 88.7993 65.9277 88.1272 65.9226C85.6575 65.9087 85.6575 65.934 85.6575 63.4315L85.6588 58.3834Z" fill="white"/>
<path d="M55.5777 69.1962C55.2868 70.122 54.7154 70.9346 53.9427 71.5217C53.1699 72.1088 52.2337 72.4414 51.2638 72.4734C51.0246 72.4924 50.784 72.4898 50.5435 72.4898C36.6195 72.4898 22.6933 72.4898 8.76501 72.4898C7.7509 72.5649 6.73748 72.3357 5.85441 71.8315C4.97133 71.3272 4.2588 70.571 3.80807 69.6594C3.74562 69.5074 3.69358 69.3513 3.65234 69.1924H4.62833C10.803 69.1924 16.9777 69.2038 23.1511 69.1746C23.4362 69.1496 23.723 69.1978 23.9844 69.3145C24.2457 69.4312 24.473 69.6127 24.6448 69.8417C24.9263 70.2074 25.2986 70.4934 25.7247 70.671C26.1508 70.8486 26.6158 70.9117 27.0739 70.8544C28.8208 70.7848 30.5727 70.7924 32.3208 70.8544C32.7453 70.9087 33.1766 70.8505 33.5716 70.6857C33.9666 70.5208 34.3114 70.2551 34.5714 69.9151C34.7773 69.6488 35.049 69.4405 35.3596 69.3103C35.6701 69.1803 36.0092 69.1331 36.3435 69.1734C42.4195 69.2025 48.4866 69.1898 54.5575 69.1898L55.5777 69.1962Z" fill="white"/>
<path d="M79.3 19.2217C80.2709 19.5597 81.1987 19.8141 82.0595 20.2128C82.4494 20.3926 82.0949 20.8141 81.9962 21.1116C80.0992 26.8432 78.198 32.5731 76.2924 38.3014C75.7051 40.0736 75.7 40.066 73.938 39.4736C73.7171 39.384 73.4904 39.3091 73.2595 39.2495C72.6266 39.1293 72.5797 38.8116 72.7709 38.2369C74.8215 32.1356 76.8591 26.0297 78.8835 19.9191C78.9658 19.6635 79.0025 19.3381 79.3 19.2217Z" fill="black"/>
<path d="M49.3144 36.2456C46.3296 36.2456 43.3449 36.2241 40.3601 36.2621C39.688 36.2709 39.5119 36.0924 39.5157 35.4203C39.5309 32.9507 39.5044 32.9507 42.0082 32.9507C47.4639 32.9507 52.9183 32.9684 58.374 32.9304C59.1424 32.9304 59.3386 33.1076 59.3234 33.8785C59.2766 36.2443 59.3133 36.2443 56.931 36.2443L49.3144 36.2456Z" fill="black"/>
<path d="M64.2485 29.6191C64.2397 29.3961 64.2805 29.1739 64.3681 28.9686C64.4557 28.7631 64.5877 28.5799 64.7548 28.4318C66.251 26.9229 67.7611 25.4267 69.2548 23.9153C69.5396 23.6267 69.7168 23.5672 70.0725 23.8811C72.1738 25.733 72.175 25.7115 70.2371 27.6786C69.5966 28.3305 68.451 28.9039 68.4864 29.6811C68.5168 30.3469 69.5915 30.9659 70.2054 31.6064C70.2522 31.6558 70.3054 31.7014 70.3497 31.752C70.8649 32.3381 72.0041 32.9444 71.8358 33.4343C71.5535 34.2545 70.5991 34.8393 69.9371 35.5355C69.6307 35.8583 69.4611 35.5887 69.2801 35.409C67.751 33.8842 66.2257 32.3554 64.7042 30.8229C64.5416 30.6701 64.4162 30.4823 64.3372 30.2736C64.2583 30.065 64.2278 29.8412 64.2485 29.6191Z" fill="black"/>
<path d="M90.5969 29.6303C90.6103 29.8736 90.5679 30.1166 90.4731 30.3411C90.3784 30.5654 90.2338 30.7652 90.0501 30.9252C88.5741 32.4063 87.0868 33.8771 85.6197 35.3708C85.2906 35.7063 85.0741 35.7708 84.7336 35.3809C84.1488 34.7151 83.1096 34.143 83.026 33.4404C82.9627 32.8974 84.0703 32.2176 84.6577 31.5974C85.2653 30.9544 86.3032 30.3442 86.3577 29.6607C86.4108 28.943 85.2539 28.3949 84.6678 27.7366C84.645 27.7113 84.6197 27.6885 84.5957 27.6645C82.6438 25.7126 82.6513 25.7214 84.7931 23.8797C85.0868 23.6265 85.2476 23.5797 85.5324 23.8695C87.0703 25.4341 88.6273 26.9771 90.1691 28.5379C90.3174 28.6765 90.4329 28.8465 90.5069 29.0356C90.581 29.2246 90.6117 29.4279 90.5969 29.6303Z" fill="black"/>
<path d="M45.2059 19.7697C43.5249 19.7697 41.8439 19.7532 40.1629 19.7811C39.6832 19.7887 39.5389 19.6658 39.5186 19.1607C39.411 16.4746 39.392 16.4747 42.1009 16.4747C44.8097 16.4747 47.5211 16.495 50.23 16.4608C50.8832 16.452 51.0895 16.6001 51.0844 17.2912C51.0667 19.7697 51.0971 19.7697 48.6009 19.7697H45.2059Z" fill="black"/>
<path d="M54.3519 28.0091C52.9456 28.0091 51.538 27.9775 50.1342 28.023C49.5279 28.0433 49.4177 27.8294 49.4114 27.2711C49.3848 24.7129 49.3671 24.7129 51.9139 24.7129C54.1089 24.7129 56.3051 24.7294 58.4962 24.7015C59.0646 24.6939 59.3266 24.7509 59.3291 25.4496C59.3291 28.0078 59.3658 28.0078 56.819 28.0078L54.3519 28.0091Z" fill="black"/>
<path d="M54.2574 44.4834C52.8511 44.4834 51.4448 44.4632 50.0397 44.4948C49.5448 44.5062 49.4245 44.3556 49.4068 43.8619C49.3042 41.1847 49.2891 41.1847 51.9979 41.1847C54.1929 41.1847 56.3891 41.2049 58.5802 41.1707C59.1625 41.1619 59.3118 41.3264 59.3194 41.9062C59.3498 44.4796 59.3688 44.4796 56.8308 44.4796L54.2574 44.4834Z" fill="black"/>
<path d="M42.8971 24.7138C43.754 24.7138 44.6135 24.7518 45.468 24.6999C46.0401 24.6657 46.1262 24.891 46.1376 25.3986C46.192 28.0088 46.2072 28.0088 43.5857 28.0088C42.4882 28.0088 41.3895 27.9847 40.2945 28.0202C39.7629 28.0366 39.5262 27.9607 39.5161 27.324C39.4794 24.7138 39.4528 24.7138 42.0743 24.7138H42.8971Z" fill="black"/>
<path d="M42.8996 41.1887C43.7223 41.1887 44.5451 41.2178 45.3692 41.1786C45.9084 41.152 46.1287 41.2533 46.1401 41.8798C46.1755 44.4836 46.2008 44.4836 43.578 44.4836C42.4806 44.4836 41.3818 44.4583 40.2869 44.495C39.7477 44.5128 39.5274 44.4191 39.516 43.7925C39.4793 41.1887 39.454 41.1887 42.078 41.1887H42.8996Z" fill="black"/>
<path d="M32.0246 19.7711C29.6398 19.7711 29.6752 19.7711 29.6297 17.4091C29.6157 16.6496 29.7892 16.4027 30.5752 16.4572C31.7006 16.5331 32.8373 16.4989 33.9676 16.466C34.455 16.4521 34.5892 16.5926 34.6081 17.0888C34.7145 19.7724 34.7309 19.7711 32.0246 19.7711Z" fill="black"/>
<path d="M56.9092 19.771C54.2067 19.771 54.2257 19.771 54.3434 17.071C54.3662 16.5457 54.5446 16.4571 55.0029 16.4672C56.237 16.495 57.4725 16.5039 58.7054 16.4672C59.237 16.4507 59.3674 16.6634 59.3029 17.1229C59.2979 17.1911 59.2979 17.2597 59.3029 17.328C59.3257 19.771 59.3257 19.771 56.9092 19.771Z" fill="black"/>
<path d="M32.1526 24.7126C34.6261 24.7126 34.6058 24.7128 34.6033 27.2178C34.6033 27.8229 34.4995 28.0609 33.8299 28.0254C32.6666 27.9634 31.4995 27.9861 30.3336 28.0177C29.8273 28.0316 29.6425 27.9229 29.6299 27.3545C29.5678 24.7128 29.5463 24.7126 32.1526 24.7126Z" fill="black"/>
<path d="M32.1137 36.2457C29.6175 36.2457 29.6454 36.2457 29.6289 33.7697C29.6289 33.0875 29.8162 32.9039 30.4795 32.9343C31.6428 32.9887 32.8112 32.9748 33.9757 32.9343C34.4821 32.9191 34.6681 33.0837 34.5909 33.5672C34.5878 33.6013 34.5878 33.6357 34.5909 33.6697C34.653 36.2457 34.653 36.2457 32.1137 36.2457Z" fill="black"/>
<path d="M32.1435 41.1887C34.6283 41.1887 34.6105 41.1887 34.6067 43.6799C34.6067 44.2596 34.5422 44.5419 33.8473 44.5014C32.6826 44.4428 31.5157 44.4428 30.351 44.5014C29.7333 44.5292 29.6409 44.2925 29.6359 43.7419C29.6181 41.1887 29.5954 41.1887 32.1435 41.1887Z" fill="black"/>
<path d="M31.2944 6.54201C31.3039 6.86935 31.2157 7.1921 31.0407 7.46897C30.8658 7.74583 30.6122 7.96421 30.3126 8.09617C30.0129 8.22812 29.6806 8.26767 29.3583 8.20971C29.0359 8.15174 28.7383 7.99893 28.5034 7.77083C28.2683 7.54273 28.1068 7.24971 28.0392 6.92925C27.9717 6.60879 28.0015 6.27549 28.1244 5.972C28.2474 5.66849 28.4582 5.40859 28.7297 5.22555C29.0013 5.04253 29.3213 4.94468 29.6488 4.94454C29.8622 4.93949 30.0745 4.97701 30.2734 5.05491C30.4721 5.13279 30.6534 5.2495 30.8065 5.39821C30.9597 5.54692 31.0817 5.72466 31.1655 5.92104C31.2493 6.11741 31.2931 6.32852 31.2944 6.54201Z" fill="black"/>
<path d="M36.2396 6.63662C36.2295 6.96397 36.1218 7.28085 35.9305 7.54668C35.7392 7.81253 35.4729 8.01524 35.1658 8.12887C34.8586 8.24251 34.5246 8.26188 34.2063 8.18456C33.888 8.10721 33.6001 7.93668 33.3792 7.69476C33.1585 7.45283 33.0149 7.15053 32.967 6.82656C32.919 6.50257 32.9689 6.17164 33.11 5.87613C33.2511 5.58061 33.4773 5.33394 33.7596 5.1677C34.0418 5.00145 34.3671 4.92319 34.694 4.94294C34.9071 4.9517 35.1162 5.00258 35.3095 5.09263C35.5027 5.18268 35.6762 5.31013 35.8199 5.46761C35.9635 5.62507 36.0747 5.80945 36.1467 6.01011C36.2187 6.21076 36.2504 6.42369 36.2396 6.63662Z" fill="black"/>
<path d="M41.1778 6.60131C41.1753 6.92891 41.075 7.24831 40.8899 7.51861C40.7048 7.7889 40.4431 7.99777 40.1386 8.11848C39.834 8.2392 39.5003 8.26624 39.1803 8.19617C38.8603 8.1261 38.5684 7.96209 38.3422 7.72515C38.1159 7.4882 37.9655 7.18913 37.9103 6.86619C37.855 6.54327 37.8974 6.21121 38.0321 5.91252C38.1667 5.61384 38.3874 5.36214 38.6659 5.18965C38.9445 5.01717 39.2682 4.93174 39.5955 4.94433C39.8087 4.94759 40.0192 4.99323 40.2145 5.07859C40.4099 5.16394 40.5864 5.28731 40.7336 5.44151C40.8808 5.59571 40.996 5.77766 41.0722 5.97678C41.1484 6.17589 41.1844 6.38818 41.1778 6.60131Z" fill="black"/>
</g>
</g>
<defs>
<clipPath id="clip0_2004_2699">
<rect width="100" height="75.9494" fill="white"/>
</clipPath>
</defs>
</svg>
