<svg width="100" height="100" viewBox="0 0 100 100" fill="none" xmlns="http://www.w3.org/2000/svg">
<g clip-path="url(#clip0_2005_2869)">
<mask id="mask0_2005_2869" style="mask-type:luminance" maskUnits="userSpaceOnUse" x="0" y="0" width="100" height="100">
<path d="M100 0H0V100H100V0Z" fill="white"/>
</mask>
<g mask="url(#mask0_2005_2869)">
<path d="M41.8803 33.9533C41.874 34.4862 41.7103 35.0052 41.4096 35.445C41.1091 35.8848 40.685 36.226 40.191 36.4255C39.697 36.6248 39.155 36.6737 38.6331 36.5657C38.1115 36.4577 37.6333 36.1977 37.259 35.8185C36.8846 35.4393 36.631 34.958 36.5296 34.4348C36.4285 33.9118 36.4841 33.3705 36.69 32.879C36.8956 32.3875 37.2423 31.968 37.686 31.673C38.1298 31.3782 38.6508 31.221 39.1836 31.2217C39.8991 31.2397 40.5798 31.5345 41.0826 32.0438C41.5856 32.5532 41.8715 33.2377 41.8803 33.9533Z" fill="#FEFEFE"/>
<path d="M16.2671 35.1118C14.7367 32.4519 13.7865 29.4983 13.4789 26.4451C13.1712 23.3919 13.5131 20.3081 14.482 17.3964C15.4509 14.4847 17.025 11.811 19.1007 9.55089C21.1764 7.29079 23.7069 5.49547 26.5259 4.2829C29.3447 3.07032 32.3884 2.46792 35.4567 2.51529C38.525 2.56265 41.5485 3.25869 44.3287 4.5577C47.1089 5.85672 49.5827 7.7293 51.5877 10.0524C53.5927 12.3755 55.0835 15.0965 55.962 18.0368C57.5067 16.6268 59.2805 15.4905 61.207 14.6768C63.6054 13.6863 66.198 13.2558 68.7879 13.418C71.3777 13.5802 73.8964 14.3309 76.1524 15.6129C78.4084 16.8949 80.3422 18.6746 81.807 20.8164C83.2719 22.9583 84.2289 25.4061 84.6054 27.9734C84.937 30.1158 84.8424 32.3026 84.327 34.4084C84.1604 35.0751 84.357 35.1051 84.8937 35.2001C87.3802 35.5038 89.7129 36.5654 91.575 38.2409C93.4372 39.9163 94.7385 42.1244 95.302 44.5651C95.7109 46.2116 95.7767 47.9244 95.4955 49.5974C95.2144 51.2704 94.5922 52.8676 93.6677 54.2901C92.7432 55.7124 91.536 56.9294 90.1212 57.8656C88.7065 58.8018 87.1144 59.4369 85.4437 59.7318C82.5165 59.9866 79.5759 60.0501 76.6404 59.9218C76.042 59.9368 75.4854 59.8368 75.5004 60.7301C75.5004 61.1668 75.1137 61.4534 74.8187 61.7501C73.7699 62.8034 72.7194 63.8551 71.667 64.9051C70.0004 66.5718 70.0004 66.5717 67.9537 65.5718C67.867 65.8851 67.797 66.1984 67.6954 66.5018C67.6129 66.8509 67.4107 67.1601 67.1239 67.3758C66.837 67.5913 66.4837 67.6996 66.1254 67.6818C65.292 67.6818 64.4437 67.7018 63.6054 67.6734C63.1854 67.6584 63.0554 67.7818 63.057 68.2134C63.0715 73.5468 63.0715 78.8801 63.057 84.2134C63.057 84.7384 63.2954 84.8384 63.7137 84.9551C64.9444 85.2714 66.0224 86.0153 66.7552 87.0533C67.488 88.0914 67.8277 89.3563 67.7137 90.6218C67.6235 91.8036 67.1492 92.9234 66.3632 93.8104C65.5774 94.6976 64.5227 95.3033 63.3604 95.5351C62.9465 95.6044 62.5264 95.6308 62.107 95.6134C44.1427 95.6134 26.1782 95.6134 8.21373 95.6134C6.88025 95.6676 5.57297 95.2323 4.53835 94.3891C3.50373 93.5461 2.81325 92.3538 2.59708 91.0368C2.38628 89.6996 2.68587 88.3321 3.4364 87.2054C4.18693 86.0789 5.33357 85.2756 6.64875 84.9551C6.74122 84.9439 6.8304 84.9139 6.9108 84.8669C6.99118 84.8198 7.06105 84.7568 7.11605 84.6816C7.17105 84.6064 7.21003 84.5208 7.23057 84.4299C7.2511 84.3391 7.25275 84.2449 7.23542 84.1534C7.22318 75.3646 7.22318 66.5751 7.23542 57.7851C7.2318 57.5809 7.18085 57.3806 7.08657 57.1994C6.99227 57.0184 6.85723 56.8618 6.69208 56.7417C5.0022 55.2197 3.76232 53.2633 3.10748 51.0854C2.45265 48.9074 2.40798 46.5916 2.97832 44.3901C3.54863 42.1884 4.71212 40.1856 6.34202 38.5996C7.97193 37.0136 10.0058 35.9051 12.2221 35.3951C13.5527 35.1281 14.9122 35.0328 16.2671 35.1118Z" fill="#066AA8"/>
<path d="M83.2288 69.8185C83.2288 71.7235 83.2422 73.6285 83.2288 75.5318C83.2218 76.7368 82.741 77.8908 81.8903 78.7445C81.0395 79.598 79.8872 80.0825 78.6822 80.0935C77.2938 80.1085 75.9055 80.0801 74.5155 80.1068C74.0605 80.1151 73.9305 79.9935 73.9105 79.5218C73.8105 76.9935 73.7938 76.9951 76.3405 76.9951C76.9538 76.9951 77.5672 76.9951 78.1738 76.9951C79.5288 76.9785 80.1155 76.4035 80.1188 75.0451C80.1188 71.3335 80.1438 67.6201 80.1022 63.9085C80.1022 63.1801 80.2688 63.0035 80.9972 63.0168C83.2238 63.0601 83.2238 63.0268 83.2238 65.2685C83.2272 66.784 83.2288 68.3006 83.2288 69.8185Z" fill="black"/>
<path d="M67.7188 78.4553C67.7188 76.9919 67.7188 76.9919 69.1654 76.9919C70.8221 76.9919 70.8221 76.9919 70.8221 78.6319C70.8221 80.0936 70.8221 80.0936 69.3754 80.0936C67.7187 80.0953 67.7188 80.0953 67.7188 78.4553Z" fill="black"/>
<path d="M74.8889 48.8032L75.3622 47.9699C75.5626 47.6707 75.6486 47.3092 75.6046 46.9519C75.5604 46.5946 75.3892 46.2649 75.1222 46.0233C73.6977 44.5699 72.2601 43.1294 70.8089 41.7016C69.8356 40.7399 68.9256 41.2899 67.9756 41.9432C67.8656 41.5532 67.7956 41.2199 67.6789 40.9033C67.5937 40.5721 67.3994 40.2794 67.1271 40.0724C66.8549 39.8656 66.5207 39.7566 66.1789 39.7633H59.9772C59.6192 39.7483 59.2672 39.8601 58.9836 40.0791C58.6997 40.2979 58.5021 40.6097 58.4256 40.9599C58.3289 41.2616 58.2589 41.5682 58.1639 41.8799C56.1639 40.8549 56.1472 40.8566 54.5789 42.4282C53.6667 43.3428 52.7534 44.2566 51.8389 45.1699C50.1989 46.8099 50.1989 46.8099 51.1906 48.7966C50.7031 49.0306 50.1604 49.1258 49.6222 49.0716C37.1534 49.0716 24.6844 49.0716 12.2156 49.0716C11.1037 48.9883 9.99854 49.3037 9.09838 49.9618C8.19821 50.6196 7.56199 51.5769 7.30391 52.6616C6.05036 50.9393 5.49431 48.8068 5.74724 46.6916C5.95109 44.2991 7.07474 42.0788 8.88188 40.4976C10.689 38.9164 13.0388 38.0976 15.4372 38.2132C16.6322 38.2132 17.8289 38.1899 19.0222 38.2132C19.3437 38.2594 19.6716 38.2064 19.9621 38.0609C20.2526 37.9156 20.4916 37.6849 20.6472 37.3999C20.8049 37.0977 20.8651 36.7543 20.8197 36.4164C20.7744 36.0786 20.6256 35.7633 20.3939 35.5133C17.7884 32.1814 16.4278 28.0446 16.5472 23.8166C16.6567 19.2073 18.4766 14.8035 21.6529 11.4617C24.8292 8.11982 29.1351 6.07882 33.7329 5.73564C38.3306 5.39245 42.8917 6.77162 46.5291 9.60489C50.1662 12.4382 52.6197 16.523 53.4122 21.0649C53.4356 21.1916 53.4922 21.3133 53.5056 21.4399C53.5087 21.7989 53.6332 22.1463 53.8591 22.4253C54.0849 22.7043 54.3986 22.8986 54.7489 22.9766C55.0991 23.0504 55.4637 23.0079 55.7876 22.8554C56.1112 22.7028 56.3762 22.4486 56.5422 22.1316C58.2039 19.9029 60.4946 18.2226 63.1192 17.3068C65.7439 16.3908 68.5827 16.2812 71.2702 16.9921C73.9577 17.7031 76.3709 19.2019 78.1996 21.2958C80.0281 23.3898 81.1882 25.9829 81.5306 28.7416C81.8117 31.1168 81.4889 33.5244 80.5922 35.7416C79.9972 37.2549 80.6522 38.2266 82.2856 38.1949C83.5212 38.0761 84.7681 38.2052 85.9531 38.5749C87.1381 38.9444 88.2372 39.5471 89.1861 40.3474C90.1349 41.1478 90.9142 42.1296 91.4784 43.2352C92.0426 44.3409 92.3802 45.5481 92.4714 46.7861C92.5626 48.0239 92.4054 49.2677 92.0092 50.4441C91.6132 51.6204 90.9861 52.7058 90.1646 53.6364C89.3432 54.5671 88.3442 55.3243 87.2262 55.8636C86.1081 56.4028 84.8936 56.7132 83.6539 56.7766C81.6256 56.8966 79.5839 56.7882 77.5506 56.8283C77.0006 56.8383 77.0139 56.5649 77.0172 56.1766C77.0289 54.6899 77.0172 53.2049 77.0172 51.7183C77.0222 49.5199 77.0222 49.5199 74.8889 48.8032Z" fill="white"/>
<path d="M51.2458 58.6432C51.0958 58.9082 50.9658 59.1649 50.8125 59.4066C50.5805 59.7242 50.4785 60.1186 50.5275 60.5087C50.5765 60.8991 50.7725 61.2561 51.0758 61.5066C52.4625 62.9066 53.8708 64.2866 55.2508 65.6916C56.2508 66.7116 57.1758 66.1699 58.1475 65.5249C58.4275 66.5149 58.6058 67.5416 59.8525 67.7332C60.0508 67.7632 59.9592 68.0666 59.9592 68.2482C59.9592 73.5466 59.9475 78.8449 59.9808 84.1432C59.9808 84.9282 59.5208 84.7432 59.1092 84.7432C52.8742 84.7432 46.6392 84.7566 40.4042 84.7432C39.3825 84.7432 38.5142 84.8699 38.2625 86.0466C38.1875 86.3982 37.9442 86.2999 37.7442 86.3016C35.9992 86.3016 34.2558 86.3016 32.5108 86.3099C32.2142 86.3099 32.0908 86.2482 31.9992 85.9199C31.7425 85.0049 31.0558 84.7399 30.1425 84.7432C23.8425 84.7632 17.5442 84.7432 11.2442 84.7732C10.4692 84.7732 10.3108 84.5599 10.3125 83.8232C10.3381 74.0021 10.3436 64.1804 10.3292 54.3582C10.3292 52.6799 10.8292 52.1799 12.5325 52.1799C24.4213 52.1799 36.3103 52.1732 48.1992 52.1599C48.9875 52.1599 49.1658 52.3899 49.1225 53.1182C49.0625 54.1482 49.1075 55.1849 49.1075 56.2182C49.1075 57.7716 49.3092 58.0516 50.7592 58.4866C50.9108 58.5299 51.0608 58.5816 51.2458 58.6432Z" fill="white"/>
<path d="M35.12 92.502C26.27 92.502 17.4195 92.502 8.56841 92.502C8.05421 92.5707 7.53121 92.4835 7.06707 92.2518C6.60296 92.02 6.21907 91.6542 5.96509 91.2018C5.77794 90.8412 5.68984 90.4372 5.70981 90.0313C5.72977 89.6255 5.85709 89.2322 6.07874 88.8917C6.30039 88.551 6.60844 88.2752 6.97147 88.0925C7.33449 87.9098 7.73947 87.8268 8.14509 87.8518C9.92009 87.8102 11.6984 87.8418 13.4784 87.8418C18.324 87.8418 23.169 87.8418 28.0133 87.8418C28.5483 87.8418 28.9517 87.8253 29.125 88.5087C29.2125 88.791 29.3957 89.034 29.643 89.1958C29.8903 89.3577 30.1863 89.4282 30.48 89.3952C33.5812 89.3952 36.6823 89.3952 39.7833 89.3952C40.1095 89.4255 40.4358 89.3395 40.7048 89.1525C40.9737 88.9657 41.168 88.6898 41.2535 88.3737C41.3918 87.8503 41.6467 87.8385 42.0567 87.8385C48.6778 87.8452 55.2995 87.8452 61.9217 87.8385C62.2583 87.789 62.6017 87.8132 62.928 87.909C63.2545 88.005 63.5562 88.1705 63.8123 88.3943C64.0687 88.6182 64.2733 88.8948 64.4123 89.2053C64.5513 89.5158 64.6213 89.8528 64.6175 90.193C64.6137 90.5332 64.5363 90.8685 64.3903 91.1758C64.2445 91.4832 64.0337 91.7552 63.7727 91.9733C63.5115 92.1913 63.2062 92.3502 62.8777 92.4388C62.5492 92.5275 62.2055 92.5438 61.87 92.4868C52.9478 92.5025 44.0312 92.5075 35.12 92.502Z" fill="white"/>
<path d="M73.9237 53.7333C73.9237 55.5433 73.9237 55.5433 72.2137 56.035C71.9377 56.0667 71.6752 56.1708 71.4525 56.3368C71.2299 56.5028 71.055 56.725 70.946 56.9805C70.837 57.236 70.7975 57.5157 70.8317 57.7913C70.8659 58.067 70.9724 58.3287 71.1404 58.5498C71.992 60.1248 71.992 60.125 70.7254 61.3933C69.4587 62.6617 69.4737 62.645 67.8804 61.7933C67.6575 61.6277 67.395 61.5238 67.1192 61.4922C66.8434 61.4603 66.564 61.502 66.3095 61.6128C66.0549 61.7235 65.834 61.8993 65.6692 62.1228C65.5042 62.3462 65.4012 62.609 65.3704 62.885C64.8704 64.5833 64.8704 64.5833 63.062 64.5833C61.2537 64.5833 61.262 64.5833 60.7587 62.8767C60.726 62.5918 60.6165 62.3213 60.442 62.0938C60.2675 61.8665 60.0345 61.6908 59.7679 61.5853C59.5014 61.48 59.2112 61.449 58.9284 61.4955C58.6455 61.5422 58.3807 61.6647 58.162 61.85C56.692 62.6833 56.692 62.6833 55.467 61.455L55.3987 61.3867C54.147 60.135 54.147 60.135 54.9954 58.5417C55.1604 58.3182 55.2637 58.0552 55.2954 57.7792C55.3269 57.5033 55.2857 57.2238 55.1755 56.9688C55.0654 56.7138 54.8902 56.4922 54.6677 56.326C54.4452 56.1597 54.1829 56.0548 53.907 56.0215C52.207 55.5015 52.207 55.5017 52.207 53.7217C52.207 51.9417 52.207 51.925 53.9137 51.42C54.1984 51.3865 54.4685 51.2767 54.6957 51.1018C54.9229 50.927 55.0984 50.694 55.2035 50.4273C55.3087 50.1608 55.3395 49.8707 55.293 49.5878C55.2464 49.3052 55.1239 49.0403 54.9387 48.8217C54.1137 47.35 54.1137 47.35 55.3354 46.1283L55.4037 46.06C56.6704 44.7933 56.6704 44.7933 58.2537 45.6467C58.4744 45.8148 58.7359 45.9212 59.0112 45.9547C59.2865 45.9883 59.5659 45.9478 59.8204 45.8378C60.075 45.7277 60.2957 45.5517 60.4597 45.328C60.6237 45.1043 60.7252 44.8408 60.7537 44.565C61.2537 42.8683 61.2537 42.8682 63.0654 42.8682C64.877 42.8682 64.8587 42.8683 65.3654 44.5767C65.3954 44.8535 65.4989 45.1172 65.665 45.3405C65.8312 45.564 66.0542 45.7388 66.3107 45.8472C66.5672 45.9553 66.848 45.9932 67.124 45.9565C67.4 45.9197 67.661 45.8098 67.8804 45.6383C69.4504 44.79 69.4504 44.79 70.7287 46.0683C71.9804 47.32 71.9804 47.32 71.1254 48.9133C70.9647 49.1293 70.8622 49.383 70.8277 49.65C70.793 49.9172 70.8277 50.1885 70.928 50.4383C71.0284 50.6882 71.1912 50.9082 71.4009 51.077C71.6104 51.246 71.86 51.3583 72.1254 51.4032C72.1554 51.4132 72.1904 51.4133 72.2204 51.4233C73.9237 51.9233 73.9237 51.9233 73.9237 53.7333Z" fill="white"/>
<path d="M49.1696 28.9082C52.7251 28.9082 56.2763 28.9082 59.823 28.9082C60.4608 28.8802 61.0976 28.9856 61.6926 29.2172C62.2876 29.4489 62.8278 29.8021 63.2788 30.2542C63.7298 30.7062 64.0816 31.2472 64.3118 31.8429C64.5421 32.4384 64.6458 33.0754 64.6163 33.7132C64.6163 34.5199 64.593 35.3282 64.6263 36.1349C64.6446 36.5716 64.4846 36.6532 64.0763 36.6749C61.518 36.8099 61.518 36.8216 61.5146 34.2799C61.5146 32.4799 61.0363 32.0099 59.2096 32.0099H38.8763C37.2096 32.0099 36.7096 32.5199 36.7096 34.2166C36.7096 35.8316 36.6913 37.4449 36.7196 39.0599C36.7296 39.5716 36.638 39.7732 36.053 39.7816C33.6063 39.8149 33.6063 39.8382 33.6063 37.3649C33.6063 36.1066 33.6063 34.8466 33.6063 33.5866C33.5945 32.9652 33.709 32.3479 33.9428 31.7719C34.1766 31.1961 34.5248 30.6736 34.9663 30.2362C35.408 29.7989 35.9336 29.4557 36.5118 29.2274C37.09 28.9991 37.7083 28.8906 38.3296 28.9082C41.938 28.9016 45.5546 28.9082 49.1696 28.9082Z" fill="black"/>
<path d="M35.0504 45.97C33.5938 45.97 33.5938 45.97 33.5938 44.5184C33.5938 42.8667 33.5937 42.8667 35.2387 42.8667C36.6954 42.8667 36.6954 42.8667 36.6954 44.3184C36.6971 45.97 36.6971 45.97 35.0504 45.97Z" fill="black"/>
<path d="M69.27 53.712C69.2718 54.9397 68.9095 56.1403 68.2288 57.1618C67.548 58.1835 66.5793 58.9802 65.4455 59.451C64.3116 59.9218 63.0636 60.0455 61.8595 59.8067C60.6553 59.5678 59.549 58.9768 58.6808 58.1088C57.8125 57.241 57.2213 56.1348 56.9821 54.9307C56.743 53.7265 56.8665 52.4785 57.337 51.3445C57.8075 50.2107 58.6038 49.2417 59.6253 48.5607C60.6466 47.8797 61.8473 47.517 63.075 47.5187C63.8898 47.5135 64.6975 47.6702 65.4513 47.9797C66.205 48.289 66.89 48.745 67.4661 49.3212C68.0425 49.8972 68.4986 50.582 68.8081 51.3357C69.1178 52.0893 69.2748 52.8972 69.27 53.712Z" fill="black"/>
<path d="M66.1618 53.7651C66.1548 54.3786 65.9657 54.9763 65.6183 55.4821C65.2712 55.9879 64.7815 56.3793 64.2115 56.6063C63.6415 56.8334 63.0168 56.8859 62.4168 56.7574C61.817 56.6289 61.2687 56.3253 60.8417 55.8846C60.4147 55.4439 60.1282 54.8864 60.0185 54.2828C59.909 53.6791 59.9812 53.0564 60.226 52.4938C60.4708 51.9313 60.8772 51.4541 61.3937 51.1228C61.9102 50.7916 62.5135 50.6213 63.1268 50.6334C63.9368 50.6696 64.7023 51.0139 65.2667 51.5963C65.8308 52.1784 66.1512 52.9544 66.1618 53.7651Z" fill="#F9F9F9"/>
</g>
</g>
<defs>
<clipPath id="clip0_2005_2869">
<rect width="100" height="100" fill="white"/>
</clipPath>
</defs>
</svg>
