<svg width="100" height="99" viewBox="0 0 100 99" fill="none" xmlns="http://www.w3.org/2000/svg">
<mask id="mask0_2005_2841" style="mask-type:luminance" maskUnits="userSpaceOnUse" x="0" y="0" width="99" height="98">
<path d="M98.9375 0H0V97.2893H98.9375V0Z" fill="white"/>
</mask>
<g mask="url(#mask0_2005_2841)">
<path d="M24.9095 48.0141V45.0248L14.9238 40.9534L24.9095 36.8462V33.8623L11.7773 39.5873V42.2909L24.9095 48.0141ZM33.8613 48.0141L46.9934 42.2891V39.5873L33.8613 33.8623V36.8516L43.847 40.9587L33.8613 45.0302V48.0141Z" fill="black"/>
<path d="M92.6886 22.4535L97.2815 18.3071L95.0654 12.9499L88.8833 13.2642L85.6654 10.0481L85.9797 3.86597L80.6225 1.6499L76.4833 6.24276H71.9225L67.7743 1.6499L62.4172 3.86597L62.7315 10.0481L59.5154 13.2713L53.3333 12.957L51.1172 18.3142L55.71 22.4625V27.0232L51.1172 31.1625L53.3333 36.5196L59.5154 36.2053L62.7404 39.4303L62.4261 45.6125L67.7833 47.8285L71.9225 43.2214H76.4833L80.6315 47.8142L85.9886 45.5982L85.6743 39.416L88.8993 36.191L95.0815 36.5053L97.2975 31.1482L92.6886 27.016V22.4535ZM74.2029 32.9803C72.5722 32.9803 70.9783 32.4967 69.6224 31.5908C68.2665 30.6848 67.2099 29.3973 66.5858 27.8907C65.9618 26.3842 65.7984 24.7266 66.1167 23.1271C66.4347 21.5278 67.22 20.0589 68.3731 18.9058C69.5261 17.7527 70.995 16.9675 72.5943 16.6494C74.1938 16.3313 75.8515 16.4945 77.3579 17.1186C78.8645 17.7426 80.152 18.7992 81.0581 20.1551C81.964 21.511 82.4475 23.105 82.4475 24.7357C82.4475 25.8183 82.2343 26.8905 81.8199 27.8907C81.4056 28.891 80.7983 29.8 80.0327 30.5655C79.2672 31.331 78.3583 31.9383 77.3579 32.3526C76.3577 32.7669 75.2856 32.9803 74.2029 32.9803Z" fill="white"/>
<path d="M92.3411 67.6087H3.29821V21.4373H46.1714V18.1391H3.29821V11.5444C3.29916 10.67 3.64695 9.83161 4.26529 9.21327C4.88361 8.59495 5.72198 8.24716 6.59643 8.24621H57.7125V4.948H6.59643C4.84782 4.95082 3.17164 5.64671 1.93518 6.88318C0.698721 8.11962 0.00283329 9.7958 0 11.5444V77.5016C0.00283329 79.2501 0.698721 80.9264 1.93518 82.1628C3.17164 83.3993 4.84782 84.0951 6.59643 84.098H35.6696L34.7768 93.9909H29.6804V97.2891H65.9571V93.9909H60.8679L59.975 84.098H89.0429C90.7914 84.0951 92.4677 83.3993 93.7041 82.1628C94.9405 80.9264 95.6364 79.2501 95.6393 77.5016V41.2248H92.3411V67.6087ZM57.5571 93.9909H38.0821L38.975 84.098H56.6536L57.5464 93.9909H57.5571ZM89.0429 80.7998H6.59643C5.72198 80.7989 4.88361 80.451 4.26529 79.8326C3.64695 79.2144 3.29916 78.376 3.29821 77.5016V70.9123H92.3411V77.5016C92.3402 78.376 91.9923 79.2144 91.3739 79.8326C90.7557 80.451 89.9173 80.7989 89.0429 80.7998Z" fill="#066AA8"/>
<path d="M46.1719 74.2034H49.4701V77.5016H46.1719V74.2034Z" fill="black"/>
<path d="M74.2015 14.8411C72.2449 14.8411 70.3322 15.4213 68.7052 16.5083C67.0784 17.5954 65.8104 19.1405 65.0616 20.9481C64.3129 22.7558 64.117 24.7449 64.4986 26.6638C64.8804 28.583 65.8225 30.3456 67.2061 31.7292C68.5897 33.1128 70.3524 34.0549 72.2715 34.4367C74.1904 34.8183 76.1795 34.6224 77.9874 33.8737C79.795 33.1249 81.34 31.8569 82.427 30.2301C83.5142 28.6031 84.0943 26.6905 84.0943 24.7338C84.0943 23.4347 83.8384 22.1483 83.3413 20.9481C82.8442 19.7478 82.1154 18.6572 81.1968 17.7386C80.2781 16.82 79.1875 16.0913 77.9874 15.5941C76.787 15.0969 75.5006 14.8411 74.2015 14.8411ZM74.2015 31.3303C72.8968 31.3303 71.6215 30.9435 70.5367 30.2187C69.4518 29.4939 68.6065 28.4637 68.1072 27.2583C67.6079 26.053 67.4772 24.7265 67.7318 23.4471C67.9863 22.1674 68.6145 20.9921 69.537 20.0696C70.4595 19.1471 71.635 18.5187 72.9145 18.2642C74.1942 18.0097 75.5204 18.1403 76.7258 18.6396C77.9311 19.1389 78.9613 19.9844 79.6861 21.0692C80.4109 22.1539 80.7979 23.4292 80.7979 24.7338C80.7979 26.4833 80.1029 28.1612 78.8658 29.3983C77.6288 30.6353 75.9509 31.3303 74.2015 31.3303Z" fill="#066AA8"/>
<path d="M94.343 26.2818V23.1872L98.3912 19.5301C98.6439 19.3026 98.82 19.0026 98.8953 18.6709C98.9709 18.3395 98.9419 17.9927 98.8127 17.6783L96.5966 12.3211C96.4664 12.0065 96.242 11.7399 95.9543 11.558C95.6664 11.3761 95.3295 11.2877 94.9894 11.3051L89.5394 11.5836L87.3484 9.39793L87.6287 3.94972C87.6461 3.6097 87.5577 3.27265 87.3757 2.98486C87.1937 2.69709 86.9273 2.47272 86.6127 2.34257L81.2555 0.124725C80.9425 -0.00505736 80.5971 -0.0352583 80.2664 0.0382326C79.9359 0.111723 79.6357 0.285337 79.4073 0.535439L75.7573 4.59257H72.6573L68.9984 0.535439C68.7693 0.283857 68.468 0.10932 68.1357 0.0357848C67.8036 -0.037751 67.4568 -0.00668313 67.143 0.124725L61.7859 2.34079C61.4712 2.47093 61.2046 2.69531 61.0227 2.98307C60.8407 3.27086 60.7523 3.60791 60.7698 3.94793L61.0502 9.39793L58.868 11.5872L53.4198 11.3069C53.0798 11.2895 52.7427 11.3779 52.4548 11.5598C52.1671 11.7417 51.9427 12.0083 51.8127 12.3229L49.5966 17.6801C49.4661 17.9947 49.4361 18.3418 49.5109 18.6742C49.5857 19.0063 49.7616 19.3072 50.0145 19.5354L54.0627 23.1926V26.2872L50.0145 29.9443C49.7616 30.1726 49.5857 30.4734 49.5109 30.8058C49.4361 31.1379 49.4661 31.4852 49.5966 31.7997L51.8127 37.1568C51.9427 37.4715 52.1671 37.7381 52.4548 37.9201C52.7427 38.102 53.0798 38.1902 53.4198 38.1729L58.868 37.8926L61.0573 40.0818L60.777 45.5318C60.7605 45.8717 60.8493 46.2083 61.0312 46.4959C61.213 46.7834 61.4789 47.0081 61.793 47.139L67.1502 49.3551C67.4646 49.4856 67.8119 49.5156 68.1441 49.4408C68.4764 49.3659 68.7773 49.1901 69.0055 48.9372L72.6627 44.8872H75.7573L79.4073 48.9283C79.6352 49.1813 79.9361 49.3576 80.2682 49.4327C80.6005 49.5079 80.9478 49.4783 81.2627 49.3479L86.6198 47.1318C86.9343 47.0017 87.2009 46.7774 87.3828 46.4895C87.5648 46.2018 87.6532 45.8647 87.6359 45.5247L87.3555 40.0747L89.5466 37.8854L94.9948 38.1658C95.3348 38.1834 95.672 38.0952 95.9598 37.9133C96.2477 37.7313 96.4719 37.4645 96.602 37.1497L98.818 31.7926C98.9486 31.4781 98.9784 31.1308 98.9036 30.7986C98.8287 30.4663 98.6528 30.1654 98.4002 29.9372L94.343 26.2818ZM93.9859 34.8068L88.9716 34.5497C88.7411 34.5381 88.5107 34.5751 88.2953 34.6581C88.08 34.7411 87.8845 34.8685 87.7216 35.0318L84.5073 38.2551C84.3439 38.4181 84.2164 38.6136 84.1334 38.8288C84.0503 39.0442 84.0136 39.2745 84.0252 39.5051L84.2805 44.5229L81.0805 45.8479L77.7127 42.1193C77.5582 41.9481 77.3694 41.8111 77.1587 41.7172C76.948 41.6234 76.72 41.5749 76.4894 41.5747H71.9216C71.6912 41.5751 71.4636 41.6238 71.253 41.7176C71.0427 41.8115 70.8543 41.9483 70.7002 42.1193L67.3323 45.8497L64.1323 44.5247L64.3877 39.5051C64.3994 39.2747 64.3628 39.0443 64.2802 38.8292C64.1973 38.6138 64.0703 38.4183 63.9073 38.2551L60.6823 35.0301C60.5191 34.8668 60.3236 34.7397 60.1084 34.6567C59.893 34.5736 59.6627 34.5365 59.4323 34.5479L54.4145 34.8033L53.0877 31.6068L56.8162 28.239C56.9875 28.0845 57.1244 27.896 57.2184 27.6852C57.3121 27.4745 57.3607 27.2465 57.3609 27.0158V22.4515C57.3603 22.2211 57.3118 21.9934 57.218 21.7831C57.1241 21.5727 56.9873 21.3843 56.8162 21.2301L53.0787 17.8569L54.4037 14.6569L59.4234 14.9122C59.6537 14.9241 59.8839 14.8875 60.0993 14.8047C60.3146 14.722 60.5102 14.5949 60.6734 14.4319L63.8984 11.2069C64.0618 11.0439 64.1891 10.8484 64.2721 10.6331C64.3552 10.4177 64.3921 10.1874 64.3805 9.95686L64.1252 4.939L67.3252 3.614L70.693 7.34257C70.8475 7.5139 71.0361 7.6509 71.2468 7.74472C71.4575 7.83854 71.6855 7.88707 71.9162 7.88722H76.4787C76.7091 7.88682 76.9368 7.83816 77.1471 7.74436C77.3575 7.65054 77.5459 7.51368 77.7002 7.34257L81.068 3.61222L84.268 4.93722L84.0127 9.95686C84.0007 10.1872 84.0373 10.4175 84.1202 10.6328C84.2028 10.8482 84.3298 11.0437 84.493 11.2069L87.7216 14.4354C87.8846 14.5987 88.0802 14.7259 88.2955 14.8089C88.5107 14.892 88.7411 14.929 88.9716 14.9176L93.9894 14.6622L95.318 17.8569L91.5895 21.2247C91.418 21.3792 91.2811 21.5679 91.1873 21.7785C91.0934 21.9892 91.0448 22.2174 91.0448 22.4479V27.0104C91.0452 27.2408 91.0937 27.4684 91.1877 27.6788C91.2814 27.8893 91.4184 28.0776 91.5895 28.2318L95.3198 31.6068L93.9948 34.8068H93.9859ZM11.543 54.239H14.8412V57.5354H11.543V54.239ZM18.1395 54.239H46.1752V57.5354H18.1395V54.239Z" fill="black"/>
</g>
</svg>
