<svg width="100" height="100" viewBox="0 0 100 100" fill="none" xmlns="http://www.w3.org/2000/svg">
<g clip-path="url(#clip0_2004_2651)">
<mask id="mask0_2004_2651" style="mask-type:luminance" maskUnits="userSpaceOnUse" x="0" y="0" width="100" height="100">
<path d="M100 0H0V100H100V0Z" fill="white"/>
</mask>
<g mask="url(#mask0_2004_2651)">
<path d="M50.0402 63.5736C65.199 63.5736 80.3573 63.5809 95.515 63.5953C96.3983 63.5953 96.65 63.4286 96.6467 62.4869C96.6123 46.9536 96.604 31.4209 96.6217 15.8886C96.6217 13.9036 96.1435 13.4203 94.1852 13.4186C93.3185 13.4186 92.4502 13.4353 91.5835 13.4186C91.357 13.4337 91.1302 13.3989 90.9187 13.3167C90.7072 13.2345 90.5163 13.1068 90.3597 12.9428C90.2028 12.7788 90.0842 12.5823 90.0117 12.3673C89.9392 12.1524 89.9147 11.9241 89.9402 11.6986C89.9282 11.481 89.9627 11.2632 90.0415 11.06C90.1203 10.8568 90.2418 10.6727 90.3975 10.5202C90.5532 10.3676 90.7397 10.25 90.9445 10.1753C91.1493 10.1006 91.3677 10.0705 91.5852 10.087C92.7985 10.0653 94.0135 10.0586 95.2268 10.087C96.4687 10.1459 97.6432 10.6693 98.5173 11.5534C99.3917 12.4375 99.9018 13.6178 99.9468 14.8603C99.9785 16.7402 99.9468 18.6202 99.9468 20.5019C99.9468 38.5769 99.9018 56.6519 99.9902 74.7269C100.011 75.4644 99.8828 76.1986 99.6123 76.8851C99.3417 77.5714 98.9347 78.1958 98.4158 78.7204C97.897 79.2449 97.2772 79.6589 96.5938 79.9371C95.9105 80.2152 95.1778 80.3517 94.44 80.3386C64.8167 80.2719 35.194 80.2719 5.57177 80.3386C4.83457 80.3531 4.10204 80.2186 3.41814 79.9429C2.73425 79.6674 2.1131 79.2564 1.59197 78.7349C1.07083 78.2132 0.660437 77.5918 0.385457 76.9076C0.110475 76.2234 -0.0234571 75.4908 -0.00827091 74.7536C0.0783957 55.0426 0.0783957 35.3309 -0.00827091 15.6186C-0.0474464 14.8769 0.0702157 14.1352 0.337036 13.4421C0.603856 12.7489 1.01385 12.1197 1.54024 11.5957C2.06664 11.0717 2.69762 10.6645 3.392 10.4008C4.08637 10.1371 4.82854 10.0228 5.57009 10.0653C6.43009 10.1453 7.30342 10.0653 8.17009 10.0786C9.43009 10.0903 10.0601 10.6636 10.0451 11.7769C10.0318 12.8469 9.41674 13.4053 8.21174 13.4186C7.34507 13.4286 6.47674 13.4186 5.61007 13.4186C3.9234 13.4186 3.36174 13.9803 3.36174 15.662C3.36174 25.4142 3.36174 35.1653 3.36174 44.9152C3.36174 50.8019 3.37674 56.6869 3.34174 62.5719C3.34174 63.3719 3.51675 63.5953 4.34175 63.5936C19.5807 63.5659 34.8135 63.5592 50.0402 63.5736Z" fill="#066AA8"/>
<path d="M49.9367 16.7568C39.1983 16.7568 28.4617 16.7685 17.725 16.7352C16.8917 16.7352 16.725 16.9735 16.725 17.7635C16.7483 31.2413 16.7533 44.7185 16.74 58.1952C16.74 59.5918 16.1334 60.2785 14.9751 60.2218C14.5724 60.2212 14.1856 60.0647 13.896 59.785C13.6064 59.5053 13.4364 59.1242 13.4217 58.7218C13.3984 58.4452 13.4217 58.1652 13.4217 57.8885C13.4217 40.4418 13.4684 22.9935 13.3801 5.55517C13.3651 4.82713 13.4964 4.10352 13.7664 3.42722C14.0363 2.75092 14.4393 2.13572 14.9515 1.61811C15.4637 1.1005 16.0746 0.691007 16.748 0.413938C17.4213 0.136871 18.1435 -0.00213969 18.8717 0.00515578C39.6495 0.0851558 60.4312 0.0851558 81.2167 0.00515578C81.9287 0.00205093 82.6342 0.140234 83.2923 0.4117C83.9505 0.683168 84.5482 1.08254 85.0508 1.58665C85.5535 2.09077 85.9513 2.68962 86.221 3.34852C86.4905 4.0074 86.6268 4.71327 86.6217 5.42518C86.5517 23.0118 86.5883 40.5918 86.5867 58.1835C86.5867 59.6202 86.035 60.2752 84.865 60.2502C84.6567 60.2607 84.4482 60.2283 84.2528 60.1548C84.0575 60.0815 83.8793 59.9687 83.7293 59.8233C83.5795 59.6782 83.461 59.5037 83.3815 59.3107C83.3018 59.1178 83.2628 58.9105 83.2667 58.7018C83.245 58.3552 83.2567 58.0052 83.2567 57.6568C83.2567 44.389 83.265 31.1207 83.2817 17.8518C83.2817 16.9152 83.0417 16.7352 82.1533 16.7385C71.41 16.7735 60.6733 16.7568 49.9367 16.7568Z" fill="#066AA8"/>
<path d="M39.1598 89.9484H60.7565C60.1031 89.0351 59.4715 88.1917 58.8865 87.3217C58.5418 86.8014 58.2343 86.2572 57.9665 85.6934C57.8436 85.4921 57.7648 85.2669 57.7348 85.0331C57.705 84.7991 57.7246 84.5614 57.7928 84.3356C57.861 84.1097 57.9758 83.9007 58.1301 83.7224C58.2843 83.5439 58.4745 83.4001 58.6881 83.3001C58.8896 83.1927 59.1116 83.1296 59.3395 83.1144C59.5673 83.0992 59.7956 83.1327 60.0095 83.2124C60.2235 83.2921 60.4181 83.4162 60.5805 83.5767C60.7428 83.7372 60.8693 83.9304 60.9515 84.1434C61.907 85.9607 63.1508 87.6111 64.6348 89.0301C64.9288 89.3661 65.2978 89.6286 65.7116 89.7961C66.1256 89.9637 66.5731 90.0317 67.0181 89.9951C67.9858 89.8624 68.9705 89.9259 69.9131 90.1817C70.9093 90.5076 71.78 91.1344 72.4046 91.9759C73.0295 92.8176 73.3778 93.8322 73.4015 94.8801C73.4165 95.9584 73.4165 97.0367 73.4015 98.1167C73.3881 99.3784 72.8015 99.9967 71.5681 99.9967C57.1948 100.003 42.8215 100.003 28.4481 99.9967C28.1956 100.032 27.9386 100.007 27.6971 99.9259C27.4556 99.8444 27.2365 99.7079 27.0568 99.5272C26.8771 99.3466 26.7418 99.1266 26.6616 98.8847C26.5815 98.6429 26.5586 98.3856 26.5948 98.1334C26.5815 97.0201 26.5748 95.9067 26.5948 94.8001C26.6398 93.5214 27.1731 92.3086 28.0853 91.4114C28.9975 90.5141 30.2188 90.0007 31.4981 89.9767C31.533 89.9731 31.5681 89.9731 31.6031 89.9767C33.9515 90.4767 35.4581 89.2284 36.7865 87.5367C37.602 86.5444 38.3198 85.4756 38.9298 84.3451C39.5081 83.2151 40.3565 82.8551 41.2848 83.2984C42.2581 83.7617 42.5031 84.7217 41.9515 85.8701C41.1866 87.3357 40.2495 88.7051 39.1598 89.9484Z" fill="#066AA8"/>
<path d="M43.3097 54.8636C43.3347 54.7753 43.3997 54.5086 43.4864 54.2486C46.7664 44.4053 50.0442 34.5625 53.3197 24.7203C53.3846 24.378 53.5501 24.063 53.7951 23.8153C54.0401 23.5676 54.3532 23.3988 54.6947 23.3303C56.1047 23.0936 57.0147 24.2553 56.5281 25.7303C55.5447 28.7586 54.5281 31.7753 53.5281 34.797C51.2892 41.528 49.0487 48.2586 46.8064 54.9886C46.3314 56.412 45.8697 56.822 44.8647 56.7636C44.6344 56.7505 44.4091 56.6896 44.2034 56.5848C43.9977 56.4801 43.8161 56.3338 43.6699 56.1551C43.5237 55.9766 43.4162 55.7696 43.3542 55.5471C43.2922 55.3248 43.2771 55.0921 43.3097 54.8636Z" fill="black"/>
<path d="M38.3903 31.7334C38.4536 32.4567 37.8903 32.9 37.3586 33.3434C34.8753 35.4167 32.4053 37.5102 29.9003 39.5519C29.4136 39.9485 29.4003 40.1085 29.9003 40.5152C32.4603 42.6019 34.9836 44.7367 37.5236 46.8484C38.0719 47.3034 38.5886 47.7785 38.5019 48.5752C38.4814 48.881 38.3781 49.1755 38.2028 49.4269C38.0273 49.6784 37.7868 49.8772 37.5068 50.002C37.2268 50.1269 36.9179 50.1729 36.6138 50.1352C36.3096 50.0975 36.0214 49.9777 35.7803 49.7885C32.3591 46.994 28.9653 44.1667 25.5986 41.3067C25.3943 41.1517 25.2298 40.9502 25.1191 40.7189C25.0083 40.4875 24.9543 40.233 24.9616 39.9767C24.9689 39.7202 25.0374 39.4694 25.1613 39.2447C25.2851 39.02 25.4608 38.8282 25.6736 38.685C28.9703 35.905 32.2936 33.155 35.6069 30.395C35.8533 30.1715 36.1618 30.028 36.4914 29.9834C36.8211 29.9387 37.1566 29.9952 37.4536 30.145C37.7556 30.2795 38.0081 30.5047 38.1759 30.7894C38.3439 31.0742 38.4188 31.4042 38.3903 31.7334Z" fill="black"/>
<path d="M63.2462 50.1233C62.8944 50.1295 62.5502 50.0223 62.264 49.8176C61.978 49.6128 61.7655 49.3215 61.6579 48.9866C61.5209 48.6616 61.4979 48.2998 61.5925 47.96C61.6874 47.6201 61.894 47.3223 62.1794 47.115C63.6239 45.9161 65.0684 44.714 66.5129 43.5083C67.7145 42.5083 68.8945 41.4733 70.1279 40.5083C70.6495 40.1016 70.5629 39.9133 70.1062 39.54C67.5779 37.465 65.0779 35.3583 62.5645 33.2633C61.5279 32.3983 61.3077 31.3916 61.9894 30.5833C62.671 29.775 63.6795 29.7866 64.7345 30.6633C67.8645 33.2645 70.9905 35.8705 74.1129 38.4816C74.394 38.635 74.6284 38.8616 74.7909 39.1375C74.9535 39.4135 75.0384 39.7283 75.0364 40.0485C75.0342 40.3688 74.9455 40.6825 74.7794 40.9563C74.6132 41.23 74.3759 41.4536 74.0929 41.6033C70.9417 44.2333 67.7879 46.8595 64.6312 49.4816C64.2682 49.8643 63.7727 50.0938 63.2462 50.1233Z" fill="black"/>
<path d="M50.0086 66.655C65.1953 66.655 80.382 66.6476 95.5686 66.6333C96.4303 66.6333 96.6636 66.8266 96.637 67.7016C96.5686 69.9966 96.622 72.2966 96.6103 74.595C96.6103 76.0766 96.007 76.67 94.5153 76.67C64.8353 76.67 35.1553 76.67 5.47526 76.67C3.99693 76.67 3.39861 76.0616 3.39361 74.58C3.38528 72.2466 3.43365 69.9133 3.36865 67.58C3.34531 66.765 3.59865 66.6333 4.34531 66.635C19.5653 66.6595 34.7865 66.666 50.0086 66.655Z" fill="white"/>
<path d="M49.9935 13.417C39.2635 13.417 28.5335 13.4053 17.8035 13.4387C16.9368 13.4387 16.7151 13.2353 16.7401 12.367C16.8085 10.072 16.7551 7.77199 16.7651 5.47365C16.7651 3.98699 17.3651 3.38867 18.8485 3.38867C39.6161 3.38867 60.384 3.38867 81.1518 3.38867C82.6301 3.38867 83.2218 3.99032 83.2301 5.48032C83.2418 7.81365 83.1935 10.147 83.2551 12.4803C83.2751 13.277 83.0518 13.4387 82.2885 13.437C71.5228 13.4092 60.7578 13.4026 49.9935 13.417Z" fill="white"/>
<path d="M49.9073 96.6552C43.6056 96.6552 37.304 96.6385 31.004 96.6768C30.1556 96.6768 29.879 96.5102 29.9223 95.6185C30.0056 93.8602 30.4873 93.3135 32.2423 93.3135C44.079 93.3135 55.9156 93.3135 67.7523 93.3135C68.1361 93.2613 68.5268 93.3115 68.885 93.4592C69.2431 93.6068 69.5558 93.8467 69.7911 94.1542C70.0266 94.4618 70.1765 94.8262 70.2256 95.2103C70.2746 95.5947 70.2213 95.985 70.0706 96.3418C69.9406 96.8518 69.5873 96.6451 69.334 96.6468C66.689 96.6635 64.0423 96.6568 61.3956 96.6568L49.9073 96.6552Z" fill="#FEEFF2"/>
<path d="M50.0314 73.3452C48.9514 73.3452 47.8648 73.3586 46.7931 73.3452C46.5673 73.3671 46.3393 73.3414 46.1238 73.2701C45.9083 73.1987 45.7099 73.0832 45.5416 72.9309C45.3733 72.7787 45.2386 72.5929 45.1463 72.3856C45.0538 72.1782 45.0056 71.9539 45.0048 71.7269C44.9973 71.4912 45.0398 71.2567 45.1296 71.0387C45.2196 70.8207 45.3546 70.6242 45.5259 70.4622C45.6974 70.3004 45.9011 70.1766 46.1239 70.0992C46.3466 70.0219 46.5832 69.9927 46.8181 70.0136C49.0114 69.9981 51.2053 69.9981 53.3998 70.0136C53.6354 69.9961 53.8721 70.0289 54.0941 70.1097C54.3161 70.1906 54.5184 70.3177 54.6876 70.4827C54.8566 70.6479 54.9888 70.8469 55.0751 71.0669C55.1614 71.2869 55.1999 71.5226 55.1881 71.7586C55.1841 71.9856 55.1326 72.2091 55.0369 72.4149C54.9413 72.6206 54.8038 72.8041 54.6329 72.9536C54.4621 73.1031 54.2619 73.2151 54.0452 73.2826C53.8286 73.3499 53.6003 73.3714 53.3748 73.3452C52.2598 73.3536 51.1464 73.3452 50.0314 73.3452Z" fill="black"/>
<path d="M68.2527 10.0734C65.0172 10.0734 61.7822 10.0734 58.5479 10.0734C57.2379 10.0734 56.5961 9.54507 56.5711 8.47173C56.5444 7.34673 57.2227 6.73507 58.5361 6.7334C65.0417 6.7334 71.5467 6.7334 78.0511 6.7334C79.2944 6.7334 79.9894 7.34173 79.9927 8.40007C79.9961 9.4584 79.2979 10.0667 78.0629 10.0751C74.7872 10.0795 71.5172 10.079 68.2527 10.0734Z" fill="black"/>
<path d="M21.6976 10.0721C21.3664 10.072 21.0427 9.97328 20.7679 9.78848C20.4931 9.60366 20.2796 9.34118 20.1546 9.0345C20.0296 8.7278 19.9987 8.39083 20.0661 8.06658C20.1334 7.74231 20.2959 7.44545 20.5326 7.21388C20.7694 6.98233 21.0697 6.82656 21.3954 6.76645C21.7211 6.70635 22.0574 6.74463 22.3612 6.87641C22.6651 7.0082 22.9227 7.22751 23.1014 7.50638C23.2799 7.78523 23.3716 8.111 23.3642 8.4421C23.3646 8.65933 23.3212 8.87444 23.2372 9.07474C23.1531 9.27505 23.0297 9.45644 22.8744 9.60834C22.7191 9.76024 22.5349 9.87953 22.3329 9.95918C22.1307 10.0388 21.9147 10.0772 21.6976 10.0721Z" fill="black"/>
<path d="M28.3356 10.0719C28.0042 10.0667 27.6821 9.96282 27.4101 9.77358C27.1381 9.58435 26.9287 9.31832 26.8086 9.0095C26.6886 8.70068 26.6632 8.36307 26.7359 8.0398C26.8086 7.71653 26.9759 7.42227 27.2167 7.19458C27.4574 6.9669 27.7606 6.81613 28.0874 6.76155C28.4141 6.70695 28.7499 6.75102 29.0514 6.88812C29.3531 7.02522 29.6071 7.24912 29.7809 7.53122C29.9547 7.81333 30.0406 8.14082 30.0272 8.4719C30.0231 8.68857 29.9756 8.90223 29.8879 9.10042C29.8002 9.2986 29.6741 9.47735 29.5166 9.62625C29.3591 9.77517 29.1736 9.89127 28.9709 9.96777C28.7681 10.0443 28.5522 10.0797 28.3356 10.0719Z" fill="black"/>
<path d="M34.97 10.072C34.7445 10.0709 34.5219 10.0232 34.3157 9.93206C34.1096 9.84091 33.9244 9.70821 33.7719 9.54222C33.6194 9.37624 33.5027 9.18057 33.4292 8.96746C33.3559 8.75432 33.327 8.52836 33.345 8.30364C33.3702 7.86161 33.5699 7.44769 33.9004 7.15296C34.2307 6.85821 34.6647 6.70676 35.1067 6.73196C35.5487 6.75716 35.9625 6.95692 36.2574 7.28731C36.552 7.61767 36.7035 8.05161 36.6784 8.49364C36.671 8.70986 36.6211 8.92247 36.5309 9.11917C36.4409 9.31587 36.3127 9.49277 36.1539 9.63957C35.9949 9.78637 35.8084 9.90017 35.6052 9.97441C35.402 10.0486 35.1862 10.0818 34.97 10.072Z" fill="black"/>
</g>
</g>
<defs>
<clipPath id="clip0_2004_2651">
<rect width="100" height="100" fill="white"/>
</clipPath>
</defs>
</svg>
