<svg width="100" height="90" viewBox="0 0 100 90" fill="none" xmlns="http://www.w3.org/2000/svg">
<mask id="mask0_2006_3124" style="mask-type:luminance" maskUnits="userSpaceOnUse" x="0" y="0" width="99" height="89">
<path d="M98.514 0H0V88.2228H98.514V0Z" fill="white"/>
</mask>
<g mask="url(#mask0_2006_3124)">
<path d="M0 84.7546V3.70195C0.362947 2.51169 1.13589 1.4885 2.18163 0.814031C3.22737 0.139566 4.47826 -0.142557 5.71228 0.0177367C34.7649 0.0621811 63.817 0.0715492 92.8684 0.0458181C93.1895 0.0458181 93.5105 0.0458181 93.8298 0.0458181C94.4602 0.0365046 95.0856 0.156332 95.6679 0.397922C96.25 0.639511 96.7767 0.997727 97.2151 1.45054C97.6537 1.90336 97.9947 2.44116 98.2175 3.03081C98.4404 3.62046 98.54 4.24948 98.5105 4.87913C98.5105 31.0849 98.5105 57.2909 98.5105 83.4967C98.5207 83.916 98.4795 84.3349 98.3877 84.744C98.1198 85.8346 97.464 86.7902 96.5428 87.4323C95.6217 88.0746 94.4982 88.3593 93.3825 88.2335H5.16667C4.94211 88.2335 4.71754 88.2335 4.49298 88.2335C3.56842 88.2223 2.66893 87.9314 1.91296 87.399C1.15698 86.8667 0.579967 86.1177 0.257888 85.2511C0.187712 85.0633 0.0894737 84.909 0 84.7546ZM3.02807 21.2072V22.0984C3.02807 42.4423 3.02807 62.7856 3.02807 83.1283C3.02807 84.7318 3.47018 85.1528 5.11404 85.1546H93.3316C95.086 85.1546 95.4895 84.7581 95.4895 83.0019C95.4895 62.7563 95.4895 42.5102 95.4895 22.2633V21.2107L3.02807 21.2072ZM3.07544 18.03H95.4351C95.4509 17.7195 95.4737 17.4669 95.4737 17.2142C95.4737 13.1651 95.4737 9.11657 95.4737 5.06862C95.4737 3.61774 94.9474 3.10895 93.4877 3.10895H5.00175C3.55439 3.10895 3.03509 3.62651 3.03333 5.08967C3.02632 9.13764 3.02632 13.1861 3.03333 17.2353C3.02982 17.4774 3.05789 17.737 3.07193 18.023L3.07544 18.03Z" fill="#066AA8"/>
<path d="M3.07812 20.8054H95.443V21.8668C95.443 42.233 95.443 62.5986 95.443 82.9635C95.443 84.7302 95.0413 85.1282 93.2869 85.1282H5.16407C3.52197 85.1282 3.07988 84.7038 3.07988 83.0916C3.07988 62.6237 3.07988 42.1605 3.07988 21.7019L3.07812 20.8054ZM49.2886 25.4879H9.88863C8.11495 25.4879 7.73251 25.867 7.73251 27.6407C7.73251 44.4828 7.73251 61.3284 7.73251 78.1775C7.73251 79.988 8.14653 80.4054 9.93951 80.4054H88.643C90.3606 80.4054 90.8044 79.96 90.8044 78.2214C90.8044 61.3793 90.8044 44.5337 90.8044 27.6845C90.8044 25.853 90.4325 25.4879 88.5921 25.4879H49.2886Z" fill="white"/>
<path d="M3.12374 18.1299C3.1062 17.8335 3.07812 17.5808 3.07812 17.3282C3.07812 13.2556 3.07812 9.1831 3.07812 5.1106C3.07812 3.63867 3.60444 3.11938 5.04479 3.11938C34.5103 3.11938 63.9752 3.11938 93.4396 3.11938C94.901 3.11938 95.4203 3.63165 95.422 5.0913C95.4278 9.16381 95.4278 13.2363 95.422 17.3088C95.422 17.5633 95.3992 17.8177 95.3834 18.1299H3.12374ZM66.8501 12.165H86.8326C87.1838 12.1753 87.5352 12.1648 87.8852 12.1334C88.2368 12.085 88.5597 11.9131 88.7964 11.6486C89.0331 11.384 89.1678 11.044 89.1769 10.6891C89.1861 10.3343 89.0687 9.98779 88.8459 9.71149C88.6231 9.43519 88.3092 9.2471 87.9606 9.18079C87.5485 9.12524 87.1324 9.10353 86.7168 9.11588C73.4594 9.11588 60.202 9.11588 46.9448 9.11588C46.6571 9.11588 46.3676 9.1071 46.0799 9.12816C45.8701 9.1227 45.6615 9.15967 45.4664 9.23684C45.2713 9.31402 45.0938 9.42979 44.9445 9.57724C44.7952 9.7247 44.6773 9.90079 44.5978 10.0949C44.5182 10.2891 44.4787 10.4973 44.4817 10.7071C44.4917 10.9087 44.5417 11.1063 44.6283 11.2886C44.7152 11.4708 44.8373 11.6341 44.9875 11.7689C45.1376 11.9038 45.3131 12.0076 45.5036 12.0744C45.6941 12.1412 45.8959 12.1696 46.0975 12.158C46.3852 12.172 46.6729 12.158 46.9624 12.158L66.8501 12.165ZM12.2044 12.1316C12.7465 12.1316 13.2939 12.1703 13.8325 12.1229C14.0119 12.1157 14.1881 12.073 14.3508 11.9972C14.5135 11.9214 14.6596 11.814 14.7805 11.6813C14.9015 11.5487 14.9948 11.3933 15.0553 11.2243C15.1157 11.0552 15.1419 10.8758 15.1325 10.6966C15.1607 10.5182 15.1515 10.3359 15.1057 10.1612C15.0599 9.98653 14.9783 9.82324 14.8662 9.68165C14.7541 9.54005 14.6139 9.42321 14.4544 9.33851C14.2949 9.25382 14.1196 9.20309 13.9395 9.18954C12.7949 9.10377 11.6455 9.10377 10.5009 9.18954C10.3294 9.2066 10.1629 9.25753 10.0112 9.33935C9.85948 9.42116 9.72546 9.53228 9.61697 9.66623C9.50846 9.80019 9.4276 9.95431 9.37907 10.1197C9.33055 10.2852 9.31532 10.4585 9.33427 10.6299C9.31839 10.8088 9.33809 10.9891 9.3922 11.1603C9.44632 11.3316 9.53379 11.4905 9.64956 11.6278C9.76535 11.7651 9.90716 11.8781 10.0668 11.9604C10.2265 12.0427 10.4009 12.0925 10.5799 12.1071C11.1205 12.1464 11.663 12.1528 12.2044 12.1264V12.1316ZM22.7571 12.1316C23.2992 12.1316 23.8466 12.1685 24.3852 12.1316C24.7606 12.1112 25.1131 11.945 25.3678 11.6684C25.6224 11.3918 25.7589 11.0268 25.7483 10.651C25.6975 9.86675 25.3168 9.23342 24.4869 9.18079C23.3729 9.10495 22.2552 9.10495 21.1413 9.18079C20.9611 9.19368 20.7855 9.24351 20.6254 9.32714C20.4654 9.41077 20.3241 9.52642 20.2106 9.66693C20.0969 9.80744 20.0136 9.96981 19.9655 10.1439C19.9173 10.318 19.9055 10.5001 19.9308 10.679C19.9213 10.8583 19.9473 11.0376 20.0071 11.2069C20.0669 11.3761 20.1596 11.5318 20.2796 11.6653C20.3997 11.7987 20.5448 11.9072 20.7069 11.9845C20.8689 12.0618 21.0445 12.1064 21.2238 12.1159C21.7308 12.1738 22.2466 12.1334 22.7571 12.1334V12.1316ZM33.3606 12.1404C33.8711 12.1404 34.3834 12.1685 34.8922 12.1404C35.0861 12.1412 35.2782 12.1031 35.4571 12.0285C35.6361 11.9538 35.7982 11.8441 35.9341 11.7057C36.0699 11.5674 36.1768 11.4033 36.2482 11.2231C36.3196 11.0428 36.3543 10.8501 36.3501 10.6562C36.3648 10.4692 36.3415 10.2811 36.2815 10.1034C36.2215 9.92563 36.1261 9.76193 36.001 9.62216C35.8757 9.4824 35.7234 9.36951 35.5534 9.29033C35.3834 9.21114 35.199 9.16732 35.0115 9.16149C33.9599 9.09577 32.9052 9.09577 31.8536 9.16149C31.6659 9.16749 31.4813 9.21242 31.312 9.29344C31.1425 9.37445 30.9917 9.48975 30.8692 9.6321C30.7466 9.77444 30.655 9.94068 30.6001 10.1203C30.5452 10.2999 30.5282 10.489 30.5501 10.6755C30.5431 10.8614 30.5731 11.0469 30.6383 11.2211C30.7036 11.3953 30.8029 11.5548 30.9304 11.6903C31.058 11.8258 31.2111 11.9346 31.381 12.0104C31.551 12.0861 31.7343 12.1274 31.9203 12.1316C32.401 12.1738 32.8817 12.1422 33.3606 12.1422V12.1404Z" fill="white"/>
<path d="M49.2879 25.4878H88.516C90.3528 25.4878 90.7247 25.8527 90.7247 27.6843C90.7247 44.5264 90.7247 61.372 90.7247 78.2211C90.7247 79.9597 90.2826 80.4053 88.5686 80.4053H10.016C8.22478 80.4053 7.8125 79.9878 7.8125 78.1773C7.8125 61.3352 7.8125 44.4895 7.8125 27.6404C7.8125 25.8667 8.19496 25.4878 9.96513 25.4878H49.2879ZM10.8774 77.2667H87.6546V28.6299H10.8774V77.2667Z" fill="#066AA8"/>
<path d="M66.3585 12.16H46.1304C45.8374 12.16 45.5445 12.16 45.2532 12.16C45.0499 12.1733 44.8459 12.1462 44.6531 12.0804C44.4603 12.0146 44.2824 11.9113 44.1295 11.7765C43.9767 11.6416 43.8522 11.4779 43.7629 11.2947C43.6736 11.1115 43.6215 10.9125 43.6094 10.7091C43.6094 10.4977 43.6517 10.2884 43.7339 10.0937C43.8162 9.89899 43.9367 9.72276 44.0885 9.5755C44.2401 9.42825 44.4199 9.31297 44.6169 9.23646C44.8139 9.15995 45.0245 9.12379 45.2357 9.13013C45.5269 9.10908 45.8217 9.11785 46.1129 9.11785C59.5983 9.11785 73.0836 9.11785 86.569 9.11785C86.9917 9.10553 87.4148 9.12723 87.8339 9.18276C88.1866 9.24436 88.5053 9.43062 88.7322 9.70758C88.959 9.98455 89.0787 10.3338 89.0695 10.6916C89.0604 11.0495 88.9231 11.3922 88.6824 11.6572C88.4417 11.9222 88.1139 12.0919 87.7585 12.1354C87.4015 12.1668 87.0431 12.1774 86.6848 12.167L66.3585 12.16Z" fill="black"/>
<path d="M12.3618 12.1267C11.8106 12.1556 11.2581 12.1515 10.7074 12.1144C10.5269 12.1016 10.3507 12.0531 10.1891 11.9716C10.0274 11.8902 9.88355 11.7776 9.76574 11.6402C9.64794 11.5029 9.55857 11.3435 9.50278 11.1713C9.44699 10.9991 9.4259 10.8176 9.44075 10.6372C9.42262 10.4645 9.43903 10.29 9.48903 10.1237C9.53904 9.95738 9.62162 9.8027 9.73201 9.66865C9.84239 9.53458 9.97834 9.42384 10.132 9.34286C10.2856 9.26186 10.4537 9.21224 10.6267 9.19691C11.7912 9.11112 12.9605 9.11112 14.125 9.19691C14.3066 9.20845 14.4838 9.25768 14.6454 9.3414C14.807 9.42514 14.9494 9.54152 15.0636 9.68326C15.1777 9.82498 15.2612 9.98893 15.3086 10.1646C15.356 10.3403 15.3664 10.524 15.339 10.7039C15.3472 10.8846 15.3194 11.0652 15.2573 11.2351C15.1951 11.4049 15.0998 11.5607 14.9769 11.6935C14.8539 11.8262 14.7059 11.9331 14.5413 12.0081C14.3766 12.0831 14.1987 12.1246 14.0179 12.1302C13.4706 12.1776 12.9144 12.139 12.3618 12.139V12.1267Z" fill="black"/>
<path d="M22.7529 12.1333C22.2266 12.1333 21.709 12.1737 21.195 12.1246C21.0141 12.1169 20.8366 12.0737 20.6725 11.9973C20.5085 11.9208 20.3611 11.8128 20.2388 11.6793C20.1166 11.5458 20.022 11.3895 19.9603 11.2194C19.8985 11.0492 19.871 10.8685 19.8792 10.6877C19.8548 10.5076 19.8676 10.3244 19.9171 10.1495C19.9667 9.97459 20.0517 9.81177 20.1669 9.67117C20.2822 9.53059 20.4252 9.41524 20.5869 9.33238C20.7487 9.2495 20.9259 9.20087 21.1073 9.1895C22.2404 9.11359 23.3776 9.11359 24.5108 9.1895C24.6917 9.20154 24.8683 9.24913 25.0308 9.32959C25.1931 9.41005 25.3381 9.5218 25.4573 9.65838C25.5764 9.79496 25.6674 9.95368 25.725 10.1255C25.7827 10.2973 25.8059 10.4789 25.7932 10.6597C25.8015 11.0389 25.6608 11.4063 25.4013 11.683C25.142 11.9598 24.7845 12.1239 24.4055 12.1404C23.8564 12.186 23.302 12.1404 22.7494 12.1404L22.7529 12.1333Z" fill="black"/>
<path d="M33.3589 12.1422C32.8712 12.1422 32.3817 12.1755 31.8993 12.1422C31.7116 12.1397 31.5263 12.0999 31.3542 12.0251C31.1821 11.9503 31.0266 11.8419 30.8968 11.7064C30.767 11.5708 30.6654 11.4108 30.598 11.2356C30.5307 11.0605 30.4989 10.8736 30.5045 10.686C30.4835 10.4979 30.5019 10.3073 30.5587 10.1266C30.6154 9.94594 30.7091 9.77907 30.834 9.63663C30.9587 9.49419 31.1117 9.37929 31.2835 9.29929C31.4551 9.21931 31.6416 9.17596 31.8309 9.17201C32.8994 9.1064 33.971 9.1064 35.0396 9.17201C35.2282 9.17728 35.414 9.22052 35.5856 9.29919C35.7572 9.37787 35.911 9.49033 36.0382 9.62987C36.1652 9.76943 36.263 9.93321 36.3252 10.1114C36.3875 10.2895 36.4133 10.4784 36.401 10.6667C36.4037 10.8624 36.367 11.0565 36.2933 11.2378C36.2196 11.419 36.1105 11.5836 35.9721 11.722C35.8338 11.8603 35.6691 11.9696 35.4879 12.0433C35.3066 12.117 35.1124 12.1536 34.9168 12.151C34.3993 12.1843 33.8782 12.151 33.3589 12.151V12.1422Z" fill="black"/>
<path d="M10.9336 77.2667V28.6299H87.6002V77.2667H10.9336ZM54.2915 37.3825C52.3722 37.3825 52.3616 37.3948 51.7195 39.2457C48.6178 48.1171 45.5143 56.9883 42.409 65.8597C41.616 68.1229 41.1932 68.5088 44.3388 68.5018C44.7994 68.5474 45.2604 68.4218 45.6343 68.149C46.008 67.8762 46.2683 67.4753 46.3652 67.0229C49.5336 57.7948 52.7546 48.5843 55.9581 39.3685C56.5546 37.6544 56.395 37.4281 54.5704 37.3825C54.4827 37.3825 54.388 37.3825 54.2915 37.3825ZM29.6002 53.2474C32.8371 51.7001 35.8248 50.2492 38.8336 48.8474C39.1841 48.7239 39.4859 48.4918 39.6952 48.1846C39.9043 47.8776 40.0101 47.5116 39.9967 47.1404C39.9967 46.6843 40.0388 46.2264 40.009 45.7737C39.9301 44.558 39.6423 44.3913 38.5862 44.9246C34.6195 46.9316 30.6669 48.9597 26.6809 50.9334C26.3218 51.0734 26.0171 51.3246 25.8113 51.6504C25.6053 51.9762 25.5094 52.3595 25.5371 52.7439C25.5118 53.263 25.5408 53.7834 25.623 54.2966C25.6957 54.6644 25.9059 54.9906 26.2108 55.2088C30.4423 57.4001 34.6932 59.5492 38.9371 61.7176C39.5915 62.0527 39.8529 61.8001 39.9774 61.1334C40.3739 58.9965 39.9441 58.1246 38.0301 57.2264C35.2967 55.9422 32.5599 54.6439 29.6002 53.2474ZM68.8985 53.1843C65.9353 54.6053 63.1932 56.0615 60.3406 57.2316C59.6739 57.4164 59.106 57.8544 58.7581 58.4525C58.4104 59.0504 58.3102 59.7608 58.4792 60.4316C58.4915 60.5281 58.4792 60.6264 58.4915 60.7246C58.5757 61.8141 58.8424 61.972 59.7932 61.4895C63.8125 59.4615 67.8143 57.3913 71.8599 55.4194C72.2641 55.2216 72.5927 54.8974 72.7957 54.4958C72.9987 54.0943 73.065 53.6374 72.9844 53.1948C72.9844 52.2632 72.8985 51.4632 71.8704 50.9597C68.0283 49.0767 64.212 47.1392 60.4213 45.1474C58.3599 44.058 58.5616 44.6088 58.4599 46.4106C58.3708 46.9813 58.4909 47.5648 58.7981 48.0539C59.1053 48.543 59.579 48.9046 60.1318 49.072C63.016 50.3264 65.8511 51.7457 68.895 53.1843H68.8985Z" fill="white"/>
<path d="M54.401 37.5686C54.4993 37.5686 54.5975 37.5686 54.694 37.5686C56.5554 37.6142 56.7186 37.8405 56.1098 39.5546C52.8396 48.7704 49.5519 57.9756 46.3168 67.209C46.2123 67.6654 45.9442 68.0681 45.5631 68.3405C45.1821 68.613 44.7144 68.7365 44.2484 68.6879C41.0309 68.6879 41.4624 68.309 42.273 66.0458C45.4484 57.1767 48.6163 48.3053 51.7765 39.4316C52.4361 37.5684 52.4414 37.5686 54.401 37.5686Z" fill="black"/>
<path d="M29.507 53.439C32.5281 54.8425 35.3175 56.132 38.1035 57.418C38.5067 57.5188 38.8833 57.7052 39.2082 57.9641C39.5331 58.2229 39.7988 58.5485 39.9872 58.9188C40.1756 59.289 40.2824 59.6955 40.3003 60.1106C40.3182 60.5257 40.247 60.9397 40.0912 61.325C39.9649 61.9917 39.6982 62.2425 39.0386 61.9092C34.707 59.7408 30.3667 57.5934 26.0561 55.4004C25.7465 55.1846 25.5317 54.858 25.4561 54.4881C25.3721 53.9752 25.3426 53.4548 25.3684 52.9355C25.3421 52.5481 25.4417 52.1627 25.6523 51.8364C25.8628 51.5101 26.173 51.2606 26.5368 51.125C30.6053 49.1583 34.6403 47.1232 38.6895 45.1162C39.7667 44.5899 40.0614 44.7495 40.1421 45.9653C40.1719 46.418 40.1298 46.8776 40.1298 47.332C40.1414 47.7064 40.0323 48.0745 39.8182 48.382C39.6044 48.6894 39.2972 48.9197 38.9421 49.039C35.8596 50.4408 32.8105 51.8917 29.507 53.439Z" fill="black"/>
<path d="M68.9882 53.3756C65.8829 51.9353 62.9952 50.516 60.0408 49.2651C59.4817 49.1046 59.0001 48.7458 58.6862 48.256C58.3724 47.7661 58.2478 47.1788 58.3357 46.6037C58.4392 44.8002 58.234 44.251 60.3392 45.3405C64.1989 47.3405 68.0941 49.2779 72.0252 51.1528C72.378 51.4082 72.665 51.7439 72.8626 52.1323C73.0601 52.5205 73.1626 52.9502 73.1613 53.3858C73.1603 53.8214 73.0554 54.2505 72.8557 54.6377C72.6561 55.0247 72.3671 55.3589 72.0127 55.6124C67.8829 57.5861 63.7989 59.6475 59.6971 61.6826C58.7199 62.1651 58.455 62.0072 58.3691 60.9177C58.3691 60.8195 58.3689 60.7212 58.3566 60.6247C58.1871 59.9486 58.2919 59.2328 58.6476 58.6335C59.0036 58.034 59.5819 57.5996 60.2568 57.4247C63.1655 56.2528 65.9636 54.8037 68.9882 53.3756Z" fill="black"/>
</g>
</svg>
