<svg width="63" height="100" viewBox="0 0 63 100" fill="none" xmlns="http://www.w3.org/2000/svg">
<path d="M31.1801 14.2877C22.0214 14.2877 12.8641 14.2977 3.70678 14.2693C2.99603 14.2693 2.85388 14.4725 2.85388 15.1463C2.87378 26.6416 2.87804 38.1362 2.86667 49.6305C2.86667 50.8217 2.3493 51.4074 1.36136 51.359C1.01794 51.3585 0.688067 51.225 0.441038 50.9864C0.193996 50.7479 0.0490027 50.4228 0.0365077 50.0797C0.0166067 49.8437 0.0365077 49.6049 0.0365077 49.3689C0.0365077 34.4887 0.0763238 19.607 0.000984333 4.73384C-0.0118092 4.1129 0.100219 3.49572 0.33046 2.91891C0.560686 2.34209 0.904433 1.81739 1.34127 1.37592C1.7781 0.93445 2.29912 0.585195 2.87349 0.348883C3.44778 0.112572 4.06372 -0.00598949 4.68477 0.000232813C22.4062 0.0684648 40.1309 0.0684648 57.8588 0.000232813C58.4661 -0.00241531 59.0678 0.115441 59.6291 0.346974C60.1905 0.57851 60.7002 0.919135 61.129 1.34909C61.5577 1.77905 61.897 2.28981 62.127 2.85178C62.3569 3.41375 62.4731 4.01578 62.4687 4.62297C62.409 19.6226 62.4403 34.6166 62.4389 49.6205C62.4389 50.8459 61.9684 51.4045 60.9705 51.3832C60.7928 51.3921 60.615 51.3646 60.4484 51.3019C60.2817 51.2393 60.1298 51.1431 60.0019 51.0191C59.8741 50.8953 59.773 50.7465 59.7052 50.5819C59.6372 50.4174 59.604 50.2406 59.6072 50.0626C59.5888 49.7669 59.5987 49.4684 59.5987 49.1713C59.5987 37.8552 59.6058 26.5386 59.62 15.2217C59.62 14.4228 59.4153 14.2693 58.6577 14.2721C49.4947 14.302 40.3374 14.2877 31.1801 14.2877Z" fill="#066AA8"/>
<path d="M31.2887 85.7123C40.4474 85.7123 49.6047 85.7023 58.762 85.7307C59.4727 85.7307 59.6149 85.5275 59.6149 84.8537C59.595 73.3584 59.5907 61.8638 59.6021 50.3695C59.6021 49.1783 60.1194 48.5926 61.1074 48.641C61.4508 48.6415 61.7807 48.775 62.0277 49.0136C62.2748 49.2521 62.4197 49.5772 62.4322 49.9203C62.4521 50.1563 62.4322 50.3951 62.4322 50.6311C62.4322 65.5113 62.3924 80.393 62.4678 95.2662C62.4806 95.8871 62.3685 96.5043 62.1383 97.0811C61.9081 97.6579 61.5643 98.1826 61.1275 98.6241C60.6906 99.0655 60.1696 99.4148 59.5953 99.6511C59.021 99.8874 58.405 100.006 57.784 99.9998C40.0626 99.9315 22.3379 99.9315 4.60995 99.9998C4.00268 100.002 3.40096 99.8846 2.83961 99.653C2.27826 99.4215 1.76851 99.0809 1.33979 98.6509C0.911064 98.221 0.571747 97.7102 0.341747 97.1482C0.111893 96.5863 -0.00438309 95.9842 2.28882e-05 95.377C0.0597267 80.3774 0.0284538 65.3834 0.0298729 50.3795C0.0298729 49.1541 0.500393 48.5955 1.49828 48.6168C1.67597 48.6079 1.8538 48.6354 2.0204 48.6981C2.187 48.7607 2.33896 48.8569 2.4669 48.9809C2.59469 49.1047 2.69576 49.2535 2.76356 49.4181C2.83151 49.5826 2.86477 49.7594 2.8615 49.9374C2.87998 50.2331 2.87003 50.5316 2.87003 50.8287C2.87003 62.1448 2.86292 73.4614 2.84871 84.7783C2.84871 85.5772 3.0534 85.7307 3.81106 85.7279C12.974 85.698 22.1314 85.7123 31.2887 85.7123Z" fill="#066AA8"/>
<path d="M25.5299 58.7298C25.5513 58.6545 25.6067 58.427 25.6806 58.2053C28.4781 49.8099 31.2738 41.415 34.0675 33.0206C34.1228 32.7286 34.2639 32.4599 34.4729 32.2487C34.6818 32.0375 34.9489 31.8935 35.2402 31.8351C36.4428 31.6332 37.2189 32.624 36.8038 33.882C35.9652 36.4649 35.098 39.0378 34.2451 41.615C32.3356 47.3558 30.4247 53.0964 28.5122 58.8364C28.1071 60.0504 27.7134 60.4001 26.8562 60.3503C26.6597 60.3391 26.4676 60.2872 26.2921 60.1978C26.1167 60.1085 25.9618 59.9837 25.8371 59.8313C25.7124 59.6791 25.6208 59.5026 25.5679 59.3128C25.515 59.1232 25.5021 58.9247 25.5299 58.7298Z" fill="black"/>
<path d="M21.3328 39.0021C21.3868 39.619 20.9063 39.9971 20.4529 40.3753C18.3348 42.1436 16.2282 43.9291 14.0917 45.6705C13.6766 46.0088 13.6652 46.1453 14.0917 46.4921C16.2751 48.2718 18.4272 50.0926 20.5936 51.8937C21.0613 52.2817 21.5019 52.687 21.428 53.3665C21.4105 53.6273 21.3224 53.8785 21.1729 54.0929C21.0232 54.3074 20.8181 54.477 20.5792 54.5834C20.3404 54.6899 20.077 54.7291 19.8176 54.697C19.5582 54.6649 19.3124 54.5627 19.1067 54.4013C16.1888 52.0179 13.2942 49.6065 10.4228 47.1672C10.2485 47.035 10.1082 46.8631 10.0138 46.6658C9.91927 46.4685 9.87321 46.2515 9.87947 46.0328C9.88572 45.8141 9.94415 45.6001 10.0498 45.4085C10.1554 45.2169 10.3052 45.0533 10.4867 44.9312C13.2985 42.5601 16.1329 40.2146 18.9589 37.8606C19.169 37.67 19.4321 37.5476 19.7133 37.5095C19.9944 37.4714 20.2806 37.5196 20.5339 37.6474C20.7915 37.7621 21.0068 37.9542 21.15 38.1969C21.2933 38.4399 21.3571 38.7213 21.3328 39.0021Z" fill="black"/>
<path d="M42.5336 54.6867C42.2335 54.692 41.9399 54.6006 41.6959 54.426C41.4519 54.2513 41.2707 54.0029 41.1789 53.7173C41.062 53.4401 41.0424 53.1315 41.1231 52.8416C41.204 52.5518 41.3803 52.2978 41.6237 52.1209C42.8557 51.0984 44.0877 50.0731 45.3197 49.0448C46.3446 48.1919 47.351 47.3092 48.4029 46.4861C48.8479 46.1393 48.7739 45.9786 48.3844 45.6602C46.228 43.8905 44.0958 42.0937 41.9522 40.3068C41.068 39.5691 40.8802 38.7105 41.4616 38.0211C42.043 37.3317 42.9031 37.3416 43.803 38.0893C46.4725 40.3078 49.1387 42.5305 51.8017 44.7576C52.0415 44.8883 52.2414 45.0817 52.38 45.3169C52.5187 45.5523 52.5911 45.8208 52.5894 46.0939C52.5875 46.3671 52.5119 46.6347 52.3702 46.8682C52.2285 47.1016 52.026 47.2924 51.7847 47.42C49.097 49.6632 46.4071 51.903 43.7148 54.1395C43.4052 54.4658 42.9826 54.6616 42.5336 54.6867Z" fill="black"/>
<path d="M31.2305 11.4391C22.0789 11.4391 12.9273 11.4292 3.77568 11.4576C3.0365 11.4576 2.84744 11.2842 2.86877 10.5436C2.92705 8.5862 2.88156 6.62452 2.89009 4.66427C2.89009 3.39629 3.40183 2.88599 4.66696 2.88599C22.3797 2.88599 40.0926 2.88599 57.8055 2.88599C59.0663 2.88599 59.571 3.39913 59.5781 4.66995C59.588 6.66005 59.5468 8.65017 59.5994 10.6403C59.6165 11.3198 59.426 11.4576 58.7749 11.4562C49.5929 11.4325 40.4114 11.4268 31.2305 11.4391Z" fill="white"/>
<path d="M7.39385 8.81322C7.11139 8.81315 6.83534 8.72893 6.60093 8.57131C6.36653 8.41368 6.18443 8.18981 6.07782 7.92824C5.97121 7.66665 5.94491 7.37926 6.00234 7.1027C6.05977 6.82614 6.19836 6.57294 6.40022 6.37544C6.60221 6.17795 6.85837 6.04509 7.13613 5.99382C7.41389 5.94256 7.70075 5.97521 7.95989 6.08761C8.21902 6.20001 8.43879 6.38706 8.59117 6.62491C8.74342 6.86274 8.8216 7.14059 8.81535 7.42298C8.81563 7.60826 8.77867 7.79173 8.70703 7.96257C8.63524 8.1334 8.53005 8.28812 8.39757 8.41768C8.26508 8.54723 8.10801 8.64897 7.93572 8.7169C7.76329 8.78482 7.57907 8.81759 7.39385 8.81322Z" fill="black"/>
<path d="M13.0552 8.81306C12.7726 8.80859 12.4978 8.72 12.2659 8.55861C12.0339 8.39721 11.8553 8.17031 11.7528 7.90692C11.6505 7.64353 11.6289 7.35558 11.6909 7.07986C11.7528 6.80415 11.8956 6.55317 12.101 6.35898C12.3062 6.16479 12.5648 6.0362 12.8436 5.98965C13.1222 5.94308 13.4086 5.98066 13.6658 6.09759C13.923 6.21453 14.1397 6.40549 14.2879 6.64609C14.4362 6.88671 14.5094 7.16602 14.498 7.4484C14.4945 7.6332 14.454 7.81543 14.3792 7.98446C14.3044 8.15349 14.1968 8.30595 14.0625 8.43295C13.9282 8.55996 13.7699 8.65898 13.5971 8.72423C13.4241 8.78949 13.24 8.81969 13.0552 8.81306Z" fill="black"/>
<path d="M18.7107 8.82124C18.5184 8.82027 18.3285 8.77963 18.1526 8.70189C17.9768 8.62415 17.8189 8.51097 17.6888 8.3694C17.5587 8.22783 17.4592 8.06095 17.3965 7.87918C17.334 7.6974 17.3094 7.50467 17.3248 7.31301C17.3462 6.936 17.5165 6.58297 17.7984 6.3316C18.0801 6.0802 18.4503 5.95103 18.8273 5.97252C19.2043 5.99402 19.5572 6.1644 19.8087 6.44618C20.06 6.72795 20.1892 7.09805 20.1678 7.47506C20.1615 7.65948 20.1189 7.84082 20.0419 8.00858C19.9652 8.17635 19.8559 8.32723 19.7204 8.45243C19.5848 8.57764 19.4257 8.6747 19.2524 8.73801C19.0792 8.80131 18.8951 8.82961 18.7107 8.82124Z" fill="black"/>
<rect x="37.5273" y="5.97021" width="8.529" height="2.5587" rx="1.27935" fill="black"/>
<rect x="47.7617" y="5.97021" width="8.529" height="2.5587" rx="1.27935" fill="black"/>
<circle cx="31.5549" cy="92.113" r="5.1174" fill="white"/>
<ellipse cx="31.5575" cy="92.1131" rx="4.2645" ry="4.2645" fill="white" stroke="black" stroke-width="0.2"/>
</svg>
