<svg width="92" height="100" viewBox="0 0 92 100" fill="none" xmlns="http://www.w3.org/2000/svg">
<g clip-path="url(#clip0_2005_2788)">
<mask id="mask0_2005_2788" style="mask-type:luminance" maskUnits="userSpaceOnUse" x="0" y="0" width="92" height="100">
<path d="M91.6667 0H0V100H91.6667V0Z" fill="white"/>
</mask>
<g mask="url(#mask0_2005_2788)">
<path d="M28.4324 0H63.6157C64.799 0.183333 65.8824 0.783333 66.6824 1.7C70.2823 5.36667 73.899 9.03333 77.599 12.6C80.0324 14.95 82.449 17.3167 84.8657 19.6833C85.849 20.6167 86.399 21.9 86.3657 23.2667C86.3657 26.8833 86.399 30.4833 86.3657 34.1C86.249 35.0167 86.7824 35.9 87.649 36.2167C90.2824 37.4833 91.8657 40.2333 91.649 43.15C91.6824 46.3 91.649 49.4667 91.649 52.6167C91.649 60.95 91.649 69.2833 91.649 77.6C91.6824 78.8333 91.3657 80.05 90.7157 81.1167C89.2324 83.5333 87.899 86.0167 86.4324 88.45C86.2824 88.7333 86.0824 89 85.849 89.2333C85.3324 89.9167 84.349 90.05 83.6657 89.5167C83.4657 89.3667 83.3157 89.1833 83.2157 88.9667C81.4824 86.0167 79.7657 83.0667 78.0657 80.1C77.8657 79.6167 77.7657 79.1 77.799 78.5833C77.7824 78.3167 77.8657 77.8667 77.4657 77.9C77.099 77.9167 77.1824 78.35 77.1824 78.6333C77.149 79.8333 77.1157 81.05 77.1824 82.25C77.3824 84.4333 75.7823 86.3667 73.6157 86.5667C73.449 86.5667 73.2657 86.5833 73.0824 86.5667C72.5657 86.6 72.049 86.5833 71.5157 86.5833H49.9157C49.249 86.5833 49.0157 86.8333 49.3324 87.4833C49.7324 88.2 49.549 89.0833 48.9324 89.6C46.9657 91.55 45.0324 93.5167 43.049 95.45C42.499 96.1833 41.449 96.3333 40.7157 95.7833C40.6824 95.75 40.649 95.7333 40.599 95.7C39.8324 95.2 39.099 94.6667 38.399 94.0833C37.799 93.65 36.999 93.5667 36.3157 93.8833C34.2824 94.2667 32.899 96.15 33.1324 98.2C33.2157 99.0167 32.699 99.7667 31.9157 99.9833H22.149C21.3824 99.8667 20.8157 99.2 20.849 98.4167C20.7657 97.6167 20.6324 96.8 20.4824 96C20.4324 95.3667 19.999 94.8333 19.3824 94.65C18.9824 94.55 18.5824 94.3833 18.2157 94.1667C17.149 93.4333 15.7157 93.6167 14.8657 94.5833C14.3657 95.0167 13.8491 95.4 13.2991 95.7333C12.6324 96.2667 11.6657 96.2167 11.0657 95.6167C8.93241 93.6167 6.86574 91.5333 4.84907 89.4C4.18241 88.6833 4.21574 88.0667 4.84907 87.1C5.34907 86.35 5.86574 85.5833 6.44907 84.8833C6.89907 84.4 6.99907 83.6667 6.68241 83.0833C6.44907 82.6833 6.26574 82.2667 6.14907 81.8333C5.88241 80.4167 4.93241 79.9833 3.63241 79.9167C2.91574 79.85 2.21574 79.7333 1.51575 79.55C0.665745 79.4167 0.0490782 78.6833 0.0657448 77.8333C-0.0342552 74.9667 -0.0509218 72.1 0.0657448 69.25C0.132411 68.3333 0.849078 67.6 1.76574 67.5167C2.66574 67.3333 3.56574 67.2333 4.46574 67.0833C5.13241 67.0333 5.69907 66.5833 5.89907 65.9333C5.99907 65.55 6.14907 65.2 6.34907 64.85C7.11574 63.8167 6.96574 62.3667 5.98241 61.5167C5.63241 61.0833 5.29907 60.65 4.99907 60.1833C4.18241 59.05 4.14907 58.4167 5.08241 57.4C6.39907 55.9667 7.78241 54.5667 9.23241 53.2667C9.83241 52.7333 10.4324 52.1667 11.0324 51.6167C11.5657 50.9167 12.5491 50.7667 13.2657 51.2833C13.3157 51.3167 13.3491 51.35 13.3991 51.3833C14.0991 51.8167 14.6991 52.3667 15.3824 52.8C15.9824 53.1833 16.1824 53.0833 16.2491 52.4C16.2824 52.05 16.2491 51.6833 16.2491 51.3333C16.2491 38.8 16.3157 26.2667 16.2157 13.75C16.1824 9.93333 18.299 8.35 21.5324 8.51667C22.4824 8.56667 23.4157 8.51667 24.3657 8.51667C24.8824 8.58333 25.3657 8.21667 25.4324 7.7C25.4324 7.61667 25.4324 7.51667 25.4324 7.43333C25.4324 6.23333 25.4324 5.01667 25.4324 3.81667C25.4324 1.43333 26.1657 0.516667 28.4324 0Z" fill="#066BA9"/>
<path d="M78.151 49.4668V57.8668C77.401 57.4668 76.551 57.3168 75.7177 57.4502H51.4177C51.1177 57.4502 50.8344 57.4502 50.5344 57.4502C49.7677 57.5168 49.2677 57.9002 49.301 58.6835C49.301 59.3002 49.8177 59.8002 50.4344 59.8002C50.4677 59.8002 50.5177 59.8002 50.551 59.8002H76.2344C76.901 59.9002 77.601 59.7335 78.151 59.3502V62.8835C77.651 62.5168 77.0344 62.3502 76.4177 62.4335H51.1344C50.8344 62.4335 50.551 62.4335 50.251 62.4668C49.6344 62.5668 49.201 63.1502 49.301 63.7835C49.3677 64.2335 49.701 64.6002 50.151 64.7002C50.501 64.7668 50.8677 64.8002 51.2177 64.7835C59.551 64.7835 67.8844 64.7835 76.2177 64.7835C76.9177 64.8835 77.6344 64.6835 78.1677 64.2335V74.8335C78.1677 75.1668 78.051 75.3335 77.7177 75.3168C77.5177 75.3168 77.3177 75.3168 77.1344 75.3168C69.501 75.3168 61.851 75.3168 54.201 75.3335C53.3844 75.3335 53.1344 75.1335 53.1677 74.3002C53.2344 72.9502 53.1844 71.6002 53.1844 70.2502C53.1844 69.0335 52.9344 68.7335 51.7677 68.5668C50.6677 68.4002 49.5677 68.1835 48.4677 68.0668C48.001 68.0502 47.6177 67.7168 47.5344 67.2502C47.251 66.3502 46.901 65.4668 46.4677 64.6168C46.051 64.0168 46.1344 63.2002 46.6844 62.7002C47.3677 61.9002 47.9344 61.0168 48.5677 60.1668C49.0177 59.6668 48.9844 58.9002 48.4844 58.4335C48.4844 58.4335 48.451 58.4002 48.4344 58.4002C46.4177 56.3835 44.401 54.3502 42.3844 52.3335C41.951 51.8002 41.1677 51.7168 40.6177 52.1502C40.5844 52.1668 40.5677 52.2002 40.5344 52.2168C39.5844 52.9335 38.6344 53.6168 37.701 54.3335C37.401 54.6502 36.9177 54.7002 36.5677 54.4502C35.601 53.9002 34.5677 53.4668 33.4844 53.1668C33.0177 53.0835 32.701 52.6668 32.701 52.2002C32.5677 51.0335 32.351 49.8668 32.1844 48.7002C32.151 48.0002 31.5677 47.4668 30.8677 47.5002C30.8344 47.5002 30.801 47.5002 30.7677 47.5002C30.0177 47.5002 29.251 47.4668 28.501 47.5002C27.8677 47.5335 27.7344 47.3002 27.7344 46.7002C27.7344 32.3335 27.751 17.9835 27.7344 3.61685C27.7344 2.61685 28.101 2.28351 29.1177 2.28351C39.9344 2.28351 50.7677 2.28351 61.5844 2.26685C62.2844 2.26685 62.3677 2.55018 62.3677 3.13351C62.351 6.06685 62.3344 8.98351 62.3677 11.9002C62.3677 12.6335 62.1677 12.8502 61.4344 12.8502C58.0177 12.8168 54.6177 12.8502 51.201 12.8502C50.8677 12.8502 50.551 12.8502 50.2177 12.8835C49.5844 12.9668 49.151 13.5502 49.251 14.1835C49.3177 14.6668 49.701 15.0668 50.1844 15.1502C50.5344 15.2002 50.901 15.2335 51.2677 15.2168C54.651 15.2168 58.0177 15.2502 61.401 15.2168C62.1844 15.2168 62.4177 15.4502 62.3844 16.2168C62.301 18.1335 62.6177 17.8168 60.7677 17.8335C57.5844 17.8502 54.401 17.8335 51.2177 17.8335H50.4344C49.7844 17.8168 49.251 18.3168 49.2344 18.9668C49.2177 19.6168 49.7177 20.1502 50.3677 20.1668C51.151 20.2335 51.9344 20.2002 52.7344 20.2002C55.6844 20.2002 58.6344 20.2002 61.5844 20.2002C62.1177 20.2002 62.351 20.3168 62.5177 20.8835C62.9177 22.4502 64.3677 23.5002 65.9677 23.4002C71.4177 23.4002 76.851 23.4168 82.301 23.4002C83.151 23.4002 83.4844 23.5502 83.4677 24.5002C83.401 28.1835 83.4344 31.8668 83.4344 35.5335C83.4344 35.9502 83.5177 36.3168 82.9177 36.5168C80.0177 37.3002 78.0344 39.9668 78.101 42.9668C77.3677 42.5668 76.5344 42.4168 75.701 42.5502H51.2844C50.951 42.5335 50.6344 42.5502 50.301 42.5668C49.6844 42.6002 49.201 43.1168 49.2344 43.7335C49.2344 43.7335 49.2344 43.7502 49.2344 43.7668C49.2344 44.3835 49.701 44.8835 50.3177 44.9002C50.3344 44.9002 50.351 44.9002 50.3677 44.9002C50.5677 44.9002 50.7677 44.9002 50.951 44.9002H76.5344C77.101 44.9835 77.6844 44.7835 78.0677 44.3502V47.9002C77.251 47.5168 76.351 47.3835 75.4677 47.5168H50.6677C49.7344 47.5502 49.151 48.0335 49.2177 48.7668C49.301 49.6168 49.8844 49.9002 50.6677 49.8835C57.1344 49.8835 63.5844 49.8835 70.051 49.8835H76.251C76.901 49.9835 77.551 49.8335 78.0844 49.4502L78.151 49.4668Z" fill="white"/>
<path d="M46.7472 88.0499C46.6306 88.1832 46.5472 88.3165 46.4306 88.4332C45.0639 89.7999 43.6806 91.1666 42.3306 92.5666C41.9806 92.9332 41.7639 92.8166 41.4306 92.5666C40.5806 91.8999 39.6806 91.2832 38.8306 90.6166C38.3306 90.1499 37.5806 90.0999 37.0139 90.4832C35.5472 91.3499 33.9639 91.9999 32.3139 92.4332C31.6806 92.5666 31.2139 93.1166 31.1806 93.7499C31.0472 94.7832 30.8806 95.8332 30.7472 96.8666C30.6806 97.3832 30.5139 97.6499 29.8972 97.6332C28.0972 97.5832 26.2972 97.5832 24.4806 97.6332C23.8806 97.6332 23.6972 97.4499 23.6472 96.8666C23.5306 95.7832 23.3139 94.7332 23.1639 93.6499C23.1139 93.0332 22.6806 92.5332 22.0806 92.4166C20.3972 91.9499 18.7972 91.2832 17.2806 90.4166C16.7639 90.0832 16.0973 90.1332 15.6473 90.5499C14.764 91.2165 13.8306 91.8499 12.964 92.5499C12.564 92.8666 12.3306 92.8332 11.9973 92.4666C10.714 91.1499 9.41398 89.8499 8.09731 88.5666C7.71398 88.1999 7.66398 87.9332 7.99731 87.5166C8.64731 86.6999 9.23064 85.8166 9.88064 84.9999C10.364 84.4832 10.4306 83.6832 10.0306 83.0999C9.18064 81.6499 8.54731 80.0999 8.11398 78.4832C7.98064 77.8166 7.39731 77.3332 6.71398 77.2999C5.71398 77.1832 4.69731 76.9999 3.69731 76.8666C3.13064 76.7999 2.84731 76.5999 2.86398 75.9499C2.91398 74.1832 2.89731 72.3999 2.86398 70.6332C2.86398 70.0499 3.03064 69.8332 3.61398 69.7666C4.68064 69.6499 5.74731 69.4166 6.81398 69.2832C7.43064 69.2499 7.93064 68.7999 8.06398 68.1999C8.51398 66.5166 9.18064 64.8999 10.064 63.3999C10.3973 62.8832 10.3473 62.2166 9.94731 61.7499C9.28064 60.8499 8.63064 59.9499 7.94731 59.0666C7.68064 58.8332 7.66398 58.4499 7.88064 58.1832C7.91398 58.1332 7.96398 58.0999 8.01398 58.0666C9.34731 56.7666 10.6806 55.4332 11.9806 54.0999C12.1473 53.8332 12.514 53.7666 12.7806 53.9332C12.8306 53.9666 12.864 53.9999 12.8973 54.0332C13.7806 54.7166 14.6973 55.3499 15.5806 56.0332C16.064 56.4666 16.7806 56.5166 17.3139 56.1499C18.7806 55.2832 20.3639 54.6332 22.0139 54.1999C22.6472 54.0666 23.1139 53.5332 23.1472 52.8832C23.2806 51.7832 23.5139 50.6832 23.6472 49.5666C23.6972 49.0999 23.8972 48.9666 24.3306 48.9666C26.1972 48.9666 28.0639 48.9999 29.9472 48.9666C30.5472 48.9666 30.6639 49.2832 30.7139 49.7332C30.8639 50.7332 31.0306 51.7499 31.1472 52.7499C31.1472 53.4666 31.6639 54.0832 32.3639 54.2166C33.9806 54.6332 35.5306 55.2832 36.9806 56.1332C37.5472 56.5166 38.2972 56.4666 38.7972 55.9999C39.6806 55.3166 40.5972 54.6832 41.4806 53.9999C41.6639 53.7832 41.9806 53.7499 42.1972 53.9332C42.2306 53.9666 42.2639 53.9999 42.2972 54.0499C43.6472 55.4332 45.0139 56.7999 46.3972 58.1665C46.7139 58.4665 46.6639 58.6832 46.4306 58.9832C45.7972 59.8166 45.2139 60.6999 44.5472 61.5166C43.9806 62.1166 43.9306 63.0332 44.4139 63.6832C45.1972 65.0166 45.7972 66.4499 46.1639 67.9499C46.2806 68.7166 46.9306 69.2999 47.7139 69.3332C48.7306 69.4332 49.7139 69.6666 50.7306 69.7666C51.2472 69.8332 51.4639 69.9832 51.4472 70.5332C51.4139 72.3666 51.4139 74.2166 51.4472 76.0499C51.4472 76.6166 51.2306 76.7832 50.7306 76.8499C49.6639 76.9832 48.5972 77.1666 47.5139 77.3166C46.8972 77.3499 46.3972 77.7832 46.2639 78.3832C45.8139 80.0666 45.1472 81.6832 44.2806 83.1832C43.9306 83.7166 43.9806 84.4332 44.4139 84.9166C45.0639 85.7832 45.6972 86.6499 46.3472 87.5332C46.4639 87.6832 46.5639 87.8332 46.6972 88.0332L46.7472 88.0499Z" fill="white"/>
<path d="M19.082 32.7664C19.082 26.2998 19.082 19.8164 19.082 13.3498C19.082 11.7831 19.3487 11.4998 20.8987 11.4998C22.282 11.4998 23.6487 11.5164 25.032 11.4998C25.632 11.4998 25.9154 11.5998 25.8987 12.2998C25.882 23.7998 25.882 35.2998 25.8987 46.7998C25.8987 47.3831 25.732 47.6331 25.132 47.5998C24.4154 47.5498 23.682 47.5998 22.9654 47.5998C22.2154 47.4831 21.5154 47.9998 21.3987 48.7498C21.3987 48.8164 21.3987 48.8998 21.3987 48.9664C21.2487 50.1331 21.0487 51.2998 20.8654 52.4664C20.582 53.0664 19.982 53.4664 19.3154 53.4831C19.1154 53.4164 19.0987 53.2664 19.0987 53.0998V52.3164C19.0987 45.8164 19.0987 39.2998 19.0987 32.7998L19.082 32.7664Z" fill="white"/>
<path d="M60.1317 83.7164C55.8651 83.7164 51.6151 83.7164 47.3484 83.7164C46.5317 83.7164 46.3484 83.5497 46.7984 82.8164C47.0984 82.3497 47.3151 81.8331 47.4317 81.2831C47.6317 79.8997 48.4984 79.5164 49.7317 79.4664C50.5484 79.4331 51.3484 79.2331 52.1651 79.1164C52.9817 78.9997 53.4484 78.5664 53.3651 77.7331C53.2984 76.9997 53.6151 76.8831 54.2651 76.8831C60.6817 76.8997 67.1151 76.8997 73.5317 76.8831C74.2317 76.8831 74.5317 77.0164 74.4817 77.7831C74.4151 79.2164 74.4817 80.6664 74.4651 82.1164C74.4651 83.3997 74.1817 83.6831 72.9151 83.6831C68.6651 83.6831 64.3984 83.6831 60.1317 83.6831V83.7164Z" fill="white"/>
<path d="M64.9664 4.20002L81.4664 21.2667C81.4664 21.2667 81.2664 21.1 81.0331 21.1C76.1497 21.1 71.2831 21.1 66.3997 21.1C65.0497 21.1 64.7831 20.8333 64.7831 19.5V5.03335C64.7164 4.73335 64.7831 4.43335 64.9664 4.18335V4.20002Z" fill="white"/>
<path d="M80.5479 61.8666C80.5479 56.7999 80.5646 51.7499 80.5312 46.6999C80.5312 45.9166 80.6812 45.6166 81.5312 45.6499C83.4646 45.7166 83.4646 45.6499 83.4646 47.6333C83.4646 57.4166 83.4646 67.1999 83.4813 76.9999C83.4813 77.8499 83.2979 78.1333 82.4146 78.0999C80.5479 78.0333 80.5479 78.0999 80.5479 76.1666C80.5479 71.3999 80.5479 66.6499 80.5479 61.8833V61.8666Z" fill="white"/>
<path d="M88.7497 61.9003C88.7497 66.9169 88.7331 71.9503 88.7664 76.9669C88.7664 77.7836 88.6331 78.1336 87.7164 78.0836C85.8497 78.0003 85.8331 78.0669 85.8331 76.1503C85.8331 66.3336 85.8331 56.5169 85.8164 46.7003C85.8164 45.8169 86.0497 45.6003 86.8997 45.6336C88.7497 45.7003 88.7497 45.6336 88.7497 47.5169V61.9003Z" fill="white"/>
<path d="M84.5829 43.5501C83.4329 43.5501 82.2829 43.5501 81.1495 43.5501C80.7662 43.5501 80.5829 43.4667 80.5329 43.0167C80.2162 40.7501 81.7828 38.6667 84.0495 38.3334C86.3162 38.0001 88.3995 39.5834 88.7329 41.8501C88.7829 42.2001 88.7829 42.5501 88.7329 42.9001C88.6995 43.4334 88.4995 43.5667 88.0162 43.5501C86.8662 43.5334 85.7329 43.5501 84.5829 43.5501Z" fill="white"/>
<path d="M87.8821 80.1169L84.6321 85.7669C83.5821 83.9503 82.6321 82.2836 81.6654 80.6169C81.4154 80.1836 81.6154 80.1169 81.9988 80.1169C83.8988 80.1169 85.7821 80.1169 87.8821 80.1169Z" fill="white"/>
<path d="M63.8341 27.5166H76.7008C77.4008 27.5166 78.0508 27.6166 78.2174 28.4333C78.3841 29.0166 78.0674 29.6333 77.4841 29.7999C77.4341 29.7999 77.3841 29.8333 77.3341 29.8333C77.0175 29.8833 76.6841 29.8999 76.3508 29.8833H50.6008C49.8508 29.8499 49.3008 29.4999 49.3008 28.7166C49.3008 27.8666 49.8508 27.5333 50.6675 27.5333C55.0508 27.5333 59.4508 27.5333 63.8341 27.5333V27.5166Z" fill="black"/>
<path d="M61.8174 12.9165C62.2508 12.8665 62.1841 12.5165 62.4008 12.2998V15.7165C62.4008 15.7165 62.1841 15.3165 61.6841 15.2665L51.1841 15.2998H50.6008C49.8508 15.2665 49.3008 14.8998 49.3008 14.1165C49.3008 13.2665 49.8508 12.8998 50.6675 12.8998C55.0508 12.8998 59.3175 12.9331 61.8341 12.8998L61.8174 12.9165Z" fill="black"/>
<path d="M61.8174 17.8669C62.2508 17.8169 62.1841 17.4669 62.4008 17.2502V20.6669C62.4008 20.6669 62.1841 20.2669 61.6841 20.2169L51.1841 20.2502H50.6008C49.8508 20.2169 49.3008 19.8502 49.3008 19.0669C49.3008 18.2169 49.8508 17.8502 50.6675 17.8502C55.0508 17.8502 59.3175 17.8836 61.8341 17.8502L61.8174 17.8669Z" fill="black"/>
<path d="M63.833 34.7832H51.1497C50.8497 34.7999 50.5664 34.7832 50.2664 34.7499C49.6831 34.6832 49.2497 34.1666 49.2831 33.5832C49.2831 32.9999 49.6997 32.4999 50.2831 32.4332C50.4497 32.4166 50.6164 32.3999 50.7664 32.4166H76.7164C76.9164 32.4166 77.1164 32.4166 77.2997 32.4499C77.9331 32.5666 78.3497 33.1666 78.233 33.7999C78.1497 34.2832 77.7664 34.6666 77.2664 34.7499C76.9664 34.7999 76.683 34.7999 76.383 34.7832H63.8164H63.833Z" fill="black"/>
<path d="M63.833 45.0003H51.1497C50.8497 45.0169 50.5664 45.0003 50.2664 44.9669C49.6831 44.9003 49.2497 44.3836 49.2831 43.8003C49.2831 43.2169 49.6997 42.7169 50.2831 42.6503C50.4497 42.6336 50.6164 42.6169 50.7664 42.6336H76.7164C76.9164 42.6336 77.1164 42.6336 77.2997 42.6669C77.9331 42.7836 78.3497 43.3836 78.233 44.0169C78.1497 44.5003 77.7664 44.8836 77.2664 44.9669C76.9664 45.0169 76.683 45.0169 76.383 45.0003H63.8164H63.833Z" fill="black"/>
<path d="M63.833 49.8999H51.1497C50.8497 49.9166 50.5664 49.8999 50.2664 49.8666C49.6831 49.7999 49.2497 49.2833 49.2831 48.6999C49.2831 48.1166 49.6997 47.6166 50.2831 47.5499C50.4497 47.5333 50.6164 47.5166 50.7664 47.5333H76.7164C76.9164 47.5333 77.1164 47.5333 77.2997 47.5666C77.9331 47.6833 78.3497 48.2833 78.233 48.9166C78.1497 49.3999 77.7664 49.7833 77.2664 49.8666C76.9664 49.9166 76.683 49.9166 76.383 49.8999H63.8164H63.833Z" fill="black"/>
<path d="M63.833 64.8833H51.1497C50.8497 64.9 50.5664 64.8833 50.2664 64.85C49.6831 64.7833 49.2497 64.2667 49.2831 63.6833C49.2831 63.1 49.6997 62.6 50.2831 62.5333C50.4497 62.5167 50.6164 62.5 50.7664 62.5167H76.7164C76.9164 62.5167 77.1164 62.5167 77.2997 62.55C77.9331 62.6667 78.3497 63.2667 78.233 63.9C78.1497 64.3833 77.7664 64.7667 77.2664 64.85C76.9664 64.9 76.683 64.9 76.383 64.8833H63.8164H63.833Z" fill="black"/>
<path d="M63.833 59.8333H51.1497C50.8497 59.85 50.5664 59.8333 50.2664 59.8C49.6831 59.7333 49.2497 59.2166 49.2831 58.6333C49.2831 58.05 49.6997 57.55 50.2831 57.4833C50.4497 57.4666 50.6164 57.45 50.7664 57.4666H76.7164C76.9164 57.4666 77.1164 57.4666 77.2997 57.5C77.9331 57.6166 78.3497 58.2166 78.233 58.85C78.1497 59.3333 77.7664 59.7166 77.2664 59.8C76.9664 59.85 76.683 59.85 76.383 59.8333H63.8164H63.833Z" fill="black"/>
<path d="M34.6316 29.2832C34.915 29.2665 35.2316 29.5499 35.5316 29.8665C36.415 30.7499 37.3316 31.5999 38.165 32.5165C38.6316 33.0165 38.8983 33.0332 39.3816 32.5165C41.1983 30.6332 43.0816 28.7832 44.9316 26.9332C45.2483 26.4832 45.7816 26.2832 46.315 26.3999C47.2316 26.6832 47.4316 27.7332 46.665 28.5165C45.4983 29.7165 44.2983 30.8832 43.1316 32.0665C42.0483 33.1499 40.965 34.2499 39.865 35.3332C39.0483 36.1499 38.515 36.1499 37.6983 35.3332C36.365 34.0165 35.0483 32.6999 33.7316 31.3665C33.3316 31.0499 33.1983 30.4999 33.3816 30.0332C33.5816 29.5332 34.0816 29.2165 34.6316 29.2665V29.2832Z" fill="black"/>
<path d="M38.7485 50.6331C38.3818 50.6165 38.0485 50.4498 37.8151 50.1664L33.7818 46.1331C33.2151 45.5664 33.0485 44.9331 33.6651 44.3331C34.2818 43.7331 34.9151 43.9331 35.4818 44.4998C36.4151 45.4331 37.3651 46.3331 38.2485 47.2998C38.6651 47.7498 38.9151 47.7331 39.3318 47.2998C41.1818 45.3998 43.0818 43.5331 44.9485 41.6331C45.3151 41.0998 46.0485 40.9331 46.6151 41.2664C47.1651 41.5831 47.3485 42.2831 47.0318 42.8331C46.9651 42.9331 46.8985 43.0331 46.7985 43.1164C44.4318 45.5331 42.0318 47.9164 39.6485 50.2998C39.4151 50.5498 39.0985 50.6831 38.7651 50.6665L38.7485 50.6331Z" fill="black"/>
<path d="M38.8161 21.3668C38.4494 21.3668 38.0828 21.2168 37.8494 20.9334C36.4828 19.5668 35.1161 18.2001 33.7494 16.8168C33.2494 16.4667 33.1328 15.7667 33.4828 15.2667C33.5328 15.2 33.5828 15.1334 33.6494 15.0834C34.0661 14.6167 34.7661 14.5667 35.2328 14.9834C35.2828 15.0334 35.3328 15.0834 35.3828 15.1334C36.2994 16.0167 37.2328 16.9001 38.0828 17.8501C38.5828 18.4001 38.8994 18.4668 39.4494 17.8834C41.0994 16.15 42.8161 14.4834 44.4994 12.7834C44.6661 12.6167 44.8328 12.4667 44.9828 12.3C45.5494 11.7334 46.1994 11.55 46.7994 12.1334C47.3994 12.7167 47.2494 13.3834 46.6661 13.95L43.8828 16.7334C42.5328 18.0834 41.1994 19.4168 39.8494 20.7668C39.5994 21.1001 39.1994 21.3168 38.7828 21.3501L38.8161 21.3668Z" fill="black"/>
<path d="M40.4139 73.3501C40.3806 80.7168 34.3806 86.6668 27.0139 86.6334C19.6472 86.6001 13.6973 80.6001 13.7306 73.2334C13.7639 65.8668 19.7639 59.9168 27.1306 59.9501C27.2306 59.9501 27.3306 59.9501 27.4306 59.9501C34.6806 60.1501 40.4472 66.1001 40.4139 73.3501Z" fill="black"/>
<path d="M27.083 84.4833C21.0163 84.4833 16.0831 79.5999 16.0664 73.5333C16.0664 67.4666 20.9497 62.5333 27.0163 62.5166C33.083 62.5166 38.0163 67.3999 38.033 73.4666C38.033 73.4833 38.033 73.4999 38.033 73.5166C38.033 79.5666 33.133 84.4666 27.083 84.4833Z" fill="white"/>
</g>
</g>
<defs>
<clipPath id="clip0_2005_2788">
<rect width="91.6667" height="100" fill="white"/>
</clipPath>
</defs>
</svg>
