<svg width="100" height="100" viewBox="0 0 100 100" fill="none" xmlns="http://www.w3.org/2000/svg">
<g clip-path="url(#clip0_2006_2990)">
<mask id="mask0_2006_2990" style="mask-type:luminance" maskUnits="userSpaceOnUse" x="0" y="0" width="100" height="100">
<path d="M100 0H0V100H100V0Z" fill="white"/>
</mask>
<g mask="url(#mask0_2006_2990)">
<path d="M58.633 45.6917C59.213 48.1418 59.7364 50.3434 60.2547 52.5451C60.267 52.6614 60.3035 52.7739 60.3615 52.8754C60.4197 52.9771 60.4982 53.0654 60.5922 53.1351C60.686 53.2047 60.7935 53.2542 60.9075 53.2804C61.0215 53.3064 61.1397 53.3086 61.2547 53.2867C62.0564 53.2384 62.8647 53.2584 63.668 53.2867C64.2024 53.2817 64.7322 53.3832 65.2269 53.5854C65.7215 53.7874 66.1709 54.0861 66.5489 54.4639C66.9267 54.8416 67.2255 55.2909 67.4278 55.7854C67.6302 56.2799 67.732 56.8097 67.7272 57.3441C67.7225 57.8784 67.6114 58.4064 67.4002 58.8972C67.189 59.3881 66.8822 59.8321 66.4977 60.2029C66.113 60.5739 65.6584 60.8644 65.1604 61.0578C64.6622 61.2509 64.1305 61.3431 63.5964 61.3284C55.2464 61.3429 46.8957 61.3429 38.5447 61.3284C37.7397 61.3284 36.9347 61.3467 36.1297 61.3184C35.0995 61.2761 34.125 60.8391 33.4082 60.0981C32.6912 59.3571 32.2867 58.3687 32.2784 57.3377C32.27 56.3067 32.6584 55.3119 33.3632 54.5594C34.068 53.8069 35.0352 53.3542 36.0647 53.2951C36.968 53.2484 37.8797 53.3284 38.778 53.2467C38.9565 53.2232 39.1272 53.1577 39.2757 53.0557C39.4242 52.9539 39.5467 52.8182 39.633 52.6601C40.1897 50.4317 40.668 48.1834 41.2264 45.6917H39.7514C34.989 45.6917 30.2269 45.6917 25.4647 45.6917C21.4397 45.6917 19.1964 43.3901 19.1947 39.2834C19.1947 28.2834 19.1947 17.2834 19.1947 6.28346C19.1075 5.44528 19.207 4.59821 19.4857 3.80293C19.7644 3.00765 20.2155 2.28383 20.8067 1.68335C21.398 1.08287 22.1147 0.620595 22.9055 0.329595C23.6965 0.0385954 24.5419 -0.0739264 25.3814 0.000132428H75.6863C76.381 -0.0797573 77.0849 -0.000437453 77.7444 0.232066C78.4037 0.46457 79.0017 0.844161 79.4927 1.34207C79.9837 1.83996 80.3548 2.44313 80.5782 3.1058C80.8013 3.76848 80.8708 4.4733 80.7813 5.16681C80.7813 16.5757 80.7813 27.9846 80.7813 39.3934C80.8692 40.2317 80.7707 41.0791 80.4928 41.8747C80.215 42.6704 79.7647 43.3949 79.1742 43.9964C78.5837 44.5977 77.8675 45.0611 77.0769 45.3532C76.2864 45.6456 75.441 45.7594 74.6013 45.6867C69.8057 45.6946 65.0097 45.6946 60.213 45.6867L58.633 45.6917ZM77.9663 34.2951V33.2167C77.9663 23.8834 77.9663 14.5535 77.9663 5.2268C77.9663 3.39346 77.4414 2.86013 75.633 2.86013H25.443C23.0497 2.86013 22.0197 3.90681 22.0197 6.33848C22.0197 15.294 22.0197 24.2496 22.0197 33.2051V34.2967L77.9663 34.2951ZM77.953 37.2501H22.018C22.018 37.9267 22.018 38.5334 22.018 39.1417C22.018 41.8584 22.9697 42.8284 25.6447 42.8284C41.8724 42.8284 58.1002 42.8284 74.328 42.8284C74.73 42.8367 75.132 42.8172 75.5313 42.7701C76.1765 42.6972 76.7745 42.3962 77.2172 41.9212C77.66 41.4464 77.9187 40.8289 77.9463 40.1801C78.0047 39.2334 77.958 38.2801 77.958 37.2517L77.953 37.2501ZM42.6514 53.1984H57.3014L55.9097 45.7701H43.9397L42.6514 53.1984ZM49.8847 58.4684C54.409 58.4684 58.9335 58.4684 63.458 58.4684C64.283 58.4684 64.8764 58.1501 64.8563 57.2551C64.8363 56.4084 64.2347 56.1234 63.4664 56.1367C63.2997 56.1367 63.133 56.1367 62.9664 56.1367C54.3197 56.1367 45.6724 56.1367 37.0247 56.1367C36.6905 56.1186 36.3554 56.1347 36.0247 56.1851C35.8229 56.2162 35.6337 56.3032 35.4789 56.4362C35.3239 56.5692 35.2092 56.7431 35.148 56.9379C35.0869 57.1327 35.0814 57.3407 35.1324 57.5386C35.1832 57.7362 35.2885 57.9157 35.4364 58.0567C35.8077 58.3246 36.2569 58.4627 36.7147 58.4501C41.108 58.4801 45.498 58.4684 49.8964 58.4684H49.8847Z" fill="#066AA8"/>
<path d="M24.0576 61.7515C26.8476 61.7515 29.6376 61.7515 32.4276 61.7515C33.8876 61.7515 34.2426 62.1049 34.3326 63.6049C34.3931 67.6019 35.9815 71.424 38.7715 74.2867C41.5615 77.1494 45.3416 78.8354 49.3356 78.9985C53.3298 79.1617 57.2348 77.7897 60.249 75.164C63.2633 72.5385 65.158 68.8585 65.5443 64.8799C65.8093 61.7265 65.631 61.7249 68.9226 61.7432C73.9643 61.7699 79.006 61.7432 84.0476 61.7432C86.0843 61.7432 86.336 62.0032 86.336 64.1115C86.336 64.8615 86.336 65.6115 86.336 66.3599C86.3935 66.8772 86.3403 67.4007 86.1798 67.8959C86.0195 68.3909 85.7555 68.846 85.4055 69.2312C85.0555 69.6164 84.6275 69.9225 84.15 70.1295C83.6725 70.3365 83.1563 70.4395 82.636 70.4315C81.4108 70.4547 80.2176 70.8274 79.1971 71.5055C78.1766 72.1839 77.371 73.1395 76.8753 74.2602C76.3796 75.3809 76.2143 76.6199 76.399 77.8314C76.5836 79.0427 77.1106 80.1762 77.9176 81.0982C78.3643 81.4749 78.7193 81.9479 78.9565 82.4817C79.1935 83.0155 79.306 83.5964 79.2858 84.1802C79.2656 84.7639 79.113 85.3354 78.8396 85.8517C78.5663 86.3679 78.1791 86.8152 77.7076 87.1599C76.3065 88.581 74.9038 90.001 73.4993 91.4199C73.1656 91.8382 72.745 92.1787 72.2663 92.418C71.7876 92.6572 71.2628 92.7894 70.728 92.8052C70.1931 92.821 69.6613 92.7202 69.1693 92.5099C68.6775 92.2994 68.2371 91.9844 67.8793 91.5865C67.0258 90.7089 65.922 90.1164 64.7188 89.8899C63.5156 89.6635 62.272 89.8142 61.1576 90.3215C59.9881 90.7595 58.9818 91.547 58.2753 92.577C57.569 93.607 57.1968 94.8294 57.2093 96.0782C57.2316 96.6149 57.1385 97.1499 56.9366 97.6475C56.7346 98.145 56.4283 98.5935 56.0383 98.9627C55.6485 99.332 55.184 99.6134 54.6761 99.788C54.1683 99.9625 53.6288 100.026 53.0943 99.9749C51.0776 99.9805 49.061 99.9805 47.0443 99.9749C46.4763 100.045 45.8998 99.986 45.3573 99.8037C44.8148 99.6214 44.32 99.32 43.9093 98.9215C43.4985 98.523 43.1821 98.0375 42.9835 97.5009C42.7848 96.9642 42.7088 96.3899 42.761 95.8199C42.7145 94.8389 42.439 93.8822 41.9566 93.0267C41.4741 92.1712 40.7983 91.4405 39.9828 90.893C39.1675 90.3455 38.2353 89.9965 37.2608 89.8739C36.2863 89.7512 35.2966 89.8582 34.371 90.1865C33.5623 90.5165 32.817 90.984 32.1676 91.5682C31.8015 91.9689 31.3528 92.2855 30.8525 92.496C30.3523 92.7067 29.8123 92.8065 29.2698 92.7884C28.7271 92.7704 28.195 92.635 27.7098 92.3915C27.2246 92.148 26.7981 91.8024 26.4593 91.3782C25.005 89.9149 23.555 88.446 22.1093 86.9715C21.6851 86.6252 21.3408 86.1912 21.1 85.6992C20.8591 85.2074 20.7275 84.6692 20.714 84.1217C20.7005 83.574 20.8056 83.0302 21.022 82.527C21.2383 82.0239 21.561 81.5734 21.9676 81.2065C22.7021 80.3975 23.2188 79.4152 23.4693 78.3517C23.7198 77.288 23.6956 76.1784 23.3995 75.1267C23.1031 74.0749 22.5443 73.1159 21.7755 72.3394C21.0066 71.563 20.0531 70.9949 19.0043 70.6882C18.3133 70.5499 17.6141 70.4569 16.911 70.4099C16.0279 70.3117 15.2111 69.894 14.6144 69.2355C14.0177 68.5772 13.6822 67.7234 13.671 66.8349C13.6377 65.6782 13.6443 64.5182 13.671 63.3615C13.691 62.2432 14.171 61.7649 15.2927 61.7599C18.2093 61.7432 21.1326 61.7515 24.0576 61.7515ZM68.4893 64.6449C68.1135 69.2745 66.0333 73.6 62.6513 76.7839C59.2695 79.9679 54.8265 81.7837 50.1826 81.8799C45.9696 81.9444 41.8676 80.5289 38.591 77.8799C36.5735 76.2834 34.9066 74.2882 33.6945 72.0187C32.4825 69.7494 31.751 67.2545 31.546 64.6899H16.481C16.481 65.2699 16.511 65.7799 16.481 66.2832C16.4143 67.1915 16.8143 67.6015 17.7026 67.6282C18.2401 67.6399 18.7753 67.7024 19.301 67.8149C20.8673 68.1762 22.3131 68.9374 23.4975 70.0244C24.6816 71.1114 25.5638 72.4869 26.0576 74.0165C26.5515 75.5462 26.6401 77.1779 26.315 78.752C25.9898 80.3264 25.2621 81.7894 24.2026 82.9982C23.3276 84.0282 23.3276 84.1649 24.2426 85.1049C25.6426 86.5282 27.066 87.9282 28.4393 89.3765C28.5386 89.5327 28.6748 89.6624 28.8358 89.7539C28.9966 89.8454 29.1776 89.8962 29.3626 89.9017C29.5478 89.9074 29.7313 89.8675 29.8975 89.7859C30.0636 89.7042 30.2073 89.5832 30.316 89.4332C31.5661 88.1835 33.1721 87.3505 34.9138 87.0487C36.6556 86.7467 38.4481 86.9905 40.046 87.7465C41.6698 88.3842 43.0651 89.4939 44.0521 90.9324C45.039 92.3709 45.5721 94.0722 45.5826 95.8165C45.6343 96.7415 45.981 97.1732 46.9393 97.1499C48.7526 97.1099 50.5693 97.1382 52.3843 97.1382C54.281 97.1382 54.281 97.1382 54.4443 95.1765C54.4548 95.009 54.4743 94.842 54.5026 94.6765C54.7476 93.0407 55.4426 91.5052 56.5101 90.2415C57.5778 88.978 58.9756 88.0364 60.5476 87.5215C62.0676 86.9379 63.7216 86.7959 65.3188 87.112C66.9161 87.4282 68.3913 88.1895 69.5743 89.3082C70.6043 90.1915 70.741 90.1999 71.721 89.2082C73.0066 87.9105 74.2905 86.6105 75.5726 85.3082C76.7393 84.1315 76.7393 84.1315 75.651 82.8282C74.6845 81.6645 74.0163 80.2827 73.7043 78.8025C73.3923 77.3224 73.4458 75.7884 73.8605 74.3335C74.275 72.8787 75.0378 71.5469 76.0831 70.4534C77.1285 69.3599 78.4246 68.5379 79.8593 68.0582C80.6826 67.7982 81.591 67.8249 82.4226 67.5882C82.6445 67.5314 82.8516 67.4275 83.0298 67.2839C83.2081 67.14 83.3535 66.9597 83.456 66.7549C83.556 66.057 83.5721 65.3499 83.5043 64.6482L68.4893 64.6449Z" fill="#066AA8"/>
<path d="M11.702 30.2518C9.31798 32.0821 7.40552 34.4551 6.12362 37.1735C1.26361 47.6518 1.56861 57.8951 7.89027 67.7468C9.57172 70.3515 11.9848 72.4016 14.827 73.6401C15.887 74.1168 16.2536 74.8801 15.8503 75.6868C15.4819 76.4251 14.6469 76.6301 13.6469 76.1868C9.93263 74.4896 6.82227 71.703 4.7286 68.1968C1.11011 62.3385 -0.519102 55.468 0.0836087 48.6085C0.294152 43.3586 1.9054 38.2608 4.75027 33.8435C6.15193 31.7451 7.9386 29.8935 9.55693 27.9251L6.7236 27.3418C6.45693 27.2868 6.18693 27.2435 5.9286 27.1635C5.75377 27.1286 5.58795 27.0581 5.4415 26.9565C5.29505 26.8548 5.17108 26.7241 5.07728 26.5725C4.9835 26.4208 4.9219 26.2516 4.89632 26.0751C4.87075 25.8986 4.88173 25.7188 4.9286 25.5468C4.94645 25.3751 5.0003 25.2093 5.08667 25.0598C5.17303 24.9103 5.28997 24.7808 5.4298 24.6796C5.56965 24.5786 5.72927 24.5081 5.89822 24.4728C6.06717 24.4376 6.24165 24.4385 6.41027 24.4751C9.01917 24.9375 11.6197 25.4463 14.2119 26.0018C14.3808 26.0351 14.5409 26.1031 14.6818 26.202C14.8228 26.3008 14.9415 26.428 15.0304 26.5753C15.1192 26.7228 15.1762 26.8871 15.1977 27.058C15.2193 27.2286 15.2048 27.402 15.1553 27.5668C14.6719 30.0668 14.1819 32.5518 13.6253 35.0285C13.5882 35.2055 13.5145 35.3728 13.4089 35.5196C13.3033 35.6665 13.1681 35.7895 13.012 35.8808C12.856 35.9723 12.6825 36.03 12.5028 36.0501C12.3231 36.0705 12.1411 36.0528 11.9686 35.9985C11.7837 35.9685 11.607 35.9003 11.4499 35.7983C11.2927 35.6961 11.1586 35.5625 11.056 35.4056C10.9535 35.2488 10.8847 35.0723 10.8542 34.8875C10.8236 34.7026 10.832 34.5133 10.8786 34.3318C11.0953 33.0635 11.382 31.8001 11.702 30.2518Z" fill="black"/>
<path d="M88.2974 30.2783C88.5874 31.6933 88.8391 32.8933 89.0791 34.0933C89.2791 35.085 88.8991 35.8 88.0791 35.9916C87.1824 36.2033 86.5141 35.735 86.2874 34.6866C85.8107 32.4649 85.3407 30.2416 84.8974 28.0199C84.6307 26.6866 84.9857 26.1583 86.3307 25.8783C88.5257 25.42 90.7274 24.9883 92.9257 24.545C93.0591 24.5183 93.1957 24.5033 93.3307 24.4883C94.3024 24.3866 94.9591 24.8016 95.0874 25.595C95.2157 26.3883 94.7741 27.0133 93.8157 27.2333C92.6341 27.5049 91.4391 27.7216 90.2124 27.9716C91.3357 29.1383 92.4857 30.1733 93.4624 31.355C96.9559 35.6881 99.1177 40.9415 99.6857 46.4783C100.676 53.3206 99.4879 60.3009 96.2891 66.43C94.3919 70.2276 91.4159 73.3805 87.7341 75.4933C87.1727 75.8079 86.5902 76.0831 85.9907 76.3166C85.8227 76.3976 85.6402 76.4441 85.4539 76.4535C85.2677 76.4626 85.0814 76.4346 84.9062 76.3708C84.7309 76.3069 84.5702 76.2086 84.4337 76.0816C84.2971 75.9548 84.1872 75.8018 84.1107 75.6316C84.0264 75.4638 83.9786 75.2801 83.9701 75.0925C83.9617 74.9048 83.9932 74.7175 84.0622 74.5428C84.1314 74.3681 84.2366 74.2101 84.3711 74.079C84.5054 73.9476 84.6661 73.8465 84.8424 73.7816C87.2297 72.693 89.3636 71.1181 91.1077 69.1578C92.8517 67.1973 94.1674 64.8945 94.9707 62.3966C96.7384 58.0533 97.4707 53.3581 97.1096 48.6828C96.7486 44.0076 95.3042 39.4805 92.8907 35.46C91.7229 33.442 90.1607 31.6796 88.2974 30.2783Z" fill="black"/>
<path d="M49.959 62.0035C54.2835 62.0035 58.6074 62.0035 62.9307 62.0035C64.519 62.0035 64.944 62.4335 64.914 63.9852C64.7822 67.5857 63.3522 71.017 60.8884 73.6457C58.4244 76.2743 55.0927 77.923 51.5084 78.2873C47.9239 78.6517 44.3287 77.7072 41.3862 75.628C38.4437 73.5488 36.3527 70.4755 35.499 66.9752C35.2665 65.9133 35.1277 64.833 35.084 63.7468C35.0157 62.5085 35.539 62.0102 36.7824 62.0085C41.1745 61.9985 45.5669 61.9968 49.959 62.0035ZM38.1124 64.9152C38.2707 70.5685 44.0574 75.6085 50.2107 75.5002C56.199 75.3935 61.9074 70.2185 61.8474 64.9152H38.1124Z" fill="#066AA8"/>
<path d="M77.9292 34.2967H22.0625V33.2051C22.0625 24.2496 22.0625 15.2946 22.0625 6.34017C22.0625 3.9085 23.0908 2.86182 25.4808 2.86182H75.5992C77.4042 2.86182 77.9325 3.39515 77.9325 5.22848C77.9325 14.5618 77.9325 23.8913 77.9325 33.2168L77.9292 34.2967Z" fill="white"/>
<path d="M77.9197 36.8737C77.9197 37.9037 77.9662 38.8552 77.9079 39.8018C77.8807 40.4502 77.6227 41.0675 77.1806 41.5425C76.7384 42.0173 76.1411 42.3187 75.4964 42.392C75.0976 42.439 74.6961 42.4585 74.2946 42.4503C58.0912 42.4503 41.8886 42.4503 25.6864 42.4503C23.0197 42.4503 22.0664 41.4803 22.0664 38.7637C22.0664 38.1553 22.0664 37.5485 22.0664 36.8718L77.9197 36.8737ZM50.0431 38.2202C49.2431 38.2202 48.4414 38.2002 47.6431 38.2202C47.4731 38.2122 47.3032 38.2385 47.1439 38.2977C46.9844 38.3567 46.8384 38.4475 46.7149 38.5643C46.5912 38.6812 46.4926 38.8218 46.4246 38.9778C46.3567 39.1338 46.3211 39.3018 46.3197 39.4718C46.2797 39.648 46.2786 39.8308 46.3162 40.0075C46.3541 40.1842 46.4297 40.3505 46.5382 40.495C46.6466 40.6395 46.7852 40.7585 46.9444 40.844C47.1036 40.9297 47.2794 40.9795 47.4597 40.9903C49.1556 41.084 50.8554 41.084 52.5514 40.9903C52.7316 40.9785 52.9071 40.9275 53.0657 40.8408C53.2242 40.7542 53.3619 40.6338 53.4692 40.4885C53.5764 40.3432 53.6507 40.1762 53.6867 39.9992C53.7229 39.822 53.7199 39.6393 53.6781 39.4635C53.6744 39.2938 53.6367 39.1265 53.5674 38.9715C53.4979 38.8165 53.3981 38.6772 53.2737 38.5615C53.1494 38.4458 53.0031 38.3563 52.8434 38.2983C52.6839 38.2403 52.5142 38.2148 52.3446 38.2237C51.5747 38.2037 50.8064 38.2202 50.0397 38.2202H50.0431Z" fill="white"/>
<path d="M42.543 52.725L43.8513 45.2966H56.0046L57.418 52.725H42.543Z" fill="white"/>
<path d="M49.8882 57.9184C45.4315 57.9184 40.9732 57.93 36.5148 57.9017C36.0508 57.9145 35.5952 57.7765 35.2163 57.5084C35.0672 57.3674 34.9608 57.1872 34.9095 56.9885C34.8583 56.7897 34.8642 56.5805 34.9265 56.385C34.9888 56.1894 35.1052 56.0155 35.262 55.8832C35.4188 55.7507 35.6098 55.6654 35.813 55.6367C36.1495 55.5862 36.4902 55.57 36.8297 55.5884C45.6075 55.5884 54.3853 55.5884 63.1632 55.5884C63.3298 55.5884 63.4965 55.5884 63.6732 55.5884C64.4515 55.575 65.0648 55.8617 65.0832 56.7067C65.1032 57.6034 64.4997 57.9217 63.663 57.92C59.073 57.9089 54.4815 57.9084 49.8882 57.9184Z" fill="white"/>
<path d="M68.4685 64.647H83.4585C83.5262 65.3486 83.51 66.0558 83.4102 66.7536C83.3078 66.9581 83.1627 67.1385 82.9847 67.2821C82.8068 67.426 82.6 67.53 82.3785 67.587C81.5452 67.8236 80.6385 67.797 79.8168 68.057C78.383 68.5378 77.088 69.3606 76.0437 70.4545C74.9995 71.5481 74.2373 72.88 73.8235 74.3345C73.4095 75.789 73.3562 77.3223 73.6682 78.8021C73.98 80.2818 74.6477 81.6633 75.6135 82.827C76.6935 84.1303 76.6952 84.1303 75.5352 85.307C74.254 86.608 72.9718 87.908 71.6885 89.207C70.7068 90.207 70.5735 90.1903 69.5435 89.307C68.3622 88.1883 66.8883 87.4268 65.2925 87.1106C63.6965 86.7945 62.0437 86.9365 60.5252 87.5203C58.954 88.036 57.5573 88.9783 56.491 90.2421C55.4247 91.506 54.7307 93.0415 54.4868 94.677C54.4585 94.8425 54.439 95.0093 54.4285 95.177C54.2618 97.1386 54.2618 97.1386 52.3718 97.1386C50.5585 97.1386 48.7452 97.1103 46.9335 97.1503C45.9768 97.172 45.6302 96.7386 45.5785 95.817C45.5683 94.0731 45.036 92.3723 44.05 90.9338C43.064 89.4955 41.6697 88.3853 40.0468 87.747C38.4507 86.991 36.6597 86.7473 34.9193 87.0493C33.1792 87.3511 31.575 88.1841 30.3268 89.4336C30.2183 89.5831 30.0748 89.704 29.909 89.7855C29.7432 89.867 29.5598 89.9065 29.3752 89.901C29.1905 89.8953 29.0098 89.8448 28.8493 89.7535C28.6887 89.6621 28.5528 89.5328 28.4535 89.377C27.0802 87.9286 25.6585 86.5286 24.2602 85.1053C23.3452 84.1736 23.3468 84.0286 24.2202 82.9986C25.2787 81.7896 26.0057 80.3271 26.3305 78.7535C26.6555 77.1798 26.567 75.5488 26.0738 74.0196C25.5805 72.4903 24.6995 71.115 23.5165 70.0276C22.3335 68.9403 20.8888 68.178 19.3235 67.8153C18.7983 67.7033 18.2637 67.6413 17.7268 67.6303C16.8402 67.6053 16.4418 67.1936 16.5068 66.2853C16.5435 65.7853 16.5068 65.272 16.5068 64.692H31.5568C31.7612 67.2558 32.4915 69.7501 33.7022 72.0195C34.9128 74.2888 36.5778 76.2843 38.5935 77.882C41.866 80.5303 45.9642 81.946 50.1735 81.882C54.8162 81.7858 59.258 79.9698 62.638 76.7855C66.0182 73.6013 68.0958 69.2756 68.4685 64.647Z" fill="#F9F9F9"/>
<path d="M38.1133 64.9285H61.8483C61.9083 70.2318 56.1999 75.4068 50.2116 75.5135C44.0583 75.6218 38.2716 70.5818 38.1133 64.9285Z" fill="white"/>
<path d="M50.0403 38.2116C50.8203 38.2116 51.6003 38.195 52.3736 38.2116C52.5448 38.2013 52.7163 38.2255 52.8778 38.2826C53.0395 38.3398 53.188 38.429 53.3145 38.5446C53.441 38.6601 53.543 38.8001 53.6145 38.956C53.686 39.1118 53.7253 39.2803 53.7303 39.4516C53.7718 39.629 53.7738 39.8131 53.7363 39.9913C53.699 40.1695 53.6228 40.3371 53.5135 40.4828C53.4041 40.6283 53.2643 40.7481 53.1036 40.8338C52.943 40.9195 52.7655 40.9688 52.5836 40.9783C50.8593 41.072 49.1313 41.072 47.407 40.9783C47.2246 40.9705 47.0463 40.9228 46.8845 40.8386C46.7225 40.7545 46.581 40.6358 46.4698 40.4911C46.3586 40.3465 46.2805 40.1791 46.2408 40.001C46.2011 39.8228 46.201 39.6383 46.2403 39.46C46.2431 39.2885 46.2806 39.1193 46.3505 38.9626C46.4203 38.806 46.521 38.665 46.6466 38.5481C46.7721 38.4311 46.92 38.3408 47.0813 38.2825C47.2426 38.2241 47.4141 38.199 47.5853 38.2083C48.4136 38.1966 49.227 38.2116 50.0403 38.2116Z" fill="black"/>
</g>
</g>
<defs>
<clipPath id="clip0_2006_2990">
<rect width="100" height="100" fill="white"/>
</clipPath>
</defs>
</svg>
