<svg width="100" height="93" viewBox="0 0 100 93" fill="none" xmlns="http://www.w3.org/2000/svg">
<mask id="mask0_2006_3043" style="mask-type:luminance" maskUnits="userSpaceOnUse" x="0" y="0" width="99" height="92">
<path d="M98.3589 0H0V91.2357H98.3589V0Z" fill="white"/>
</mask>
<g mask="url(#mask0_2006_3043)">
<path d="M98.3581 37.7342C97.967 38.6377 97.5706 39.5394 97.1848 40.4447C97.0877 40.7603 96.9243 41.0515 96.7057 41.2988C96.487 41.5461 96.2182 41.744 95.917 41.8792C95.6159 42.0144 95.2893 42.0838 94.9593 42.0827C94.6291 42.0819 94.3031 42.0104 94.0027 41.8735C93.8573 41.8174 93.7015 41.7931 93.5459 41.8024C93.3904 41.8117 93.2386 41.8542 93.1009 41.927C92.942 42.086 92.9724 42.5449 93.0634 42.8199C93.2086 43.1169 93.2873 43.4422 93.294 43.7727C93.3006 44.1035 93.2352 44.4317 93.102 44.7344C92.969 45.037 92.7715 45.3072 92.5232 45.5258C92.2752 45.7444 91.9823 45.9063 91.6652 46.0002C90.8759 46.3449 90.0831 46.6876 89.2777 46.9965C89.0027 47.1333 88.7023 47.211 88.3956 47.2245C88.0888 47.2381 87.7827 47.1874 87.4966 47.0756C87.2107 46.9636 86.9515 46.7933 86.7354 46.5751C86.5191 46.357 86.3511 46.0961 86.242 45.8092C86.0456 45.5213 85.8127 45.2603 85.5491 45.0322C85.3081 45.2733 84.9688 45.4699 84.8348 45.761C84.6116 46.2465 84.2477 46.654 83.79 46.9304C83.3325 47.2067 82.8025 47.3394 82.2688 47.3108C82.2688 48.2911 82.2313 49.2411 82.2938 50.1822C82.3116 50.4501 82.5866 50.7286 82.7956 50.9536C83.2509 51.4483 83.7598 51.8929 84.2081 52.3929C84.4761 52.6601 84.6875 52.9785 84.8297 53.3292C84.9718 53.6799 85.0416 54.0558 85.0348 54.4342C85.0282 54.8124 84.9452 55.1856 84.7909 55.5311C84.6365 55.8767 84.414 56.1874 84.1366 56.4449C83.5402 57.0681 82.9063 57.6538 82.2813 58.2628C82.6706 59.2395 83.0063 60.1645 83.417 61.0538C83.4981 61.1592 83.6009 61.2456 83.7188 61.3074C83.8366 61.369 83.9663 61.4044 84.0991 61.411C84.8009 61.4574 85.5081 61.411 86.2116 61.4342C86.6063 61.4267 86.9984 61.5011 87.3629 61.6527C87.7275 61.8044 88.0566 62.0299 88.3295 62.3152C88.6025 62.6004 88.8134 62.9392 88.949 63.3101C89.0845 63.6808 89.1416 64.0758 89.117 64.4697C89.1277 66.3269 89.1277 68.184 89.117 70.0411C89.1554 70.4438 89.104 70.8499 88.9663 71.2301C88.8286 71.6103 88.6082 71.9552 88.3209 72.2399C88.0338 72.5245 87.6868 72.7419 87.3054 72.8761C86.924 73.0104 86.5173 73.0583 86.1152 73.0163C85.7264 72.9056 85.3182 72.8808 84.919 72.9433C84.5197 73.0058 84.1388 73.1542 83.8023 73.3783C83.4661 73.6026 83.1823 73.8969 82.9709 74.2413C82.7595 74.5858 82.6254 74.972 82.5777 75.3735C82.4206 75.9788 82.3456 76.3413 82.8527 76.7645C83.3643 77.201 83.839 77.6786 84.2723 78.1929C84.7756 78.7045 85.0561 79.3943 85.0529 80.1119C85.0495 80.8294 84.7625 81.5167 84.2545 82.0235C82.8532 83.5174 81.404 84.9651 79.9063 86.3663C79.3934 86.8656 78.7059 87.1451 77.9902 87.1451C77.2745 87.1451 76.587 86.8656 76.0741 86.3663C76.0259 86.3252 75.9759 86.2822 75.9295 86.2393C75.2759 85.6376 74.6956 84.6895 73.9491 84.5342C73.2509 84.3895 72.3902 85.1217 71.5777 85.3985C71.3613 85.4447 71.172 85.5747 71.0509 85.7599C70.9298 85.9453 70.8868 86.1708 70.9313 86.3876C70.9682 87.0915 70.9641 87.7969 70.9188 88.5003C70.9191 89.1994 70.647 89.8713 70.1604 90.3733C69.6736 90.8754 69.0106 91.1681 68.3116 91.1895C66.2009 91.2663 64.0848 91.2681 61.9759 91.1895C61.2622 91.1583 60.5888 90.8494 60.0995 90.3285C59.6104 89.8077 59.3443 89.1163 59.3581 88.4019C59.3277 87.4822 59.6063 86.3572 59.1795 85.6983C58.7741 85.0804 57.6313 84.9163 56.7831 84.6413C56.6207 84.6024 56.4522 84.5981 56.2881 84.629C56.1241 84.6597 55.9684 84.7247 55.8313 84.8197C55.2831 85.2554 54.8313 85.809 54.3152 86.2894C54.0588 86.557 53.7516 86.7706 53.4116 86.9176C53.0716 87.0647 52.7056 87.1424 52.335 87.1461C51.9645 87.1497 51.5972 87.0794 51.2541 86.939C50.9113 86.7986 50.6 86.5911 50.3384 86.3288C48.9004 84.961 47.4973 83.5572 46.1295 82.1179C45.8518 81.8583 45.6311 81.544 45.4809 81.1947C45.3307 80.8456 45.2545 80.469 45.257 80.089C45.2597 79.7088 45.3407 79.3333 45.4956 78.9861C45.6502 78.639 45.8752 78.3276 46.1563 78.0717C46.6563 77.536 47.2045 77.0342 47.7027 76.4949C47.8313 76.3556 47.9759 76.0572 47.9134 75.959C47.7693 75.7774 47.5668 75.6513 47.3402 75.602C47.1191 75.5683 46.8947 75.5635 46.6723 75.5878H20.2616C19.9736 75.5997 19.685 75.5956 19.3973 75.5751C19.0259 75.5463 18.6804 75.3735 18.4347 75.0936C18.1888 74.8138 18.062 74.449 18.0813 74.077C18.0802 73.7186 18.2204 73.3744 18.4714 73.1186C18.7225 72.8629 19.0641 72.7165 19.4223 72.7108C19.7402 72.6822 20.0616 72.6913 20.3831 72.6913H42.567C42.0054 72.2299 41.5777 71.6263 41.3282 70.9436C41.079 70.261 41.017 69.5238 41.1491 68.809C41.1723 67.4001 41.1384 65.9913 41.1581 64.5824C41.1116 64.1629 41.1606 63.7385 41.3009 63.3406C41.4413 62.9426 41.6697 62.5815 41.969 62.284C42.2682 61.9867 42.6309 61.7606 43.0297 61.6227C43.4284 61.4847 43.8532 61.4386 44.2723 61.4878C46.1527 61.6663 47.1938 61.1306 47.692 59.2467C47.8848 58.5199 47.9277 58.1145 47.3509 57.6395C46.8627 57.2242 46.4116 56.767 46.0027 56.2735C45.519 55.7463 45.2581 55.0524 45.275 54.3372C45.292 53.6219 45.5856 52.9411 46.0938 52.4376C47.4688 51.009 48.8711 49.6044 50.3009 48.2235C50.5566 47.9554 50.8632 47.7413 51.2029 47.5936C51.5425 47.4458 51.9082 47.3676 52.2786 47.3633C52.649 47.3588 53.0165 47.4286 53.3595 47.5685C53.7023 47.7081 54.014 47.9151 54.2759 48.177C54.9634 48.7895 55.5563 49.8038 56.3223 49.9502C57.0884 50.0967 58.0223 49.3895 58.8795 49.0574C59.0277 48.9985 59.167 48.9197 59.3652 48.8215C59.3652 47.9769 59.3563 47.1145 59.3652 46.2538C59.3431 45.8688 59.4011 45.4835 59.5357 45.1222C59.6704 44.761 59.8786 44.4317 60.1472 44.1551C60.4157 43.8785 60.739 43.6608 61.0963 43.5158C61.4534 43.3708 61.837 43.3017 62.2223 43.3127C64.1747 43.2842 66.1277 43.2842 68.0813 43.3127C68.4513 43.3008 68.8198 43.3631 69.1654 43.4961C69.5109 43.6294 69.8261 43.8302 70.0925 44.0874C70.359 44.3445 70.5711 44.6524 70.7165 44.9929C70.8616 45.3335 70.9372 45.6995 70.9384 46.0699C70.9431 46.1011 70.9431 46.1331 70.9384 46.1644C70.4027 48.3572 71.4938 49.4502 73.5009 49.8717C73.8359 49.9235 74.1786 49.8651 74.4777 49.7054C74.7702 49.5081 75.0263 49.2617 75.2348 48.977C75.6463 48.3174 76.2756 47.8224 77.0136 47.5777C77.7516 47.3333 78.5518 47.3544 79.2759 47.6377C79.4277 46.7449 79.4384 46.0822 78.5348 45.5733C77.7009 45.1054 77.5991 44.0751 77.9348 42.9786C78.0468 42.6538 78.027 42.2981 77.8795 41.9877C77.7813 41.8411 77.2563 41.8894 76.9652 41.9877C76.6727 42.1249 76.3545 42.1981 76.0314 42.2024C75.7086 42.2067 75.3884 42.142 75.0923 42.0127C74.7965 41.8835 74.5315 41.6924 74.3152 41.4526C74.099 41.2126 73.9365 40.9294 73.8384 40.6215C73.4813 39.8036 73.1241 38.9806 72.8134 38.1431C72.687 37.8724 72.6168 37.5786 72.6075 37.2801C72.5982 36.9813 72.65 36.6838 72.7595 36.4058C72.8688 36.1277 73.0338 35.8751 73.2441 35.6627C73.4545 35.4506 73.7059 35.2835 73.9831 35.1717C74.2672 34.9706 74.5252 34.7349 74.7509 34.4699C74.5227 34.1794 74.2547 33.9226 73.9545 33.7074C73.4209 33.4722 72.9986 33.0406 72.775 32.5022C72.5516 31.9638 72.5441 31.3599 72.7545 30.8161C73.0902 29.8865 73.4611 28.9692 73.867 28.0645C73.9709 27.7856 74.1306 27.5308 74.3361 27.3154C74.5415 27.1001 74.7886 26.9288 75.0623 26.8119C75.3361 26.6949 75.6307 26.6349 75.9282 26.6354C76.2259 26.6358 76.5204 26.6967 76.7938 26.8144C77.1616 26.871 77.5357 26.874 77.9045 26.8233C77.917 26.4777 77.8881 26.1319 77.8188 25.7929C77.5902 25.2736 77.5693 24.6863 77.7602 24.152C77.9511 23.6176 78.3395 23.1767 78.8456 22.9197C78.9731 22.8272 79.0811 22.7102 79.1632 22.5756C79.2454 22.4411 79.3 22.2917 79.3241 22.1358C79.3866 21.309 79.3456 20.4751 79.3456 19.5644H2.88125V20.5592C2.88125 36.2161 2.88125 51.871 2.88125 67.5233C2.79881 68.2217 2.87561 68.9295 3.10591 69.594C3.3362 70.2583 3.71402 70.8619 4.21097 71.3594C4.7079 71.8569 5.31107 72.2353 5.9752 72.4661C6.63933 72.6972 7.34715 72.7747 8.04554 72.6931C9.58304 72.6931 11.1205 72.6806 12.6563 72.6931C13.6902 72.7056 14.3366 73.2877 14.3259 74.1467C14.3186 74.3556 14.2675 74.5608 14.176 74.7488C14.0844 74.9369 13.9544 75.1036 13.7943 75.2383C13.6342 75.3729 13.4477 75.4726 13.2467 75.5306C13.0458 75.5886 12.8349 75.6038 12.6277 75.5751C10.3921 75.6547 8.15372 75.5838 5.92768 75.3627C4.25211 75.0772 2.73402 74.2015 1.64795 72.894C0.561878 71.5865 -0.0204564 69.9336 0.00625 68.234C-0.00208333 47.9352 -0.00208333 27.6376 0.00625 7.34121C0.0197541 5.51486 0.712589 3.75893 1.94981 2.41541C3.18704 1.07189 4.88006 0.237048 6.69911 0.0734008C7.20804 0.0305437 7.72232 0.0162348 8.23304 0.0162348C26.8675 0.0162348 45.5022 0.0162348 64.1366 0.0162348C64.4886 0.00664481 64.8409 0.0155574 65.192 0.0429923C65.3698 0.0443003 65.5456 0.0813098 65.709 0.15182C65.8722 0.22233 66.0197 0.324943 66.1425 0.453507C66.2654 0.582073 66.3613 0.73397 66.4243 0.900264C66.4875 1.06656 66.5164 1.24384 66.5098 1.42157C66.5409 1.7791 66.4313 2.13468 66.2041 2.41252C65.977 2.69037 65.6504 2.86855 65.2938 2.90909C64.9456 2.96014 64.5929 2.97332 64.242 2.94837C45.6081 2.94837 26.9723 3.00375 8.3384 2.90375C7.59125 2.82078 6.835 2.90823 6.1265 3.1595C5.418 3.41075 4.77566 3.81932 4.24774 4.35448C3.71979 4.88962 3.31999 5.53745 3.07836 6.24928C2.83674 6.96114 2.75959 7.71848 2.85268 8.46443C2.99554 11.0501 2.88661 13.643 2.89375 16.243C2.91013 16.3286 2.93652 16.4119 2.97232 16.4913H79.3545V15.5037C79.3545 12.9109 79.3545 10.3252 79.3545 7.72339C79.3972 7.08171 79.302 6.4383 79.0748 5.83659C78.8479 5.23489 78.4945 4.68884 78.0386 4.23528C77.5827 3.78173 77.0348 3.43125 76.432 3.20739C75.8291 2.98353 75.1852 2.89153 74.5438 2.93764C73.7116 2.93764 72.8777 2.95193 72.0438 2.93764C71.8357 2.95948 71.6256 2.93894 71.4257 2.87719C71.2259 2.81546 71.0406 2.71384 70.8813 2.57846C70.7218 2.44309 70.5915 2.27675 70.4982 2.08957C70.4048 1.90239 70.3506 1.69826 70.3384 1.48947C70.3386 1.2802 70.3832 1.07335 70.4693 0.882607C70.5554 0.691868 70.6811 0.521572 70.8379 0.382991C70.9947 0.244409 71.1791 0.140678 71.379 0.0786869C71.5788 0.0166955 71.7897 -0.00215338 71.9973 0.0233737C73.5918 -0.031204 75.1879 0.0674785 76.7634 0.318032C78.2931 0.66422 79.6623 1.51401 80.6516 2.73116C81.6407 3.9483 82.1927 5.46232 82.2188 7.03053C82.3152 11.4145 82.2616 15.8037 82.2706 20.1894C82.2706 20.5715 82.2706 20.952 82.2706 21.4395C82.8573 21.4145 83.4354 21.5885 83.9111 21.9329C84.387 22.2774 84.7325 22.7724 84.892 23.3376C84.9509 23.4354 85.0331 23.517 85.1313 23.5754C85.2293 23.6336 85.3404 23.6667 85.4545 23.6717C85.5673 23.6452 85.6734 23.5954 85.7659 23.5252C85.8582 23.4551 85.9347 23.3663 85.9902 23.2645C86.9866 21.4199 87.767 21.1217 89.7009 21.9163C90.3509 22.1824 91.0063 22.4395 91.6491 22.7181C91.9452 22.8197 92.217 22.9813 92.4475 23.1929C92.6782 23.4044 92.8627 23.6613 92.9893 23.9474C93.1161 24.2336 93.1824 24.5429 93.1841 24.8558C93.1857 25.1688 93.1227 25.4786 92.9991 25.7661C92.889 26.0951 92.9093 26.4538 93.0563 26.7679C93.1438 26.9072 93.6759 26.8661 93.9634 26.7679C94.2554 26.6308 94.5734 26.5574 94.8961 26.5529C95.2188 26.5483 95.5386 26.6126 95.8345 26.7417C96.1302 26.8706 96.395 27.0611 96.6113 27.3006C96.8275 27.5402 96.9902 27.8231 97.0884 28.1304C97.5188 29.0876 97.9313 30.0554 98.3509 31.0179V32.1715C97.7473 32.6929 97.1652 33.2429 96.5331 33.7269C96.0456 34.0983 96.0723 34.5395 96.5813 34.9074C97.2045 35.3574 97.7652 35.8965 98.3509 36.3965L98.3581 37.7342ZM44.1706 70.1251H47.6973C48.0829 70.1106 48.4613 70.2315 48.7672 70.4665C49.0731 70.7017 49.2872 71.0363 49.3723 71.4126C49.8598 72.7572 50.3956 74.0911 51.0098 75.3822C51.247 75.7465 51.3402 76.186 51.2711 76.6151C51.2022 77.0442 50.9759 77.4322 50.6366 77.7038C49.8134 78.4556 49.0188 79.2394 48.3152 79.9072L52.4795 84.0626C53.2116 83.309 54.0152 82.486 54.8116 81.6592C55.0672 81.3694 55.4166 81.1788 55.7986 81.1208C56.1806 81.0626 56.5707 81.1406 56.9009 81.3411C58.2331 81.9483 59.5795 82.5376 60.9545 83.0304C61.3473 83.1111 61.697 83.3327 61.9379 83.6535C62.1786 83.9742 62.2938 84.3719 62.2616 84.7717C62.2348 85.9127 62.2616 87.0554 62.2616 88.2144H68.0277C68.0277 87.0233 68.0277 85.9056 68.0277 84.7895C67.999 84.3888 68.1159 83.9911 68.3572 83.6699C68.5982 83.3486 68.9473 83.1254 69.3402 83.0413C70.6625 82.576 71.96 82.0429 73.2277 81.4449C74.342 80.927 74.8009 80.9395 75.6902 81.8449C76.4456 82.6127 77.1723 83.4128 77.8027 84.0824L81.9652 79.9199C81.2331 79.2056 80.4402 78.4181 79.6277 77.6485C79.3029 77.3842 79.089 77.0076 79.0284 76.5933C78.9679 76.179 79.0652 75.757 79.3009 75.411C79.8966 74.2479 80.4127 73.0456 80.8456 71.8126C81.3598 70.3411 81.5598 70.1288 83.0723 70.1217C84.1134 70.1217 85.1545 70.1217 86.1956 70.1217V64.3911C85.0081 64.3911 83.8741 64.3911 82.7241 64.3911C82.3213 64.4172 81.922 64.3011 81.5957 64.0633C81.2695 63.8256 81.037 63.481 80.9384 63.0894C80.4331 61.7161 79.8956 60.3485 79.2616 59.0306C79.0438 58.6927 78.9574 58.287 79.0184 57.8897C79.0797 57.4926 79.2843 57.1317 79.5938 56.8752C80.4277 56.0842 81.2581 55.2894 82.0063 54.5769L77.8259 50.3769C77.1116 51.1286 76.3295 51.9235 75.5795 52.7485C75.3074 53.0883 74.9165 53.3124 74.4856 53.3754C74.0547 53.4383 73.6161 53.3356 73.2581 53.0877C72 52.4713 70.7047 51.9345 69.3795 51.4806C68.9554 51.3894 68.5802 51.1444 68.3263 50.7929C68.0723 50.4413 67.9577 50.0081 68.0045 49.577C68.0348 48.4697 68.0045 47.3626 68.0045 46.2715H62.2402C62.2402 47.4072 62.2402 48.461 62.2402 49.5163C62.2402 50.7931 61.9402 51.1235 60.7795 51.5342C59.5295 51.986 58.2795 52.4965 57.0741 53.0626C55.9331 53.5983 55.5348 53.5895 54.6152 52.6592C53.8581 51.8913 53.1277 51.0965 52.4866 50.4215L48.2991 54.6038C49.0384 55.3038 49.8402 56.0822 50.6616 56.8411C50.9836 57.109 51.1961 57.4858 51.2586 57.8999C51.3211 58.314 51.2295 58.7367 51.0009 59.0876C50.4009 60.3519 49.8581 61.6483 49.3723 62.9608C48.9652 64.0626 48.617 64.3895 47.4241 64.3895C46.3527 64.3985 45.2706 64.3895 44.1491 64.3895L44.1706 70.1251ZM88.5331 24.5894C88.2688 26.4947 87.1045 26.8769 85.5241 26.5911C85.4293 26.5711 85.3315 26.5711 85.2366 26.5911C84.9281 26.709 84.5968 26.7552 84.2677 26.7263C83.9388 26.6976 83.6206 26.5944 83.3372 26.4247C83.0538 26.2549 82.8127 26.0231 82.632 25.7467C82.4511 25.4702 82.3356 25.1563 82.2938 24.8286C82.2795 24.7822 82.1956 24.7554 82.1152 24.6965L80.7491 25.2983C80.9963 25.5538 81.1775 25.8656 81.2775 26.2067C81.3773 26.5479 81.3929 26.9081 81.3225 27.2567C81.2523 27.6051 81.0984 27.9311 80.874 28.207C80.6497 28.4827 80.3616 28.6997 80.0348 28.8394C79.9552 28.894 79.8873 28.9638 79.8348 29.0449C79.6957 29.3438 79.4913 29.6077 79.2366 29.8174C78.982 30.027 78.6836 30.1769 78.3634 30.256C78.0434 30.3351 77.7095 30.3415 77.3866 30.2747C77.0636 30.2079 76.7598 30.0695 76.4973 29.8697C76.4598 29.8483 76.3831 29.8983 76.2598 29.9322L75.7866 31.1824C77.7509 32.1877 77.7509 32.1876 77.7384 34.3411C77.7384 34.5644 77.7563 34.7876 77.7706 35.0108C77.8634 36.5215 77.7438 36.7217 76.3581 37.3502C76.1795 37.427 76.0295 37.5288 75.8063 37.6502L76.4188 39.1181C78.0509 37.8788 79.1527 38.6286 80.0956 39.9519C80.1143 39.9777 80.1381 39.9995 80.1652 40.0161C80.4654 40.1538 80.7309 40.3572 80.9416 40.6115C81.1524 40.8658 81.3031 41.1642 81.3825 41.4849C81.462 41.8054 81.4682 42.1397 81.4006 42.4629C81.3329 42.7863 81.1932 43.0901 80.992 43.352C80.9706 43.3877 81.0206 43.4645 81.0563 43.5842L82.3366 44.0985C82.4491 43.8556 82.5313 43.6858 82.6063 43.5108C83.1848 42.1465 83.4349 42.0126 84.9277 42.1233C85.4375 42.1565 85.9493 42.1349 86.4545 42.0592C86.8334 41.9745 87.2302 42.0317 87.5698 42.2199C87.9093 42.4081 88.1682 42.7144 88.2973 43.0804C88.4384 43.3911 88.5723 43.7054 88.7313 44.0697L90.1277 43.4697C90.0473 43.2358 89.992 43.059 89.9241 42.8876C89.3563 41.459 89.4099 41.2717 90.5491 40.252C90.9354 39.9167 91.2888 39.5454 91.6045 39.1431C91.8227 38.7822 92.1748 38.5224 92.5841 38.4202C92.9932 38.3183 93.4263 38.3822 93.7884 38.5983C94.0438 38.7197 94.3241 38.8038 94.6491 38.927L95.2313 37.4054C93.3634 37.1376 93.167 35.9967 93.1741 34.461C93.1741 32.8538 93.1973 31.4894 95.2224 31.1858L94.6152 29.7574C94.4081 29.8092 94.2831 29.8286 94.167 29.8715C92.4866 30.4983 92.4509 30.4894 91.2902 29.209C91.1749 29.0552 91.0397 28.9172 90.8884 28.7985C90.5793 28.661 90.3048 28.4563 90.0849 28.1994C89.8649 27.9426 89.7048 27.6399 89.6165 27.3135C89.5281 26.9869 89.5134 26.6449 89.5738 26.312C89.6341 25.9794 89.7677 25.664 89.9652 25.3894C89.9866 25.3501 89.9384 25.2717 89.9081 25.1556L88.5331 24.5894Z" fill="#066AA8"/>
<path d="M98.3554 36.3893C97.7679 35.8893 97.209 35.3481 96.5858 34.8998C96.0769 34.532 96.0501 34.0911 96.5376 33.7197C97.1715 33.2375 97.7519 32.6857 98.3554 32.1643V36.3893Z" fill="white"/>
<path d="M34.5812 27.8858C34.5178 28.142 34.4409 28.3947 34.3509 28.6429C31.7843 35.1108 29.2141 41.5774 26.6402 48.0429C26.6169 48.1019 26.583 48.1572 26.558 48.2215C26.5087 48.4254 26.4162 48.6161 26.2869 48.7813C26.1577 48.9465 25.9946 49.082 25.8086 49.179C25.6227 49.2758 25.418 49.3317 25.2086 49.3429C24.9993 49.3542 24.7898 49.3204 24.5944 49.2442C24.3993 49.1677 24.2225 49.0504 24.0762 48.9001C23.9302 48.7499 23.8177 48.5699 23.7468 48.3726C23.6759 48.1752 23.648 47.9651 23.665 47.756C23.6819 47.547 23.7436 47.3442 23.8455 47.1608C25.2611 43.5679 26.6855 39.9786 28.1187 36.3929C29.2509 33.5465 30.3819 30.7006 31.5116 27.8554C31.6419 27.5304 31.7098 27.0804 31.958 26.9233C32.4114 26.5752 32.9589 26.3717 33.5294 26.3394C34.2169 26.3858 34.6027 26.9769 34.5812 27.8858Z" fill="black"/>
<path d="M18.5355 47.0608C18.1783 47.4537 17.8926 48.0628 17.4497 48.2057C16.9074 48.2694 16.3588 48.1587 15.8836 47.8896C15.639 47.786 15.5086 47.3932 15.3479 47.1182C13.7408 44.3539 12.1676 41.5735 10.5265 38.8289C10.2734 38.4816 10.1358 38.0637 10.1329 37.6341C10.13 37.2044 10.262 36.7848 10.5104 36.4342C12.1943 33.7182 13.8176 30.9628 15.4747 28.2199C16.0783 27.2235 16.8211 26.9449 17.6033 27.3842C18.4176 27.8396 18.5783 28.7146 17.9908 29.7057C16.5801 32.0664 15.1729 34.4287 13.7158 36.7608C13.5221 37.0016 13.4134 37.2994 13.4066 37.6082C13.3998 37.9169 13.4953 38.2192 13.6783 38.4682C15.1354 40.8753 16.5211 43.3235 17.9248 45.761C18.1301 46.1128 18.2765 46.5019 18.5355 47.0608Z" fill="black"/>
<path d="M41.844 48.3573C40.3047 48.3216 39.7172 47.1787 40.3529 46.0358C41.3474 44.0682 42.4645 42.1649 43.6976 40.3376C44.3922 39.6112 44.7779 38.6437 44.7733 37.6389C44.7685 36.6339 44.374 35.6699 43.6726 34.9501C42.4988 33.2764 41.4301 31.5312 40.4726 29.7251C39.8708 28.7144 40.0011 27.8698 40.8083 27.4037C41.5779 26.9501 42.3511 27.2251 42.9511 28.2037C44.644 30.9894 46.3119 33.7892 48.0101 36.5714C48.2206 36.8721 48.3349 37.2296 48.3377 37.5966C48.3406 37.9637 48.232 38.3228 48.0261 38.6267C46.3101 41.5464 44.644 44.4964 42.9065 47.4017C42.6101 47.7791 42.2506 48.1024 41.844 48.3573Z" fill="black"/>
<path d="M11.5262 12.3913C11.1756 12.3965 10.8274 12.3318 10.5021 12.201C10.1767 12.0701 9.88073 11.8758 9.63135 11.6292C9.38196 11.3826 9.18423 11.0888 9.04967 10.765C8.91512 10.4412 8.84644 10.0938 8.84767 9.74311C8.84767 9.03152 9.13033 8.34906 9.63351 7.8459C10.1367 7.34272 10.8191 7.06006 11.5307 7.06006C12.2423 7.06006 12.9247 7.34272 13.4279 7.8459C13.9311 8.34906 14.2137 9.03152 14.2137 9.74311C14.2147 10.0945 14.1456 10.4425 14.0104 10.7668C13.8752 11.0911 13.6767 11.3853 13.4264 11.6319C13.1761 11.8785 12.8791 12.0727 12.5529 12.2031C12.2266 12.3335 11.8776 12.3975 11.5262 12.3913Z" fill="black"/>
<path d="M19.7801 12.3931C19.4292 12.3966 19.081 12.3304 18.7558 12.1984C18.4306 12.0664 18.1349 11.8712 17.8858 11.624C17.6366 11.3768 17.439 11.0827 17.3044 10.7586C17.1698 10.4344 17.1008 10.0869 17.1016 9.73589C17.1025 9.38414 17.1727 9.036 17.3082 8.71137C17.4437 8.38675 17.6418 8.09198 17.8912 7.84391C18.1406 7.59586 18.4363 7.39936 18.7617 7.26561C19.0871 7.13186 19.4354 7.06352 19.7872 7.06446C20.139 7.06541 20.4872 7.13557 20.8117 7.27105C21.1363 7.40653 21.4312 7.60466 21.6792 7.85405C21.9272 8.10345 22.1238 8.39923 22.2576 8.72457C22.3913 9.04991 22.4597 9.39841 22.4587 9.75018C22.4597 10.1005 22.3908 10.4476 22.2562 10.771C22.1215 11.0944 21.9237 11.3878 21.6742 11.6339C21.4247 11.8799 21.1288 12.0738 20.8037 12.2042C20.4785 12.3345 20.1304 12.3987 19.7801 12.3931Z" fill="black"/>
<path d="M28.0672 12.3928C27.716 12.3983 27.3674 12.3341 27.0411 12.204C26.7149 12.074 26.4177 11.8805 26.1667 11.635C25.9158 11.3894 25.7158 11.0966 25.5786 10.7733C25.4413 10.4501 25.3695 10.1029 25.3672 9.75177C25.3658 9.39281 25.4352 9.03706 25.5719 8.70508C25.7085 8.3731 25.9094 8.07142 26.1629 7.81734C26.4165 7.56326 26.7177 7.36179 27.0495 7.2246C27.3811 7.08738 27.7367 7.01713 28.0958 7.01783C28.8042 7.03285 29.4781 7.32626 29.9719 7.83461C30.4654 8.34297 30.739 9.02533 30.7333 9.7339C30.7381 10.085 30.6724 10.4335 30.5399 10.7587C30.4076 11.084 30.2113 11.3794 29.9627 11.6273C29.714 11.8753 29.4181 12.0708 29.0926 12.2023C28.767 12.3338 28.4183 12.3986 28.0672 12.3928Z" fill="black"/>
<path d="M44.168 70.1252V64.3893C45.2894 64.3893 46.3662 64.3893 47.443 64.3893C48.6358 64.3786 48.984 64.0538 49.3912 62.9609C49.8769 61.6484 50.4215 60.3538 51.0198 59.0877C51.2478 58.7368 51.339 58.3145 51.2765 57.9008C51.214 57.4872 51.0019 57.1108 50.6805 56.8429C49.859 56.0858 49.0555 55.3072 48.318 54.6054L52.5055 50.4234C53.1465 51.0984 53.8769 51.8931 54.634 52.6609C55.5537 53.5913 55.9501 53.6002 57.093 53.0645C58.3019 52.4984 59.543 51.9929 60.7983 51.5358C61.959 51.1179 62.2519 50.7929 62.259 49.5179C62.259 48.4643 62.259 47.4092 62.259 46.2734H68.0233C68.0233 47.3663 68.0465 48.4733 68.0233 49.5786C67.976 50.01 68.0905 50.4438 68.3444 50.7958C68.5983 51.1477 68.9739 51.3929 69.3983 51.4842C70.7235 51.9379 72.0189 52.4749 73.2769 53.0913C73.6348 53.3392 74.0735 53.4418 74.5044 53.379C74.9353 53.3159 75.3262 53.0918 75.5983 52.752C76.3483 51.9288 77.1305 51.1324 77.8448 50.3806L82.0251 54.5806C81.2769 55.2949 80.4465 56.0877 79.6126 56.8788C79.3032 57.1352 79.0985 57.4961 79.0373 57.8933C78.976 58.2906 79.0626 58.6965 79.2805 59.0342C79.9144 60.352 80.4519 61.7125 80.9573 63.0929C81.0556 63.4845 81.2883 63.8292 81.6146 64.0668C81.9408 64.3047 82.3399 64.4208 82.743 64.3947C83.884 64.3947 85.0251 64.3947 86.2144 64.3947V70.1252C85.1715 70.1252 84.1323 70.1252 83.0912 70.1252C81.5698 70.1252 81.3787 70.3447 80.8644 71.8161C80.4315 73.0491 79.9155 74.2513 79.3198 75.4145C79.0846 75.7604 78.9876 76.182 79.0481 76.5959C79.1085 77.0099 79.3221 77.3859 79.6465 77.6502C80.4573 78.4216 81.2535 79.209 81.9839 79.9215L77.8215 84.084C77.1912 83.4125 76.4644 82.6143 75.709 81.8465C74.8162 80.9411 74.3608 80.9286 73.2465 81.4465C71.9787 82.0447 70.6812 82.5775 69.359 83.0429C68.9662 83.1272 68.6171 83.3504 68.3758 83.6716C68.1348 83.9929 68.0178 84.3906 68.0465 84.7911C68.0465 85.9072 68.0465 87.0252 68.0465 88.2163H62.2805C62.2805 87.0574 62.259 85.9145 62.2805 84.7734C62.3126 84.3736 62.1974 83.9759 61.9565 83.6552C61.7158 83.3345 61.366 83.1129 60.9733 83.0322C59.5965 82.5393 58.2501 81.952 56.9198 81.3431C56.5894 81.1424 56.1992 81.0643 55.8173 81.1225C55.4353 81.1806 55.086 81.3711 54.8305 81.6608C54.0323 82.4875 53.2233 83.3108 52.4983 84.0643L48.334 79.9091C49.0358 79.2413 49.8305 78.4574 50.6555 77.7056C50.9948 77.434 51.221 77.0459 51.2899 76.6168C51.3589 76.1877 51.2658 75.7483 51.0287 75.384C50.4126 74.0929 49.8787 72.7592 49.3912 71.4145C49.306 71.0381 49.0919 70.7034 48.786 70.4683C48.4801 70.2331 48.1017 70.1124 47.7162 70.127L44.168 70.1252ZM65.118 75.8038C66.939 75.8186 68.7176 75.2522 70.1948 74.187C71.6721 73.1217 72.7712 71.6133 73.3323 69.8806C73.4656 69.4884 73.5444 69.0799 73.5662 68.6663C73.5942 68.3418 73.4974 68.0192 73.2958 67.7636C73.094 67.5081 72.8024 67.3391 72.4805 67.2911C72.1701 67.1918 71.8339 67.2113 71.5371 67.3456C71.2401 67.4799 71.0037 67.7193 70.8731 68.0179C70.7335 68.3386 70.6183 68.6693 70.5287 69.0072C70.0756 70.3906 69.1064 71.5458 67.8228 72.2322C66.5392 72.9186 65.0401 73.0834 63.6381 72.692C62.2362 72.3008 61.0392 71.3836 60.2965 70.1317C59.554 68.8797 59.323 67.3895 59.6519 65.9715C59.8046 65.2581 60.0971 64.582 60.5126 63.9824C60.9282 63.3825 61.4585 62.8713 62.0728 62.4777C62.6873 62.0842 63.3735 61.8163 64.0921 61.6895C64.8105 61.5629 65.5471 61.5797 66.259 61.7393C67.2219 62.0495 68.1376 62.4906 68.9805 63.05C69.2837 63.26 69.6515 63.3552 70.0185 63.319C70.3856 63.2827 70.7278 63.1172 70.984 62.852C71.2285 62.552 71.3467 62.1683 71.3133 61.7827C71.2801 61.397 71.0978 61.0395 70.8055 60.7858C70.6198 60.6097 70.4217 60.4475 70.2126 60.3002C69.1206 59.5031 67.8556 58.9756 66.521 58.7609C65.1862 58.5461 63.8196 58.65 62.5328 59.0643C61.246 59.4784 60.0753 60.1911 59.1165 61.1442C58.1578 62.0972 57.438 63.2636 57.016 64.5479C56.5939 65.8322 56.4817 67.1981 56.6885 68.534C56.8951 69.87 57.4149 71.1383 58.2053 72.2349C58.9956 73.3317 60.0344 74.2258 61.2364 74.8445C62.4383 75.4633 63.7696 75.7888 65.1215 75.7949L65.118 75.8038Z" fill="white"/>
<path d="M88.5306 24.5859L89.8949 25.1467C89.9252 25.2627 89.9734 25.3413 89.952 25.3806C89.7549 25.6552 89.6215 25.9704 89.5613 26.3031C89.5011 26.6359 89.5158 26.9779 89.6041 27.3042C89.6925 27.6306 89.8525 27.9331 90.0724 28.19C90.2922 28.447 90.5665 28.6517 90.8752 28.7893C91.0265 28.9075 91.1615 29.045 91.277 29.1983C92.4377 30.4786 92.4734 30.4877 94.1538 29.8609C94.2699 29.8181 94.3966 29.7984 94.602 29.7467L95.2092 31.175C93.1841 31.4786 93.1663 32.8431 93.1609 34.4502C93.1609 35.9877 93.3502 37.1288 95.2181 37.3949L94.6359 38.9163C94.3038 38.7913 94.0306 38.709 93.7752 38.5875C93.4131 38.3715 92.98 38.3075 92.5709 38.4097C92.1618 38.5117 91.8095 38.7715 91.5913 39.1322C91.2756 39.5347 90.9222 39.9059 90.5359 40.2413C89.3966 41.2609 89.3431 41.4449 89.9109 42.877C89.9788 43.0556 90.0341 43.2252 90.1145 43.4591L88.7181 44.0592C88.5592 43.702 88.4252 43.3804 88.2842 43.0697C88.155 42.7036 87.8961 42.3975 87.5566 42.2093C87.217 42.0211 86.8202 41.9638 86.4413 42.0484C85.9361 42.1243 85.4243 42.1458 84.9145 42.1125C83.4234 42.0018 83.1717 42.1359 82.5931 43.5002C82.5199 43.6788 82.4359 43.8449 82.3234 44.0877L81.0431 43.5733C81.0074 43.4518 80.9591 43.377 80.9788 43.3413C81.18 43.0795 81.3197 42.7756 81.3874 42.4522C81.455 42.129 81.4488 41.7947 81.3693 41.474C81.2899 41.1534 81.1391 40.8549 80.9284 40.6008C80.7177 40.3465 80.4522 40.1431 80.152 40.0054C80.1249 39.9888 80.1011 39.967 80.0824 39.9411C79.1395 38.6179 78.0377 37.8681 76.4056 39.1074L75.7931 37.6413C76.0163 37.5181 76.1752 37.4179 76.3467 37.3411C77.7306 36.7108 77.852 36.5125 77.7574 35.0018C77.7431 34.7786 77.7252 34.5556 77.7252 34.3306C77.7252 32.177 77.7252 32.177 75.7734 31.1717L76.2467 29.9217C76.3699 29.8877 76.4466 29.8375 76.4841 29.859C76.7466 30.0588 77.0504 30.1972 77.3734 30.264C77.6963 30.3308 78.0302 30.3245 78.3504 30.2452C78.6704 30.1661 78.9688 30.0163 79.2234 29.8067C79.4781 29.597 79.6825 29.3331 79.8216 29.0342C79.8738 28.9529 79.9418 28.8829 80.0216 28.8288C80.3484 28.689 80.6365 28.472 80.8608 28.1963C81.0852 27.9204 81.2391 27.5943 81.3093 27.2459C81.3797 26.8975 81.3641 26.5372 81.2643 26.1959C81.1643 25.8549 80.9831 25.5431 80.7359 25.2877L82.102 24.6859C82.1877 24.7449 82.2806 24.7717 82.2806 24.8181C82.3224 25.1456 82.4379 25.4595 82.6188 25.7359C82.7995 26.0124 83.0406 26.2442 83.324 26.414C83.6074 26.5836 83.9256 26.6868 84.2545 26.7158C84.5836 26.7445 84.9149 26.6983 85.2234 26.5806C85.3183 26.5604 85.4161 26.5604 85.5109 26.5806C87.0949 26.8752 88.2663 26.4913 88.5306 24.5859ZM90.5359 34.4679C90.5688 33.7865 90.462 33.1056 90.222 32.467C89.9818 31.8284 89.6136 31.2458 89.1399 30.7547C88.6661 30.2638 88.097 29.8749 87.4674 29.6122C86.8377 29.3495 86.1609 29.2183 85.4788 29.2268C84.1172 29.2129 82.8058 29.7404 81.8331 30.6934C80.8604 31.6463 80.3061 32.9467 80.2922 34.3083C80.2783 35.6699 80.8058 36.9811 81.7586 37.9538C82.7115 38.9265 84.0118 39.4808 85.3734 39.4947C86.0458 39.5167 86.7158 39.4027 87.3431 39.1595C87.9704 38.9163 88.5422 38.549 89.0241 38.0797C89.5061 37.6104 89.8884 37.0486 90.1483 36.4281C90.4081 35.8075 90.5399 35.1408 90.5359 34.4679Z" fill="white"/>
<path d="M65.1197 75.802C63.7679 75.7961 62.4367 75.4704 61.2345 74.8517C60.0326 74.2331 58.994 73.3388 58.2036 72.2422C57.4133 71.1454 56.8935 69.8772 56.6867 68.5411C56.4801 67.2052 56.5922 65.8393 57.0142 64.555C57.4361 63.2708 58.156 62.1043 59.1149 61.1513C60.0736 60.1984 61.2442 59.4858 62.5311 59.0715C63.8179 58.6572 65.1845 58.5533 66.5192 58.7681C67.854 58.9829 69.1188 59.5104 70.2108 60.3074C70.4201 60.4545 70.6183 60.6168 70.8036 60.7931C71.0961 61.0467 71.2783 61.4042 71.3117 61.7899C71.3451 62.1756 71.2269 62.5592 70.9822 62.8592C70.726 63.1243 70.3838 63.2899 70.0169 63.3261C69.6499 63.3626 69.2819 63.2672 68.9786 63.0574C68.136 62.4977 67.2203 62.0567 66.2572 61.7467C65.5453 61.587 64.8088 61.5701 64.0903 61.6968C63.3719 61.8234 62.6854 62.0913 62.0711 62.4849C61.4567 62.8784 60.9265 63.3899 60.511 63.9895C60.0954 64.5892 59.8028 65.2652 59.6501 65.9786C59.3154 67.399 59.5431 68.8936 60.2853 70.1499C61.0274 71.4061 62.2267 72.3265 63.6322 72.7188C65.0376 73.1109 66.5401 72.9443 67.8256 72.254C69.111 71.5636 70.0795 70.4027 70.5286 69.0145C70.6185 68.6765 70.7336 68.3458 70.8733 68.0252C71.0036 67.7267 71.2403 67.487 71.537 67.3527C71.834 67.2184 72.1701 67.1992 72.4804 67.2984C72.8022 67.3467 73.0936 67.5158 73.2953 67.7711C73.497 68.0267 73.5938 68.3492 73.5661 68.6734C73.5444 69.087 73.4656 69.4956 73.3322 69.8877C72.7697 71.6184 71.6703 73.1249 70.1935 74.1884C68.7169 75.2518 66.9395 75.817 65.1197 75.802Z" fill="black"/>
<path d="M90.5329 34.4678C90.537 35.1406 90.405 35.8072 90.1454 36.4278C89.8856 37.0483 89.5033 37.6103 89.0213 38.0796C88.5392 38.5489 87.9674 38.9162 87.3402 39.1592C86.7129 39.4024 86.0429 39.5165 85.3706 39.4946C84.009 39.4806 82.7086 38.9264 81.7558 37.9537C80.8027 36.981 80.2752 35.6696 80.2893 34.308C80.3033 32.9464 80.8576 31.6462 81.8302 30.6931C82.8029 29.7403 84.1143 29.2128 85.4758 29.2267C86.1581 29.2181 86.8347 29.3492 87.4643 29.6121C88.094 29.8748 88.6633 30.2635 89.137 30.7546C89.6108 31.2455 89.979 31.8283 90.219 32.4669C90.4592 33.1055 90.5659 33.7864 90.5329 34.4678ZM85.5599 32.1464C85.2683 32.1347 84.9772 32.1805 84.7033 32.2812C84.4293 32.3821 84.1779 32.5358 83.9634 32.7337C83.749 32.9315 83.5756 33.1697 83.4531 33.4347C83.3308 33.6996 83.2617 33.986 83.2501 34.2776C83.2383 34.5692 83.284 34.8603 83.3849 35.1342C83.4856 35.4081 83.6393 35.6594 83.8372 35.8739C84.0351 36.0883 84.2733 36.2619 84.5383 36.3844C84.8033 36.5067 85.0897 36.5758 85.3813 36.5874C85.9702 36.6112 86.5443 36.3999 86.9776 36.0003C87.4108 35.6005 87.6674 35.0451 87.6911 34.4562C87.7147 33.8674 87.5034 33.293 87.1038 32.8599C86.7042 32.4267 86.1488 32.1701 85.5599 32.1464Z" fill="black"/>
<path d="M85.5538 32.1483C86.1428 32.1719 86.6981 32.4285 87.0977 32.8617C87.4976 33.2949 87.7088 33.8692 87.6851 34.4581C87.6613 35.047 87.4047 35.6024 86.9715 36.002C86.5385 36.4017 85.9642 36.6129 85.3752 36.5894C85.0836 36.5776 84.7972 36.5085 84.5324 36.3862C84.2674 36.2637 84.0292 36.0903 83.8313 35.8758C83.6333 35.6612 83.4797 35.4099 83.3788 35.136C83.2781 34.862 83.2322 34.571 83.244 34.2794C83.2558 33.9878 83.3247 33.7013 83.4472 33.4365C83.5697 33.1715 83.7431 32.9333 83.9576 32.7354C84.172 32.5376 84.4235 32.3838 84.6972 32.2831C84.9711 32.1822 85.2622 32.1365 85.5538 32.1483Z" fill="white"/>
</g>
</svg>
