<svg width="100" height="100" viewBox="0 0 100 100" fill="none" xmlns="http://www.w3.org/2000/svg">
<g clip-path="url(#clip0_2005_2744)">
<mask id="mask0_2005_2744" style="mask-type:luminance" maskUnits="userSpaceOnUse" x="0" y="0" width="100" height="100">
<path d="M99.6574 0H0V99.6778H99.6574V0Z" fill="white"/>
</mask>
<g mask="url(#mask0_2005_2744)">
<path d="M93.8312 -1.80211e-05C94.7512 0.262799 95.636 0.635832 96.4664 1.11105C97.4571 1.74067 98.2701 2.61339 98.828 3.64615C99.3858 4.67893 99.6701 5.83743 99.6534 7.01111C99.6671 29.3 99.6671 51.5894 99.6534 73.8796C99.6591 74.8392 99.468 75.79 99.0918 76.6729C98.7156 77.5559 98.1623 78.3524 97.4662 79.0131C96.7701 79.6737 95.946 80.1846 95.0445 80.5142C94.1432 80.8439 93.184 80.9854 92.2258 80.9296C82.4616 80.9381 72.6967 80.932 62.9314 80.9111C62.0055 80.9111 61.6608 81.0963 61.759 82.0667C61.8225 82.9729 61.8225 83.8826 61.759 84.7889C61.7714 84.9918 61.7423 85.1952 61.6736 85.3866C61.6049 85.5781 61.498 85.7537 61.3595 85.9026C61.221 86.0515 61.0538 86.1707 60.8677 86.2531C60.6817 86.3354 60.481 86.3791 60.2775 86.3815C60.0743 86.3715 59.8751 86.3216 59.6912 86.2346C59.5073 86.1474 59.3423 86.025 59.2058 85.8742C59.0692 85.7233 58.9636 85.547 58.8953 85.3554C58.8269 85.1637 58.7969 84.9605 58.8071 84.7574C58.7812 83.7204 58.7756 82.6796 58.8071 81.6426C58.8238 81.1241 58.7147 80.9185 58.1314 80.9203C52.5832 80.9426 47.0356 80.9426 41.4888 80.9203C40.9703 80.9203 40.8425 81.0722 40.8443 81.5759C40.8629 86.4426 40.8629 91.3092 40.8443 96.1759C40.8443 96.65 40.9849 96.7685 41.446 96.7685C47.0264 96.7537 52.606 96.7537 58.1849 96.7685C58.7312 96.7685 58.8164 96.5722 58.8053 96.0963C58.7775 94.7333 58.7849 93.3703 58.8053 92.0074C58.8164 90.9518 59.3608 90.3111 60.2423 90.2833C61.1904 90.2537 61.7479 90.8555 61.7664 92C61.7886 93.2648 61.8108 94.5315 61.7664 95.7944C61.7349 96.5185 61.8849 96.8166 62.6923 96.7759C64.1738 96.7 65.6758 96.7481 67.1684 96.7574C68.2036 96.7574 68.8738 97.3315 68.8886 98.1926C68.8879 98.4039 68.8423 98.6124 68.7551 98.8048C68.6679 98.9972 68.541 99.1691 68.3827 99.3089C68.2245 99.4489 68.0384 99.5537 67.8367 99.6166C67.6353 99.6794 67.4225 99.6991 67.2127 99.6741C55.6312 99.6741 44.0499 99.6741 32.4684 99.6741C32.259 99.7005 32.0462 99.6828 31.8442 99.6217C31.6421 99.5603 31.4553 99.4574 31.2958 99.3192C31.1364 99.1811 31.0077 99.0107 30.9184 98.8194C30.8292 98.6281 30.7812 98.4202 30.7777 98.2092C30.7777 97.3463 31.4497 96.7648 32.4812 96.7574C34.0386 96.7574 35.596 96.7259 37.1516 96.7704C37.759 96.787 37.9073 96.6055 37.9055 96.0092C37.8814 91.2407 37.8721 86.4704 37.9055 81.7C37.9055 80.8963 37.5349 80.9203 36.959 80.9203C27.259 80.9302 17.5591 80.9302 7.85906 80.9203C6.09632 81.1131 4.3254 80.6381 2.89577 79.5891C1.46615 78.54 0.481692 76.9929 0.136814 75.2537C0.121999 75.2055 0.0442419 75.1759 -0.00390625 75.137V74.7481C0.121918 74.4137 0.15519 74.0517 0.0923936 73.7C0.0923936 51.5566 0.0923936 29.4129 0.0923936 7.26848C0.15519 6.9168 0.121918 6.55472 -0.00390625 6.22037V5.83144C0.177729 4.22119 0.942531 2.73307 2.14612 1.64804C3.14073 0.674856 4.44732 0.0846018 5.83501 -0.0185547L93.8312 -1.80211e-05Z" fill="#066AA8"/>
<path d="M0 6.22974C0.312963 6.47788 0.18514 6.82792 0.18514 7.13533C0.18514 29.3736 0.18514 51.6119 0.18514 73.8501C0.18514 74.1575 0.309259 74.5075 0 74.7556V6.22974Z" fill="#1E1E1D"/>
<path d="M49.8337 62.7442C34.5866 62.7442 19.3398 62.7516 4.09281 62.7665C3.15207 62.7665 2.93175 62.5405 2.93361 61.6035C2.96446 43.6615 2.97186 25.7196 2.95581 7.77755C2.95581 4.44422 4.48914 2.92017 7.83359 2.92017H91.8225C95.1559 2.92017 96.7059 4.45346 96.7059 7.77383C96.7059 25.7157 96.7133 43.6578 96.7281 61.5998C96.7281 62.5257 96.5225 62.7702 95.5744 62.7683C80.3274 62.735 65.0805 62.727 49.8337 62.7442Z" fill="white"/>
<path d="M49.8295 65.7706C65.1046 65.7706 80.3794 65.765 95.6535 65.7539C96.4683 65.7539 96.7646 65.8854 96.735 66.7909C96.6572 69.0261 96.7183 71.2669 96.7072 73.5039C96.7659 74.0972 96.6926 74.6961 96.4922 75.2578C96.292 75.8195 95.97 76.3298 95.5493 76.7522C95.1285 77.1747 94.6193 77.4985 94.0585 77.7008C93.4976 77.9032 92.8989 77.9789 92.3054 77.9224C63.993 77.9224 35.6813 77.9224 7.37014 77.9224C6.7776 77.9793 6.17982 77.9046 5.61951 77.7037C5.0592 77.5026 4.55021 77.1804 4.12895 76.7598C3.70768 76.3393 3.38447 75.8308 3.18257 75.2708C2.98064 74.7109 2.90494 74.1132 2.96086 73.5204C2.94975 71.25 2.99605 68.9798 2.93864 66.7095C2.91827 65.9187 3.16827 65.7632 3.91086 65.765C19.217 65.7798 34.5232 65.7817 49.8295 65.7706Z" fill="white"/>
<path d="M31.0679 53.2646C34.3392 53.2539 37.5593 52.4504 40.4523 50.923C43.3453 49.3956 45.8249 47.1896 47.6788 44.4944C47.8429 44.3072 47.9427 44.0726 47.9638 43.8246C47.9847 43.5767 47.9258 43.3285 47.7956 43.1165C46.2038 39.937 45.3738 36.4307 45.3708 32.875C45.3679 29.3193 46.1923 25.8117 47.779 22.6296C47.9142 22.4207 47.9788 22.1741 47.9636 21.9257C47.9482 21.6774 47.8536 21.4406 47.6938 21.25C44.614 16.8348 39.9199 13.8096 34.6268 12.8289C29.3338 11.8481 23.8675 12.9906 19.4105 16.0091C18.4011 16.6777 17.5696 16.611 17.0381 15.824C16.5067 15.037 16.7437 14.261 17.7585 13.5499C22.6243 10.2331 28.5645 8.87898 34.3871 9.75893C40.2099 10.6389 45.4845 13.6879 49.1531 18.2944C49.7086 18.9924 49.9197 19.0461 50.5253 18.3091C52.899 15.2437 56.0155 12.8345 59.5799 11.3096C63.1445 9.78457 67.0392 9.19422 70.8956 9.59435C76.5486 10.1148 81.8181 12.6782 85.7168 16.8046C89.6156 20.9311 91.8764 26.3372 92.0755 32.0107C92.2747 37.6843 90.3986 43.2357 86.7988 47.6254C83.199 52.015 78.1223 54.9417 72.5195 55.8572C68.3956 56.6109 64.1434 56.205 60.2366 54.6846C56.3297 53.1643 52.9216 50.5891 50.3919 47.2461C49.9697 46.7387 49.8047 46.5813 49.3103 47.2035C47.0716 50.1643 44.1419 52.5318 40.7773 54.0994C37.4127 55.6669 33.7155 56.3868 30.0084 56.1961C24.7056 56.0044 19.6281 54.0041 15.6191 50.5276C11.6103 47.0509 8.91159 42.3074 7.97148 37.085C7.36022 33.9783 7.40335 30.7783 8.09813 27.6894C8.7929 24.6004 10.1241 21.69 12.0066 19.1443C12.6678 18.2184 13.5918 17.9851 14.3178 18.5352C15.0437 19.0852 15.077 19.9424 14.4215 20.8554C12.4752 23.5363 11.2109 26.6507 10.7379 29.9296C10.2649 33.2085 10.5973 36.5531 11.7066 39.6748C12.8159 42.7963 14.6686 45.6009 17.1046 47.8461C19.5406 50.0913 22.4866 51.7094 25.6881 52.5609C26.6268 52.8057 27.5799 52.9913 28.5419 53.1167C29.3419 53.2296 30.1605 53.2183 31.0679 53.2646Z" fill="black"/>
<path d="M21.4212 31.015C21.4212 29.6198 21.4212 28.2248 21.4212 26.8297C21.4212 25.5334 21.9302 24.878 22.9191 24.8854C23.908 24.8928 24.371 25.5002 24.3728 26.8576C24.3728 29.4854 24.3728 32.1132 24.3728 34.741C24.2984 35.3747 24.4456 36.0147 24.7891 36.5523C25.1328 37.09 25.6517 37.4923 26.2582 37.691C26.9052 37.9085 27.6019 37.9324 28.2625 37.7598C28.923 37.5871 29.5188 37.2252 29.9765 36.7187C30.3734 36.1998 30.5604 35.5506 30.5008 34.9002C30.5008 32.1434 30.5008 29.386 30.5008 26.628C30.5008 25.7632 30.7543 25.0834 31.7062 24.9148C31.9215 24.8652 32.1456 24.8663 32.3604 24.918C32.5754 24.9697 32.7752 25.0708 32.9445 25.213C33.1138 25.3552 33.2475 25.5348 33.3352 25.7376C33.4232 25.9404 33.4627 26.161 33.4508 26.3815C33.4786 29.4963 33.5877 32.6167 33.4173 35.7223C33.1914 39.8778 27.9545 42.2465 24.2341 39.9817C23.3441 39.5024 22.6075 38.7817 22.109 37.9024C21.6102 37.0232 21.3701 36.021 21.4156 35.0113C21.4434 33.6761 21.4212 32.3447 21.4212 31.015Z" fill="#066AA8"/>
<path d="M37.4055 32.8886C37.4055 30.8515 37.4055 28.8145 37.4055 26.7664C37.4055 25.5553 37.9331 24.9015 38.8868 24.8867C39.8405 24.8719 40.4092 25.4997 40.4129 26.7145C40.4251 30.796 40.4251 34.8775 40.4129 38.959C40.4129 40.1553 39.8573 40.8515 38.9314 40.8664C37.9814 40.8812 37.4073 40.1571 37.4036 38.9127C37.3999 36.9052 37.4055 34.8978 37.4055 32.8886Z" fill="#066AA8"/>
<path d="M49.8347 70.3373C50.7402 70.3373 51.6458 70.3151 52.5513 70.3373C52.7636 70.3114 52.9789 70.3308 53.1832 70.3944C53.3874 70.4579 53.5758 70.5642 53.736 70.7058C53.896 70.8477 54.0243 71.0218 54.1121 71.2169C54.1999 71.4119 54.2452 71.6234 54.2452 71.8373C54.2452 72.0512 54.1999 72.2625 54.1121 72.4575C54.0243 72.6527 53.896 72.8268 53.736 72.9686C53.5758 73.1103 53.3874 73.2166 53.1832 73.2801C52.9789 73.3436 52.7636 73.3632 52.5513 73.3373C50.7413 73.3643 48.931 73.3643 47.1199 73.3373C46.9074 73.3632 46.6921 73.3436 46.4878 73.2801C46.2836 73.2166 46.0952 73.1103 45.935 72.9686C45.7749 72.8268 45.6467 72.6527 45.5589 72.4575C45.4712 72.2625 45.4258 72.0512 45.4258 71.8373C45.4258 71.6234 45.4712 71.4119 45.5589 71.2169C45.6467 71.0218 45.7749 70.8477 45.935 70.7058C46.0952 70.5642 46.2836 70.4579 46.4878 70.3944C46.6921 70.3308 46.9074 70.3114 47.1199 70.3373C48.0236 70.3151 48.9291 70.3373 49.8347 70.3373Z" fill="black"/>
<path d="M48.3516 32.8478C48.3523 28.8116 49.5503 24.8662 51.794 21.511C54.0375 18.1557 57.226 15.5413 60.9558 13.9986C64.6856 12.456 68.7893 12.0543 72.7475 12.8445C76.7056 13.6347 80.3405 15.5811 83.1921 18.4377C86.0436 21.2941 87.984 24.9325 88.7673 28.8919C89.5506 32.8516 89.1419 36.9545 87.5929 40.6816C86.0438 44.4088 83.4238 47.5927 80.0647 49.8306C76.7056 52.0684 72.7582 53.2597 68.7219 53.2534C63.3184 53.2367 58.1414 51.0804 54.3238 47.2562C50.5062 43.4321 48.3588 38.2514 48.3516 32.8478Z" fill="white"/>
<path d="M55.0596 31.1114C55.0596 29.5873 55.0485 28.0614 55.0596 26.5373C55.0707 25.4669 55.6152 24.8706 56.53 24.8817C57.4448 24.8929 57.9891 25.5114 57.9928 26.5651C58.0039 29.3873 58.0726 32.2114 57.9652 35.0299C58.0191 35.8088 58.3672 36.5382 58.9392 37.0697C59.5113 37.6012 60.264 37.8953 61.0448 37.8919C61.8257 37.8886 62.5759 37.5882 63.1435 37.0519C63.7109 36.5156 64.0531 35.7834 64.1003 35.004C63.98 32.3503 64.0707 29.6854 64.0707 27.0262C64.0592 26.7992 64.0592 26.5717 64.0707 26.3447C64.0713 26.1495 64.1111 25.9564 64.1876 25.7769C64.2641 25.5973 64.3759 25.4347 64.5163 25.2992C64.6566 25.1634 64.8228 25.0573 65.0048 24.9869C65.1868 24.9166 65.3811 24.8832 65.5763 24.8892C65.7654 24.8712 65.9561 24.894 66.1355 24.9562C66.3152 25.0182 66.4792 25.1182 66.6168 25.2492C66.7544 25.3801 66.8624 25.539 66.9333 25.7153C67.0042 25.8916 67.0366 26.0808 67.0281 26.2706C67.1994 29.639 67.1598 33.0147 66.9096 36.378C66.5457 37.8027 65.6698 39.0432 64.4494 39.863C63.2289 40.6829 61.7492 41.0243 60.2929 40.8225C58.8091 40.6962 57.4324 39.9982 56.4535 38.8758C55.4746 37.7536 54.9702 36.2949 55.0466 34.8077C55.0541 33.5762 55.0596 32.3447 55.0596 31.1114Z" fill="#066AA8"/>
<path d="M76.0775 29.8091C77.0442 28.4332 77.9685 27.111 78.8999 25.7962C79.1103 25.3884 79.4707 25.0784 79.9053 24.9314C80.2007 24.8327 80.5201 24.8334 80.8149 24.9338C81.1096 25.0341 81.3631 25.2284 81.5368 25.4869C81.724 25.7553 81.8183 26.0775 81.8053 26.4045C81.7922 26.7315 81.6725 27.0454 81.4646 27.298C80.422 28.7795 79.4055 30.2851 78.3166 31.7425C78.2294 31.8286 78.1603 31.931 78.1131 32.0441C78.0659 32.1571 78.0416 32.2784 78.0416 32.4008C78.0416 32.5232 78.0659 32.6445 78.1131 32.7575C78.1603 32.8704 78.2294 32.973 78.3166 33.0591C79.5444 34.7258 80.724 36.4351 81.9092 38.1332C82.637 39.174 82.5905 40.0517 81.8016 40.5925C81.0127 41.1332 80.2109 40.8777 79.4535 39.8073C78.3696 38.2753 77.2881 36.7406 76.2092 35.2036C76.174 35.1554 76.1035 35.1314 75.9979 35.061C74.8127 36.7406 73.6312 38.4277 72.4349 40.1017C72.349 40.2688 72.2305 40.4169 72.0866 40.5377C71.9425 40.6584 71.7759 40.7491 71.5962 40.8047C71.4168 40.8603 71.2281 40.8793 71.0411 40.861C70.854 40.8427 70.6725 40.7873 70.5072 40.698C70.1733 40.5575 69.907 40.2928 69.7648 39.9597C69.6224 39.6266 69.615 39.2512 69.7442 38.9128C69.865 38.6128 70.034 38.3343 70.2442 38.0888C71.4294 36.3888 72.5942 34.6758 73.8257 33.011C73.9085 32.9284 73.9738 32.8301 74.0179 32.7217C74.062 32.6136 74.084 32.4975 74.0824 32.3806C74.0809 32.2636 74.0559 32.1484 74.0088 32.0412C73.962 31.9341 73.894 31.8375 73.809 31.7573C72.7701 30.3517 71.7831 28.9091 70.7868 27.474C70.1072 26.4943 70.1868 25.6369 70.9887 25.1091C71.7294 24.624 72.5572 24.8703 73.2109 25.7832C74.1553 27.0943 75.0831 28.411 76.0775 29.8091Z" fill="#066AA8"/>
</g>
</g>
<defs>
<clipPath id="clip0_2005_2744">
<rect width="100" height="100" fill="white"/>
</clipPath>
</defs>
</svg>
