<svg width="50" height="50" viewBox="0 0 50 50" fill="none" xmlns="http://www.w3.org/2000/svg">
<mask id="mask0_1262_1381" style="mask-type:luminance" maskUnits="userSpaceOnUse" x="5" y="7" width="40" height="37">
<path d="M45 7H5V43.88H45V7Z" fill="white"/>
</mask>
<g mask="url(#mask0_1262_1381)">
<path d="M25.0115 43.8867L32.3715 21.2351H17.6514L25.0115 43.8867Z" fill="#E24329"/>
<path d="M25.0118 43.8869L17.6516 21.2354H7.33691L25.0118 43.8869Z" fill="#FC6D26"/>
<path d="M7.33609 21.2354L5.09949 28.1191C5.00009 28.4251 4.99999 28.7548 5.09949 29.0608C5.19889 29.3668 5.39259 29.6335 5.65289 29.8227L25.011 43.887L7.33609 21.2354Z" fill="#FCA326"/>
<path d="M7.33691 21.2351H17.6516L13.2189 7.59213C12.9908 6.89013 11.9977 6.89033 11.7697 7.59213L7.33691 21.2351Z" fill="#E24329"/>
<path d="M25.0114 43.8869L32.3714 21.2354H42.6862L25.0114 43.8869Z" fill="#FC6D26"/>
<path d="M42.6855 21.2354L44.9221 28.1191C45.0215 28.4251 45.0215 28.7548 44.922 29.0608C44.8226 29.3668 44.6288 29.6335 44.3685 29.8227L25.0107 43.887L42.6855 21.2354Z" fill="#FCA326"/>
<path d="M42.6849 21.2351H32.3701L36.8029 7.59213C37.031 6.89013 38.0242 6.89033 38.2521 7.59213L42.6849 21.2351Z" fill="#E24329"/>
</g>
</svg>
