<svg width="50" height="50" viewBox="0 0 50 50" fill="none" xmlns="http://www.w3.org/2000/svg">
<path d="M30.8733 15.2266L27.2979 9H17.9175C17.0824 9 16.3041 9.44595 15.8988 10.1756L8.31011 23.399C7.89663 24.1206 7.89663 24.9961 8.31011 25.7259L11.1964 30.7606L14.7637 24.5664L20.1309 15.2266H30.8733Z" fill="#F8BB16"/>
<path d="M42.696 23.399L35.1073 10.1756C34.6858 9.45402 33.9155 9 33.0885 9H27.2998L30.8752 15.2266L36.2424 24.5664L30.8752 33.9063H38.0098L42.696 25.7259C43.1013 25.0043 43.1013 24.1206 42.696 23.399Z" fill="#EA4334"/>
<path d="M37.9979 33.8982H20.1127L14.7455 24.5584L11.1782 30.7526L15.8806 38.9412C16.3022 39.6627 17.0724 40.1168 17.8994 40.1168H33.0685C33.9037 40.1168 34.682 39.6708 35.0873 38.9412L37.9979 33.8982Z" fill="#0074BC"/>
<path d="M30.8553 33.8982H20.1047L14.7456 24.5583L20.1128 15.2184H30.8553L36.2386 24.5583L30.8553 33.8982ZM25.488 19.8965C22.9017 19.8965 20.8181 21.9801 20.8181 24.5664C20.8181 27.1528 22.9017 29.2364 25.488 29.2364C28.0744 29.2364 30.158 27.1528 30.158 24.5664C30.158 21.9801 28.0662 19.8965 25.488 19.8965Z" fill="#E2E3E4"/>
</svg>
