<svg width="50" height="50" viewBox="0 0 50 50" fill="none" xmlns="http://www.w3.org/2000/svg">
<mask id="mask0_1259_1255" style="mask-type:luminance" maskUnits="userSpaceOnUse" x="8" y="15" width="35" height="21">
<path d="M43 15H8V35.954H43V15Z" fill="white"/>
</mask>
<g mask="url(#mask0_1259_1255)">
<path d="M17.9466 22.6452C17.9466 23.0712 17.9926 23.4165 18.0732 23.6699C18.1654 23.9232 18.2804 24.1995 18.4416 24.4988C18.4992 24.591 18.5222 24.683 18.5222 24.7636C18.5222 24.8788 18.4531 24.9939 18.3034 25.1091L17.5781 25.5926C17.4745 25.6616 17.3709 25.6962 17.2788 25.6962C17.1637 25.6962 17.0485 25.6386 16.9334 25.535C16.7722 25.3623 16.6341 25.1781 16.519 24.9939C16.4038 24.7982 16.2887 24.5794 16.162 24.3146C15.264 25.3738 14.1357 25.9035 12.7772 25.9035C11.8101 25.9035 11.0387 25.6271 10.4745 25.0745C9.91035 24.5218 9.62256 23.785 9.62256 22.864C9.62256 21.8853 9.96792 21.091 10.6703 20.4922C11.3726 19.8935 12.3051 19.5942 13.4909 19.5942C13.8824 19.5942 14.2853 19.6288 14.7114 19.6863C15.1373 19.7439 15.5748 19.836 16.0353 19.9396V19.0991C16.0353 18.2241 15.8512 17.614 15.4942 17.2571C15.1259 16.9002 14.5041 16.7274 13.6176 16.7274C13.2147 16.7274 12.8002 16.7735 12.3742 16.8771C11.9482 16.9807 11.5337 17.1074 11.1308 17.2685C10.9466 17.3491 10.8084 17.3952 10.7279 17.4182C10.6472 17.4413 10.5897 17.4528 10.5436 17.4528C10.3824 17.4528 10.3018 17.3377 10.3018 17.0959V16.5317C10.3018 16.3475 10.3248 16.2093 10.3824 16.1288C10.44 16.0482 10.5436 15.9676 10.7048 15.887C11.1078 15.6797 11.5913 15.5071 12.1554 15.3689C12.7196 15.2192 13.3183 15.1502 13.9515 15.1502C15.3216 15.1502 16.3232 15.461 16.9679 16.0827C17.6012 16.7044 17.9235 17.6485 17.9235 18.9149V22.6452H17.9466ZM13.2722 24.3952C13.6522 24.3952 14.0436 24.3261 14.4581 24.1879C14.8726 24.0498 15.2409 23.7966 15.5518 23.4511C15.736 23.2324 15.8742 22.9906 15.9433 22.7143C16.0123 22.4379 16.0584 22.104 16.0584 21.7127V21.229C15.7245 21.1485 15.3676 21.0794 14.9992 21.0334C14.6308 20.9873 14.2739 20.9643 13.917 20.9643C13.1456 20.9643 12.5815 21.114 12.2015 21.4248C11.8216 21.7357 11.6373 22.1732 11.6373 22.7488C11.6373 23.2899 11.7755 23.6929 12.0634 23.9692C12.3397 24.2571 12.7426 24.3952 13.2722 24.3952ZM22.5173 25.6386C22.3101 25.6386 22.1719 25.604 22.0798 25.5235C21.9877 25.4544 21.9071 25.2932 21.838 25.0745L19.1324 16.1748C19.0634 15.9446 19.0288 15.7949 19.0288 15.7143C19.0288 15.5301 19.1209 15.4265 19.3051 15.4265H20.4334C20.6522 15.4265 20.8018 15.461 20.8824 15.5415C20.9745 15.6107 21.0436 15.7718 21.1127 15.9906L23.0469 23.6123L24.8429 15.9906C24.9005 15.7603 24.9696 15.6107 25.0617 15.5415C25.1538 15.4725 25.315 15.4265 25.5222 15.4265H26.4433C26.662 15.4265 26.8117 15.461 26.9038 15.5415C26.9959 15.6107 27.0765 15.7718 27.1226 15.9906L28.9416 23.7044L30.9334 15.9906C31.0025 15.7603 31.0831 15.6107 31.1637 15.5415C31.2558 15.4725 31.4054 15.4265 31.6127 15.4265H32.6834C32.8676 15.4265 32.9712 15.5185 32.9712 15.7143C32.9712 15.7718 32.9597 15.8294 32.9482 15.8985C32.9367 15.9676 32.9137 16.0597 32.8676 16.1863L30.0929 25.086C30.0239 25.3163 29.9433 25.466 29.8512 25.535C29.7591 25.604 29.6094 25.6502 29.4137 25.6502H28.4235C28.2048 25.6502 28.0551 25.6156 27.963 25.535C27.8709 25.4544 27.7904 25.3047 27.7442 25.0745L25.9597 17.6485L24.1867 25.0629C24.1291 25.2932 24.0601 25.4429 23.9679 25.5235C23.8759 25.604 23.7147 25.6386 23.5074 25.6386H22.5173ZM37.3117 25.9495C36.713 25.9495 36.1143 25.8804 35.5387 25.7422C34.963 25.604 34.514 25.4544 34.2147 25.2817C34.0304 25.1781 33.9038 25.0629 33.8578 24.9593C33.8117 24.8557 33.7887 24.7406 33.7887 24.637V24.0498C33.7887 23.808 33.8808 23.6929 34.0534 23.6929C34.1226 23.6929 34.1916 23.7044 34.2607 23.7274C34.3298 23.7504 34.4334 23.7966 34.5485 23.8426C34.94 24.0153 35.3659 24.1535 35.815 24.2455C36.2755 24.3377 36.7245 24.3837 37.1851 24.3837C37.9103 24.3837 38.4745 24.2571 38.866 24.0038C39.2574 23.7504 39.4647 23.3821 39.4647 22.91C39.4647 22.5877 39.361 22.3228 39.1538 22.104C38.9466 21.8853 38.5551 21.6896 37.9909 21.5054L36.3216 20.9873C35.4811 20.7225 34.8594 20.331 34.4795 19.8129C34.0995 19.3064 33.9038 18.7422 33.9038 18.1435C33.9038 17.66 34.0074 17.234 34.2147 16.8656C34.4219 16.4972 34.6982 16.1748 35.0436 15.9216C35.389 15.6567 35.7804 15.461 36.2409 15.3228C36.7015 15.1847 37.1851 15.1271 37.6916 15.1271C37.9449 15.1271 38.2098 15.1386 38.463 15.1732C38.7279 15.2077 38.9696 15.2538 39.2114 15.2998C39.4416 15.3574 39.6603 15.4149 39.8676 15.4841C40.0748 15.5531 40.236 15.6222 40.3512 15.6913C40.5123 15.7834 40.6275 15.8754 40.6966 15.979C40.7656 16.0712 40.8002 16.1978 40.8002 16.3591V16.9002C40.8002 17.1419 40.7081 17.2685 40.5353 17.2685C40.4433 17.2685 40.2936 17.2225 40.0978 17.1304C39.4416 16.831 38.7048 16.6814 37.8873 16.6814C37.2311 16.6814 36.713 16.785 36.3561 17.0038C35.9992 17.2225 35.815 17.5564 35.815 18.0285C35.815 18.3508 35.9301 18.6271 36.1603 18.8459C36.3906 19.0646 36.8166 19.2834 37.4268 19.479L39.0617 19.9972C39.8906 20.262 40.4893 20.6304 40.8462 21.1024C41.2031 21.5745 41.3759 22.1156 41.3759 22.7143C41.3759 23.2093 41.2722 23.6584 41.0765 24.0498C40.8692 24.4413 40.5929 24.7866 40.236 25.0629C39.8791 25.3508 39.4531 25.558 38.9581 25.7077C38.44 25.8689 37.8989 25.9495 37.3117 25.9495Z" fill="#252F3E"/>
<path fill-rule="evenodd" clip-rule="evenodd" d="M39.4888 31.5451C35.701 34.3427 30.1977 35.828 25.4658 35.828C18.8342 35.828 12.8589 33.3757 8.34575 29.3C7.98883 28.9777 8.31118 28.5402 8.73722 28.7934C13.6188 31.6257 19.6402 33.3411 25.8688 33.3411C30.071 33.3411 34.6879 32.4661 38.9362 30.6701C39.5694 30.3822 40.1105 31.0846 39.4888 31.5451Z" fill="#FF9900"/>
<path fill-rule="evenodd" clip-rule="evenodd" d="M41.0657 29.7493C40.5822 29.1276 37.8651 29.4499 36.6332 29.5996C36.2648 29.6457 36.2072 29.3233 36.5411 29.0816C38.7056 27.5618 42.2631 27.9993 42.6776 28.5059C43.0921 29.024 42.5625 32.5816 40.5362 34.2854C40.2253 34.5503 39.926 34.4121 40.0641 34.0667C40.5246 32.9269 41.5493 30.3595 41.0657 29.7493Z" fill="#FF9900"/>
</g>
</svg>
