<svg width="50" height="50" viewBox="0 0 50 50" fill="none" xmlns="http://www.w3.org/2000/svg">
<path d="M19.6679 9.00038H30.0246L19.2733 40.8553C19.1629 41.1826 18.9525 41.467 18.6718 41.6685C18.3913 41.8701 18.0545 41.9785 17.709 41.9785H9.64894C9.38709 41.9786 9.12916 41.9163 8.89623 41.7968C8.66331 41.6773 8.46217 41.5042 8.30953 41.2915C8.15689 41.0789 8.05704 40.833 8.01818 40.5741C7.97943 40.3152 8.00281 40.0509 8.08653 39.8029L18.1032 10.1237C18.2136 9.79614 18.424 9.51158 18.7047 9.31006C18.9854 9.10844 19.3223 9.00038 19.6679 9.00038Z" fill="url(#paint0_linear_1259_1264)"/>
<path d="M34.7184 30.3664H18.2951C18.1424 30.3662 17.9933 30.412 17.867 30.4978C17.7407 30.5837 17.6432 30.7055 17.5872 30.8476C17.5312 30.9896 17.5192 31.1452 17.5529 31.2941C17.5866 31.4431 17.6643 31.5784 17.776 31.6825L28.3292 41.5325C28.6365 41.8191 29.0411 41.9785 29.4613 41.9784H38.7607L34.7184 30.3664Z" fill="#0078D4"/>
<path d="M19.6682 9.00044C19.3189 8.9991 18.9783 9.10945 18.6961 9.31546C18.4139 9.52156 18.205 9.81233 18.0999 10.1456L8.09914 39.7758C8.00989 40.0248 7.98182 40.2915 8.01743 40.5536C8.05304 40.8157 8.15127 41.0653 8.30372 41.2813C8.45617 41.4974 8.65845 41.6736 8.89347 41.795C9.1284 41.9163 9.38911 41.9793 9.65363 41.9786H17.9217C18.2296 41.9236 18.5175 41.7878 18.7557 41.5852C18.9941 41.3825 19.1743 41.1202 19.2781 40.8251L21.2724 34.9475L28.3961 41.5919C28.6946 41.8389 29.0691 41.9754 29.4566 41.9786H38.7215L34.658 30.3666L22.8125 30.3694L30.0623 9.00044H19.6682Z" fill="url(#paint1_linear_1259_1264)"/>
<path d="M32.8963 10.1223C32.786 9.79538 32.5759 9.51129 32.2956 9.31006C32.0154 9.10883 31.679 9.00067 31.334 9.00067H19.7915C20.1366 9.00067 20.4729 9.10892 20.7532 9.31015C21.0334 9.51138 21.2436 9.79548 21.3539 10.1223L31.3709 39.8028C31.4546 40.0508 31.4781 40.3153 31.4394 40.5742C31.4006 40.8332 31.3008 41.0791 31.1481 41.2919C30.9955 41.5045 30.7943 41.6778 30.5614 41.7973C30.3284 41.9168 30.0704 41.9793 29.8086 41.9793H41.3514C41.6132 41.9792 41.8711 41.9167 42.1041 41.7972C42.337 41.6776 42.538 41.5044 42.6907 41.2917C42.8433 41.079 42.9431 40.833 42.9818 40.5741C43.0206 40.3152 42.9971 40.0508 42.9134 39.8028L32.8963 10.1223Z" fill="url(#paint2_linear_1259_1264)"/>
<defs>
<linearGradient id="paint0_linear_1259_1264" x1="23.4426" y1="11.4442" x2="12.6869" y2="43.2191" gradientUnits="userSpaceOnUse">
<stop stop-color="#114A8B"/>
<stop offset="1" stop-color="#0669BC"/>
</linearGradient>
<linearGradient id="paint1_linear_1259_1264" x1="26.8028" y1="26.2522" x2="24.3148" y2="27.0934" gradientUnits="userSpaceOnUse">
<stop stop-opacity="0.3"/>
<stop offset="0.071" stop-opacity="0.2"/>
<stop offset="0.321" stop-opacity="0.1"/>
<stop offset="0.623" stop-opacity="0.05"/>
<stop offset="1" stop-opacity="0"/>
</linearGradient>
<linearGradient id="paint2_linear_1259_1264" x1="25.4345" y1="10.5177" x2="37.241" y2="41.9725" gradientUnits="userSpaceOnUse">
<stop stop-color="#3CCBF4"/>
<stop offset="1" stop-color="#2892DF"/>
</linearGradient>
</defs>
</svg>
