<svg width="50" height="50" viewBox="0 0 50 50" fill="none" xmlns="http://www.w3.org/2000/svg">
<path d="M45.0002 25.0001C45.0002 36.0462 36.0463 45 25.0001 45C13.9547 45 5 36.0462 5 25.0001C5 13.9547 13.9548 5 25.0001 5C36.0463 5 45.0002 13.9548 45.0002 25.0001Z" fill="#1A1918"/>
<path d="M25.3353 17.2179L30.5109 29.9919L22.6933 23.8338L25.3353 17.2179ZM34.5298 32.9345L26.5685 13.7754C26.3413 13.2228 25.8868 12.9304 25.3353 12.9304C24.7828 12.9304 24.2952 13.2228 24.068 13.7754L15.3301 34.7905H18.3191L21.7782 26.1259L32.1005 34.4651C32.5156 34.8008 32.8152 34.9526 33.2046 34.9526C33.9844 34.9526 34.666 34.368 34.666 33.5241C34.666 33.3869 34.6176 33.1689 34.5298 32.9345Z" fill="white"/>
</svg>
