<svg width="50" height="50" viewBox="0 0 50 50" fill="none" xmlns="http://www.w3.org/2000/svg">
<mask id="mask0_1261_1333" style="mask-type:luminance" maskUnits="userSpaceOnUse" x="5" y="5" width="40" height="40">
<path d="M44.8385 5H5V45H44.8385V5Z" fill="white"/>
</mask>
<g mask="url(#mask0_1261_1333)">
<path d="M24.9977 33.9958C20.0379 33.9958 16.0021 29.9607 16.0021 25.0009C16.0021 20.0404 20.0379 16.0046 24.9977 16.0046C29.0924 16.0046 32.5535 18.7547 33.6386 22.504H37.1191C35.9605 16.8727 30.9666 12.6255 24.9977 12.6255C18.1745 12.6255 12.623 18.177 12.623 25.0009C12.623 31.8241 18.1745 37.3756 24.9977 37.3756C30.9666 37.3756 35.9605 33.1291 37.1191 27.4979H33.6386C32.5535 31.2463 29.0924 33.9958 24.9977 33.9958Z" fill="#435363"/>
<path d="M18.9316 31.0638C20.4852 32.6175 22.6305 33.5801 24.9958 33.5801V29.9935C23.6172 29.9935 22.3688 29.4336 21.4649 28.5305L18.9316 31.0638Z" fill="#435363"/>
<path d="M16.417 25.0008C16.417 26.2284 16.6788 27.3963 17.145 28.4535L20.4257 27.0106C20.1546 26.3957 20.0028 25.7165 20.0028 25.0008C20.0028 22.2429 22.2388 20.0078 24.9959 20.0078V16.4211C20.2654 16.4211 16.417 20.2703 16.417 25.0008Z" fill="#F38B00"/>
<path d="M28.1078 17.0056L26.8066 20.349C27.8692 20.7634 28.756 21.5278 29.3198 22.5037H33.2046C32.4379 19.9858 30.542 17.9559 28.1078 17.0056Z" fill="#435363"/>
<path d="M26.8086 29.652L28.1089 32.9954C30.5431 32.0451 32.439 30.0144 33.2066 27.4966H29.3218C28.7564 28.4732 27.8704 29.2384 26.8086 29.652Z" fill="#F38B00"/>
<path d="M9.12532 29.8C9.06882 29.6126 9.01452 29.4236 8.96422 29.2331C8.96112 29.2215 8.95802 29.2098 8.95492 29.1982C8.90842 29.0216 8.86582 28.8451 8.82482 28.6669C8.81632 28.6305 8.80852 28.5941 8.80082 28.5577C8.76672 28.4051 8.73572 28.251 8.70552 28.0969C8.69242 28.028 8.68072 27.959 8.66912 27.8901C8.64742 27.767 8.62582 27.6446 8.60642 27.5199C8.59012 27.4138 8.57622 27.3085 8.56232 27.2024C8.46472 26.479 8.41202 25.744 8.41282 24.9998H5.02442C5.02362 25.8114 5.07482 26.613 5.17002 27.4045C5.17162 27.4216 5.17472 27.4386 5.17702 27.4556C5.20332 27.6709 5.23282 27.8862 5.26612 28.0992C5.27542 28.1581 5.28542 28.2169 5.29552 28.2766C5.32492 28.4516 5.35512 28.6267 5.38922 28.8009C5.40622 28.8938 5.42642 28.9852 5.44572 29.0774C5.47442 29.216 5.50382 29.3547 5.53562 29.4925C5.56352 29.6133 5.59372 29.7342 5.62462 29.855C5.65182 29.9626 5.67812 30.0703 5.70672 30.1779C5.74552 30.3204 5.78652 30.4614 5.82762 30.6031C5.84462 30.662 5.86012 30.7224 5.87792 30.7805H5.87952C6.11332 31.5542 6.39062 32.3093 6.71282 33.0404L9.81772 31.675C9.55052 31.0694 9.31972 30.442 9.12532 29.8Z" fill="#435363"/>
<path d="M24.9973 41.5861C20.4248 41.5861 16.2797 39.7243 13.2771 36.7208L10.877 39.121C14.4915 42.7355 19.4822 44.9737 24.9973 44.9737C35.1825 44.9737 43.5856 37.3497 44.8147 27.4976H41.3954C40.1872 35.4615 33.2943 41.5861 24.9973 41.5861Z" fill="#F38B00"/>
<path d="M24.998 8.4154C28.7132 8.4154 32.1449 9.643 34.9129 11.7147L36.9429 8.9939C33.611 6.5032 29.4769 5.0278 24.998 5.0278C16.5229 5.0278 9.28154 10.3067 6.38184 17.7564L9.54254 18.9863C11.955 12.8052 17.9735 8.4154 24.998 8.4154Z" fill="#F38B00"/>
<path d="M41.3943 22.5042H44.8136C44.4473 19.565 43.442 16.8241 41.941 14.4248L39.0615 16.2216C40.2372 18.0982 41.0481 20.2257 41.3943 22.5042Z" fill="#435363"/>
<path d="M37.5428 22.5039H40.9737C40.0784 16.7511 36.1387 11.9942 30.859 9.93332L29.6338 13.0839C33.6487 14.6515 36.6854 18.1885 37.5428 22.5039Z" fill="#F38B00"/>
<path d="M24.998 12.2091L24.9988 8.83081C18.1501 8.83081 12.2826 13.1106 9.92969 19.1368L13.078 20.3621C14.9398 15.5951 19.5805 12.2091 24.998 12.2091Z" fill="#435363"/>
<path d="M12.2074 24.9998H8.8291C8.8291 31.7943 13.0431 37.6207 18.9942 40.0092L20.2488 36.8733C15.5408 34.9836 12.2074 30.3747 12.2074 24.9998Z" fill="#F38B00"/>
<path d="M24.9971 37.791V41.17C33.0641 41.17 39.7696 35.2313 40.9739 27.4966H37.5422C36.3781 33.3594 31.1961 37.791 24.9971 37.791Z" fill="#435363"/>
</g>
</svg>
