<svg width="50" height="50" viewBox="0 0 50 50" fill="none" xmlns="http://www.w3.org/2000/svg">
<path d="M41.5008 14.5995C41.272 13.8676 40.7231 13.2729 40.037 12.907L26.0858 6.2287C25.7198 6.0457 25.3082 6 24.9422 6C24.5763 6 24.1646 6 23.7987 6.0915L9.84751 12.8155C9.16131 13.1357 8.65821 13.7304 8.47521 14.508L5.0446 29.557C4.9073 30.3346 5.0903 31.1122 5.5477 31.7526L15.1992 43.6912C15.7481 44.2401 16.5258 44.606 17.3034 44.6518H32.6726C33.4959 44.7433 34.2736 44.3773 34.7767 43.6912L44.4282 31.7526C44.8856 31.1122 45.0686 30.3346 44.9771 29.557L41.5008 14.5995Z" fill="#326DE6"/>
<path d="M39.3524 28.9627C39.3066 28.9627 39.2609 28.9627 39.2609 28.917C39.2609 28.8713 39.1694 28.8713 39.0779 28.8713C38.8949 28.8255 38.712 28.8255 38.529 28.8255C38.4375 28.8255 38.346 28.8255 38.2545 28.7798H38.2088C37.7056 28.734 37.1567 28.6426 36.6536 28.5053C36.5164 28.4596 36.3791 28.3224 36.3334 28.1851L35.9675 28.0937C36.1504 26.7671 36.0589 25.3949 35.7845 24.0684C35.4643 22.7419 34.9154 21.4611 34.1835 20.3176L34.458 20.0431V19.9974C34.458 19.8601 34.5037 19.6772 34.5952 19.5857C35.0069 19.2198 35.4186 18.9453 35.876 18.6709C35.9675 18.6251 36.0589 18.5794 36.1504 18.5336C36.3334 18.4421 36.4706 18.3507 36.6536 18.2592C36.6993 18.2134 36.7451 18.2134 36.7908 18.1677C36.8366 18.122 36.7908 18.1219 36.7908 18.0762C37.2025 17.756 37.294 17.2071 36.9738 16.7954C36.8366 16.6125 36.5621 16.4752 36.3334 16.4752C36.1047 16.4752 35.876 16.5667 35.693 16.704L35.6473 16.7497C35.6015 16.7954 35.5558 16.8412 35.51 16.8412C35.3728 16.9784 35.2356 17.1156 35.1441 17.2529C35.0984 17.3443 35.0069 17.3901 34.9611 17.4358C34.6409 17.8018 34.2293 18.1677 33.8176 18.4421C33.7261 18.4879 33.6346 18.5336 33.5431 18.5336C33.4974 18.5336 33.4059 18.5336 33.3602 18.4879H33.3144L32.9485 18.7166C32.5826 18.3507 32.1709 17.9847 31.805 17.6188C30.1125 16.2923 28.0084 15.4689 25.8585 15.2402L25.8128 14.8743V14.92C25.6756 14.8285 25.6298 14.6913 25.5841 14.5541C25.5841 14.0509 25.5841 13.5478 25.6756 12.9989V12.9531C25.6756 12.8616 25.7213 12.7702 25.7213 12.6787C25.767 12.4957 25.767 12.3127 25.8128 12.1298V11.8553C25.8585 11.3979 25.4926 10.9405 25.0352 10.8948C24.7607 10.849 24.4863 10.9862 24.2576 11.2149C24.0746 11.3979 23.9831 11.6266 23.9831 11.8553V12.084C23.9831 12.267 24.0289 12.45 24.0746 12.6329C24.1203 12.7244 24.1203 12.8159 24.1203 12.9074V12.9531C24.2118 13.4563 24.2118 13.9594 24.2118 14.5084C24.1661 14.6456 24.1203 14.7828 23.9831 14.8743V14.9658L23.9374 15.3317C23.4342 15.3774 22.9311 15.4689 22.3822 15.5604C20.2323 16.0178 18.2654 17.1614 16.7559 18.7623L16.4815 18.5794H16.4357C16.39 18.5794 16.3442 18.6251 16.2528 18.6251C16.1613 18.6251 16.0698 18.5794 15.9783 18.5336C15.5666 18.2134 15.155 17.8475 14.8348 17.4816C14.789 17.3901 14.6975 17.3443 14.6518 17.2986C14.5146 17.1614 14.4231 17.0241 14.2859 16.8869C14.2401 16.8412 14.1944 16.8412 14.1486 16.7954C14.1029 16.7497 14.1029 16.7497 14.1029 16.7497C13.9199 16.6125 13.6912 16.521 13.4625 16.521C13.1881 16.521 12.9594 16.6125 12.8221 16.8412C12.5477 17.2529 12.6392 17.8018 13.0051 18.1219C13.0508 18.1219 13.0508 18.1677 13.0508 18.1677C13.0508 18.1677 13.1423 18.2592 13.1881 18.2592C13.3253 18.3507 13.5083 18.4421 13.6912 18.5336C13.7827 18.5794 13.8742 18.6251 13.9657 18.6709C14.4231 18.9453 14.8805 19.2198 15.2464 19.5857C15.3379 19.6772 15.4294 19.8601 15.3837 19.9974V19.9516L15.6581 20.2261C15.6124 20.3176 15.5666 20.3633 15.5209 20.4548C14.1029 22.6961 13.5083 25.3491 13.9199 27.9564L13.554 28.0479C13.554 28.0937 13.5083 28.0937 13.5083 28.0937C13.4625 28.2309 13.3253 28.3224 13.1881 28.4138C12.6849 28.5511 12.1817 28.6426 11.6328 28.6883C11.5414 28.6883 11.4499 28.6883 11.3584 28.734C11.1754 28.734 10.9925 28.7798 10.8095 28.7798C10.7638 28.7798 10.718 28.8255 10.6265 28.8255C10.5808 28.8255 10.5808 28.8255 10.535 28.8713C10.0319 28.9627 9.71168 29.4202 9.80318 29.9233C9.89468 30.335 10.3063 30.6095 10.718 30.5637C10.8095 30.5637 10.8552 30.5637 10.9467 30.518C10.9925 30.518 10.9925 30.518 10.9925 30.4722C10.9925 30.4265 11.1297 30.4722 11.1754 30.4722C11.3584 30.4265 11.5414 30.335 11.6786 30.2893C11.7701 30.2435 11.8616 30.1978 11.953 30.1978H11.9988C12.5019 30.0148 12.9594 29.8776 13.5083 29.7861H13.554C13.6912 29.7861 13.8284 29.8318 13.9199 29.9233C13.9657 29.9233 13.9657 29.9691 13.9657 29.9691L14.3774 29.9233C15.0635 32.0274 16.3442 33.9029 18.1282 35.2751C18.5398 35.5953 18.9058 35.8698 19.3632 36.0985L19.1345 36.4187C19.1345 36.4644 19.1802 36.4644 19.1802 36.4644C19.2717 36.6016 19.2717 36.7846 19.226 36.9218C19.043 37.3792 18.7686 37.8367 18.4941 38.2483V38.2941C18.4484 38.3856 18.4026 38.4313 18.3111 38.5228C18.2197 38.6143 18.1282 38.7972 17.9909 38.9802C17.9452 39.0259 17.9452 39.0717 17.8995 39.1174C17.8995 39.1174 17.8995 39.1632 17.8537 39.1632C17.625 39.6206 17.808 40.1695 18.2197 40.3982C18.3111 40.4439 18.4484 40.4897 18.5399 40.4897C18.9058 40.4897 19.226 40.261 19.4089 39.9408C19.4089 39.9408 19.4089 39.895 19.4547 39.895C19.4547 39.8493 19.5004 39.8035 19.5462 39.7578C19.5919 39.5748 19.6834 39.4376 19.7291 39.2546L19.8206 38.9802C19.9578 38.477 20.1866 38.0196 20.4153 37.5622C20.5067 37.425 20.644 37.3335 20.7812 37.2878C20.8269 37.2878 20.8269 37.2878 20.8269 37.242L21.0099 36.8761C22.2907 37.3792 23.6172 37.6079 24.9894 37.6079C25.8128 37.6079 26.6361 37.5165 27.4595 37.2878C27.9627 37.1963 28.4658 37.0133 28.9232 36.8761L29.1062 37.1963C29.1519 37.1963 29.1519 37.1963 29.1519 37.242C29.2892 37.2878 29.4264 37.3792 29.5179 37.5165C29.7466 37.9739 29.9753 38.4313 30.1125 38.9345V38.9802L30.204 39.2546C30.2497 39.4376 30.2955 39.6206 30.387 39.7578C30.4327 39.8035 30.4327 39.8493 30.4784 39.895C30.4784 39.895 30.4784 39.9408 30.5242 39.9408C30.7072 40.261 31.0273 40.4897 31.3933 40.4897C31.5305 40.4897 31.622 40.4439 31.7592 40.3982C31.9422 40.3067 32.1252 40.1237 32.1709 39.895C32.2166 39.6663 32.2166 39.4376 32.1252 39.2089C32.1252 39.1632 32.0794 39.1632 32.0794 39.1632C32.0794 39.1174 32.0337 39.0717 31.9879 39.0259C31.8964 38.843 31.805 38.7057 31.6677 38.5685C31.622 38.477 31.5763 38.4313 31.4848 38.3398V38.2483C31.1646 37.8367 30.9359 37.3792 30.7529 36.9218C30.7072 36.7846 30.7072 36.6016 30.7986 36.4644C30.7986 36.4187 30.8444 36.4187 30.8444 36.4187L30.7072 36.0527C33.04 34.6347 34.8239 32.4391 35.6473 29.8318L36.0132 29.8776C36.0589 29.8776 36.0589 29.8318 36.0589 29.8318C36.1504 29.7404 36.2877 29.6946 36.4249 29.6946H36.4706C36.9738 29.7861 37.4769 29.9233 37.9344 30.1063H37.9801C38.0716 30.152 38.1631 30.1978 38.2545 30.1978C38.4375 30.2893 38.5747 30.3807 38.7577 30.4265C38.8034 30.4265 38.8492 30.4722 38.9407 30.4722C38.9864 30.4722 38.9864 30.4722 39.0322 30.518C39.1236 30.5637 39.1694 30.5637 39.2609 30.5637C39.6725 30.5637 40.0385 30.2893 40.1757 29.9233C40.13 29.4202 39.764 29.0542 39.3524 28.9627ZM26.133 27.5448L24.898 28.1394L23.6629 27.5448L23.3427 26.2182L24.2118 25.1204H25.5841L26.4532 26.2182L26.133 27.5448ZM33.5889 24.5715C33.8176 25.5321 33.8633 26.4927 33.7719 27.4533L29.4264 26.2182C29.0147 26.1268 28.786 25.7151 28.8775 25.3034C28.9232 25.1662 28.969 25.0747 29.0605 24.9832L32.4911 21.8728C32.9942 22.6961 33.3602 23.611 33.5889 24.5715ZM31.1188 20.1803L27.368 22.8334C27.0478 23.0163 26.5904 22.9706 26.3617 22.6504C26.2702 22.5589 26.2245 22.4674 26.2245 22.3302L25.95 17.7103C27.9627 17.939 29.7466 18.8081 31.1188 20.1803ZM22.8396 17.8475L23.7544 17.6645L23.5257 22.2387C23.5257 22.6504 23.1598 22.9706 22.7481 22.9706C22.6109 22.9706 22.5194 22.9248 22.3822 22.8791L18.5856 20.1803C19.7749 19.0368 21.2386 18.2134 22.8396 17.8475ZM17.2591 21.8728L20.644 24.8917C20.9642 25.1662 21.0099 25.6236 20.7355 25.9438C20.644 26.081 20.5525 26.1268 20.3695 26.1725L15.9326 27.4533C15.7953 25.5321 16.2528 23.5652 17.2591 21.8728ZM16.4815 29.6031L21.0099 28.8255C21.3758 28.8255 21.7418 29.0542 21.7875 29.4202C21.8333 29.5574 21.8333 29.7404 21.7418 29.8776L20.0036 34.0858C18.4026 33.0338 17.1219 31.4328 16.4815 29.6031ZM26.8648 35.2751C26.2245 35.4123 25.5841 35.5038 24.898 35.5038C23.9374 35.5038 22.9311 35.3209 22.0162 35.0464L24.2576 30.9754C24.4863 30.7009 24.8522 30.6095 25.1724 30.7924C25.3096 30.8839 25.4011 30.9754 25.5383 31.1126L27.7339 35.0921C27.4595 35.1379 27.185 35.1836 26.8648 35.2751ZM32.4453 31.2956C31.7592 32.3934 30.7986 33.354 29.7008 34.0401L27.9169 29.7404C27.8254 29.3744 28.0084 29.0085 28.3286 28.8713C28.4658 28.8255 28.603 28.7798 28.7403 28.7798L33.3144 29.5574C33.0857 30.1978 32.8113 30.7924 32.4453 31.2956Z" fill="white"/>
</svg>
