<svg width="50" height="50" viewBox="0 0 50 50" fill="none" xmlns="http://www.w3.org/2000/svg">
<path d="M44.4415 22.5354C44.4818 22.5354 44.5222 22.5354 44.5451 22.4951C44.5509 22.4778 44.5566 22.4606 44.5566 22.4432C44.5566 22.4087 44.5394 22.38 44.5106 22.3627C44.4818 22.3512 44.4531 22.3512 44.3897 22.3512H44.3609V22.5297H44.4415V22.5354ZM44.3897 22.2533C44.476 22.2533 44.5163 22.2533 44.5509 22.2706C44.6661 22.3052 44.6776 22.4087 44.6776 22.4432C44.6776 22.4491 44.6776 22.4721 44.6718 22.4951C44.6661 22.5182 44.6545 22.5642 44.5913 22.6045C44.5797 22.6102 44.5797 22.6102 44.5623 22.616L44.7064 22.8809H44.5682L44.4415 22.639H44.3609V22.8809H44.2342V22.2533H44.3897ZM44.4415 23.1399C44.7524 23.1399 45 22.8866 45 22.5814C45 22.2706 44.7524 22.0231 44.4415 22.0231C44.1364 22.0231 43.8889 22.2706 43.8889 22.5814C43.8889 22.8866 44.1364 23.1399 44.4415 23.1399ZM44.004 22.5814C44.004 22.3397 44.1997 22.1382 44.4415 22.1382C44.689 22.1382 44.8847 22.3397 44.8847 22.5814C44.8847 22.8175 44.6833 23.0189 44.4415 23.0189C44.2054 23.0189 44.004 22.8175 44.004 22.5814ZM40.1237 26.1336C39.3868 26.1336 38.7708 25.6384 38.5809 24.9649H42.6568L43.221 24.0898H38.575C38.7593 23.4163 39.3868 22.9154 40.118 22.9154H42.9274L43.4858 22.0403H40.0546C38.6788 22.0403 37.5676 23.1514 37.5676 24.5216C37.5676 25.8917 38.6788 27.0028 40.0546 27.0028H43.0023L43.5606 26.1278H40.118L40.1237 26.1336ZM28.4427 27.0087C27.0724 27.0087 25.9615 25.8975 25.9615 24.5273C25.9615 23.1571 27.0724 22.046 28.4427 22.046H31.8738L31.3096 22.9211H28.5003C27.6137 22.9211 26.8941 23.6408 26.8941 24.5273C26.8941 25.4139 27.6137 26.1336 28.5003 26.1336H31.9429L31.3787 27.0087H28.4312H28.4427ZM10.308 26.1336C11.1946 26.1336 11.9199 25.4139 11.9199 24.5273C11.9199 23.6408 11.2003 22.9211 10.308 22.9211H7.55036C6.66377 22.9211 5.94415 23.6408 5.94415 24.5273C5.94415 25.4139 6.66377 26.1336 7.55036 26.1336H10.308ZM7.4871 27.0087C6.11112 27.0087 5 25.8975 5 24.5273C5 23.1571 6.11112 22.046 7.4871 22.046H10.3713C11.7415 22.046 12.8527 23.1571 12.8527 24.5273C12.8527 25.8975 11.7415 27.0087 10.3713 27.0087H7.4871ZM17.5388 25.4025C18.4715 25.4025 19.2199 24.6482 19.2199 23.7213C19.2199 22.7944 18.4715 22.0403 17.5388 22.0403H13.3593V27.0087H14.3148V22.9154H17.4755C17.913 22.9154 18.2758 23.2781 18.2758 23.7213C18.2758 24.1647 17.913 24.5216 17.4755 24.5216H14.7813L17.6253 27.0087H19.0126L17.0956 25.4025H17.5274H17.5388ZM33.3361 26.1336V22.046H32.3863V26.5365C32.3863 26.6632 32.4323 26.7783 32.5245 26.8705C32.6165 26.9568 32.7432 27.0144 32.8757 27.0144H37.2337L37.7979 26.1393H33.342L33.3361 26.1336ZM21.6493 25.2584H24.1997L22.8526 23.088L20.3771 27.0144H19.2544L22.2597 22.3052C22.392 22.1151 22.6108 22 22.8526 22C23.0829 22 23.3017 22.1094 23.434 22.2936L26.4507 27.0144H25.3223L24.7928 26.1393H22.2135L21.6493 25.2643V25.2584Z" fill="#E32124"/>
</svg>
