<svg width="50" height="50" viewBox="0 0 50 50" fill="none" xmlns="http://www.w3.org/2000/svg">
<mask id="mask0_1265_1495" style="mask-type:luminance" maskUnits="userSpaceOnUse" x="6" y="5" width="38" height="40">
<path d="M43.792 5H6V45H43.792V5Z" fill="white"/>
</mask>
<g mask="url(#mask0_1265_1495)">
<path d="M42.2302 20.9864H29.6708C29.3681 20.9863 29.0778 20.866 28.8637 20.6519C28.6496 20.4379 28.5293 20.1476 28.5291 19.8449V6.7556C28.5291 5.7863 27.7431 5 26.7743 5H22.2909C21.3214 5 20.5359 5.7863 20.5359 6.7556V19.7656C20.5359 20.4406 19.9902 20.9892 19.3152 20.9922L15.1994 21.0118C14.5186 21.0155 13.9656 20.4632 13.9669 19.783L13.9924 6.7585C13.9946 5.7877 13.2084 5 12.2376 5H7.75793C6.78833 5 6.00293 5.7863 6.00293 6.7556V43.4074C6.00293 44.2685 6.70053 44.966 7.56083 44.966H42.2302C43.0913 44.966 43.7889 44.2685 43.7889 43.4074V22.5451C43.7889 21.684 43.0913 20.9864 42.2302 20.9864ZM36.3406 34.7477C36.3406 35.8762 35.4258 36.7911 34.2974 36.7911H30.7542C29.6256 36.7911 28.7108 35.8762 28.7108 34.7477V31.2046C28.7108 30.076 29.6256 29.1612 30.7542 29.1612H34.2974C35.4258 29.1612 36.3406 30.076 36.3406 31.2046V34.7477Z" fill="#FF6600"/>
</g>
</svg>
