<svg width="50" height="50" viewBox="0 0 50 50" fill="none" xmlns="http://www.w3.org/2000/svg">
<mask id="mask0_1265_1488" style="mask-type:luminance" maskUnits="userSpaceOnUse" x="13" y="5" width="25" height="40">
<path d="M37.64 5H13V45H37.64V5Z" fill="white"/>
</mask>
<g mask="url(#mask0_1265_1488)">
<path d="M32.4161 27.1362C30.8598 27.1362 29.4645 27.8257 28.509 28.9113L26.0606 27.178C26.3205 26.4624 26.4698 25.694 26.4698 24.8898C26.4698 24.0995 26.3257 23.344 26.0744 22.639L28.5173 20.9241C29.4727 22.0042 30.8643 22.69 32.4161 22.69C35.2887 22.69 37.6261 20.353 37.6261 17.48C37.6261 14.607 35.2887 12.27 32.4161 12.27C29.5435 12.27 27.2061 14.607 27.2061 17.48C27.2061 17.9942 27.2838 18.4901 27.4232 18.9597L24.9787 20.6755C23.9576 19.4087 22.4873 18.5241 20.8121 18.2541V15.308C23.1721 14.8123 24.9502 12.7155 24.9502 10.21C24.9502 7.337 22.6128 5 19.7402 5C16.8677 5 14.5302 7.337 14.5302 10.21C14.5302 12.6819 16.2624 14.7529 18.5752 15.2839V18.2684C15.4188 18.8224 13.0107 21.577 13.0107 24.8898C13.0107 28.2188 15.4427 30.9835 18.6218 31.5187V34.67C16.2853 35.1836 14.5302 37.2672 14.5302 39.756C14.5302 42.6289 16.8677 44.966 19.7402 44.966C22.6128 44.966 24.9502 42.6289 24.9502 39.756C24.9502 37.2672 23.1952 35.1836 20.8587 34.67V31.5186C22.4678 31.2475 23.9236 30.4009 24.9549 29.1363L27.4196 30.8808C27.2827 31.3462 27.2061 31.8371 27.2061 32.3462C27.2061 35.2191 29.5435 37.5562 32.4161 37.5562C35.2887 37.5562 37.6261 35.2191 37.6261 32.3462C37.6261 29.4732 35.2887 27.1362 32.4161 27.1362ZM32.4161 14.9539C33.8091 14.9539 34.9421 16.0874 34.9421 17.48C34.9421 18.8726 33.8091 20.006 32.4161 20.006C31.0231 20.006 29.8902 18.8726 29.8902 17.48C29.8902 16.0874 31.0231 14.9539 32.4161 14.9539ZM17.2142 10.21C17.2142 8.8174 18.3473 7.684 19.7402 7.684C21.1332 7.684 22.2662 8.8174 22.2662 10.21C22.2662 11.6026 21.1332 12.736 19.7402 12.736C18.3473 12.736 17.2142 11.6026 17.2142 10.21ZM22.2662 39.756C22.2662 41.1486 21.1332 42.2819 19.7402 42.2819C18.3473 42.2819 17.2142 41.1486 17.2142 39.756C17.2142 38.3634 18.3473 37.23 19.7402 37.23C21.1332 37.23 22.2662 38.3634 22.2662 39.756ZM19.7401 28.4127C17.7973 28.4127 16.2168 26.8325 16.2168 24.8898C16.2168 22.947 17.7973 21.3665 19.7401 21.3665C21.6827 21.3665 23.2632 22.947 23.2632 24.8898C23.2632 26.8325 21.6827 28.4127 19.7401 28.4127ZM32.4161 34.8722C31.0231 34.8722 29.8902 33.7388 29.8902 32.3462C29.8902 30.9536 31.0231 29.8202 32.4161 29.8202C33.8091 29.8202 34.9421 30.9536 34.9421 32.3462C34.9421 33.7388 33.8091 34.8722 32.4161 34.8722Z" fill="#231F20"/>
</g>
</svg>
