<svg width="50" height="50" viewBox="0 0 50 50" fill="none" xmlns="http://www.w3.org/2000/svg">
<mask id="mask0_1265_1473" style="mask-type:luminance" maskUnits="userSpaceOnUse" x="5" y="8" width="40" height="35">
<path d="M45 8H5V42.368H45V8Z" fill="white"/>
</mask>
<g mask="url(#mask0_1265_1473)">
<path d="M43.425 34.3923C41.2907 35.5047 30.2349 40.0505 27.8811 41.2776C25.5274 42.5049 24.2198 42.493 22.3604 41.6041C20.5011 40.7152 8.7356 35.9627 6.6162 34.9496C5.5571 34.4435 5 34.0161 5 33.6124V29.5701C5 29.5701 20.3172 26.2356 22.79 25.3484C25.2626 24.4612 26.1205 24.4292 28.2248 25.2C30.3294 25.9711 42.9121 28.2413 44.9919 29.003L44.9909 32.9882C44.9912 33.3878 44.5113 33.8261 43.425 34.3923Z" fill="#912626"/>
<path d="M43.4232 30.374C41.2891 31.486 30.2335 36.0319 27.8798 37.2589C25.5262 38.4863 24.2187 38.4743 22.3594 37.5854C20.4999 36.6971 8.735 31.9439 6.6157 30.9314C4.4964 29.9183 4.4521 29.2211 6.5338 28.406C8.6156 27.5905 20.316 23.0001 22.7891 22.1129C25.2618 21.2261 26.1195 21.1937 28.2238 21.9648C30.3282 22.7356 41.3179 27.1099 43.3973 27.8714C45.4775 28.6339 45.5573 29.2618 43.4232 30.374Z" fill="#C6302B"/>
<path d="M43.425 27.8511C41.2907 28.9637 30.2349 33.5093 27.8811 34.7369C25.5274 35.9636 24.2198 35.9518 22.3604 35.0629C20.5009 34.1745 8.7356 29.4215 6.6162 28.4085C5.5571 27.9023 5 27.4755 5 27.0717V23.0289C5 23.0289 20.3172 19.6946 22.79 18.8075C25.2626 17.9203 26.1205 17.8881 28.2248 18.659C30.3295 19.43 42.9123 21.6997 44.9919 22.4616L44.9909 26.4472C44.9912 26.8466 44.5113 27.2849 43.425 27.8511Z" fill="#912626"/>
<path d="M43.4232 23.8337C41.2891 24.9459 30.2335 29.4916 27.8798 30.719C25.5262 31.9459 24.2187 31.9339 22.3594 31.045C20.4999 30.1568 8.735 25.4037 6.6157 24.3911C4.4964 23.3783 4.4521 22.6809 6.5338 21.8655C8.6156 21.0505 20.3162 16.4597 22.7891 15.5727C25.2618 14.6857 26.1195 14.6535 28.2238 15.4244C30.3282 16.1952 41.3179 20.5692 43.3973 21.3311C45.4775 22.0934 45.5573 22.7214 43.4232 23.8337Z" fill="#C6302B"/>
<path d="M43.425 21.0685C41.2907 22.1808 30.2349 26.7268 27.8811 27.9543C25.5274 29.1813 24.2198 29.1692 22.3604 28.2803C20.5009 27.3919 8.7356 22.6388 6.6162 21.6262C5.5571 21.1196 5 20.6927 5 20.2893V16.2464C5 16.2464 20.3172 12.9122 22.79 12.0252C25.2626 11.1379 26.1205 11.106 28.2248 11.8768C30.3295 12.6478 42.9123 14.9174 44.9919 15.6793L44.9909 19.6648C44.9912 20.0639 44.5113 20.5022 43.425 21.0685Z" fill="#912626"/>
<path d="M43.4241 17.0488C41.29 18.1611 30.2344 22.707 27.8807 23.934C25.5271 25.1609 24.2196 25.1489 22.3603 24.2605C20.501 23.3716 8.73592 18.6188 6.61682 17.606C4.49732 16.5934 4.45312 15.8959 6.53472 15.0806C8.61652 14.2655 20.3171 9.6753 22.79 8.788C25.2626 7.9008 26.1204 7.869 28.2247 8.6399C30.3291 9.4108 41.3187 13.7848 43.3982 14.5467C45.4784 15.3084 45.5582 15.9365 43.4241 17.0488Z" fill="#C6302B"/>
<path d="M29.8839 13.1167L26.4455 13.4736L25.6758 15.3258L24.4326 13.259L20.4623 12.9022L23.4248 11.8338L22.5359 10.1938L25.3096 11.2786L27.9244 10.4226L27.2177 12.1183L29.8839 13.1167ZM25.4705 22.102L19.0535 19.4406L28.2486 18.0291L25.4705 22.102ZM16.5738 14.1462C19.2881 14.1462 21.4885 14.9991 21.4885 16.0511C21.4885 17.1034 19.2881 17.9562 16.5738 17.9562C13.8595 17.9562 11.6592 17.1032 11.6592 16.0511C11.6592 14.9991 13.8595 14.1462 16.5738 14.1462Z" fill="white"/>
<path d="M33.9473 13.6242L39.3893 15.7747L33.952 17.9231L33.9473 13.6242Z" fill="#621B1C"/>
<path d="M27.9258 16.0058L33.9464 13.6243L33.9511 17.9232L33.3608 18.1541L27.9258 16.0058Z" fill="#9A2928"/>
</g>
</svg>
