<svg width="50" height="50" viewBox="0 0 50 50" fill="none" xmlns="http://www.w3.org/2000/svg">
<path d="M40.8567 26.0761L41.8413 38.6403L24.4138 41.7677L22.9136 29.2034L25.4033 28.8559C25.8084 29.0296 26.0984 29.0871 26.5616 29.2034C27.3142 29.3771 28.1831 29.6085 29.4558 28.914C29.7451 28.7402 30.3821 28.2189 30.6141 27.8719L40.8567 26.0761ZM13.9323 41.0157C13.6429 40.5531 13.1216 40.0311 12.3109 39.3943C11.1525 38.4678 11.5583 36.8464 12.2527 35.8625C13.1278 34.1835 17.6953 31.9832 17.4641 29.2615C17.3484 28.277 17.2328 27.0031 16.3058 26.0767C16.2476 26.4242 16.3058 26.7718 16.3058 26.7718C16.3058 26.7718 15.9007 26.3092 15.727 25.6135C15.5531 25.3823 15.3794 25.266 15.2056 24.9184C15.09 25.3235 15.09 25.7291 15.09 25.7291C15.09 25.7291 14.8005 24.9765 14.7424 24.3977C14.5687 24.6872 14.5112 25.2085 14.5112 25.2085C14.5112 25.2085 14.1061 24.0502 14.2218 23.4145C14.0479 22.8931 13.4692 21.793 13.6429 19.3614C14.6274 20.0565 16.8277 19.8827 17.6959 18.6088C17.9854 18.2038 18.1585 17.0461 17.5803 14.787C17.1753 13.3393 16.1907 11.1971 15.7864 10.3864L15.7282 10.4445C15.9595 11.0821 16.3658 12.4711 16.539 13.1662C17.0016 15.1926 17.1766 15.8877 16.944 16.8142C16.7702 17.6249 16.3065 18.1456 15.0913 18.725C13.9329 19.3039 12.3121 17.8499 12.2534 17.7987C11.095 16.8723 10.2268 15.3609 10.1112 14.672C9.99556 13.8613 10.5737 13.3981 10.8638 12.7611C10.4587 12.8767 9.98866 13.1086 9.98866 13.1086C9.98866 13.1086 10.5099 12.5298 11.2044 12.0666C11.4685 11.9126 11.7201 11.7383 11.957 11.5453H11.2119C11.2119 11.5453 11.907 11.1403 12.6596 10.9077H11.6183L14.3974 9.69186C15.2725 9.34431 16.0764 9.46063 16.5396 10.0969C17.1772 10.972 17.8135 11.4284 19.145 11.776C19.9557 11.4284 20.2451 11.1971 21.2872 10.9008C22.2135 9.85878 22.9661 9.74257 22.9661 9.74257C22.9661 9.74257 22.4448 10.2051 22.3873 10.727C22.9086 10.322 23.4875 9.9744 23.4875 9.9744C23.4875 9.9744 23.2561 10.2638 23.0824 10.6695L23.1405 10.7277C23.7781 10.3802 24.4719 10.0901 24.4719 10.0901C24.4719 10.0901 24.2407 10.3214 24.0093 10.6689C24.4719 10.6689 25.3989 10.6689 25.7471 10.727C27.8893 10.7852 28.3525 8.46859 29.1633 8.12164C30.2052 7.77409 30.6685 7.54286 32.4055 9.28C33.9107 10.7852 35.0684 13.3912 34.4902 13.97C34.0277 14.4325 33.0425 13.7962 31.9424 12.4648C31.3636 11.7697 30.9578 10.902 30.7266 9.85938C30.611 8.98426 29.974 8.46989 29.974 8.46989C29.974 8.46989 30.379 9.34501 30.379 10.0913C30.379 10.4964 30.4371 12.0022 31.0741 12.8705C31.016 12.9861 30.9585 13.5081 30.9003 13.5656C30.1477 12.6392 28.4625 12.0029 28.2374 11.7716C29.1639 12.5242 31.2486 14.2094 32.0593 15.8246C32.8119 17.3873 32.3487 18.7775 32.7544 19.1251C32.87 19.2407 34.3758 21.0942 34.6652 22.078C35.1866 23.757 34.7233 25.4941 34.0277 26.5361L32.1749 26.8256C31.9329 26.7836 31.6986 26.7054 31.4798 26.5936C31.5954 26.3624 31.8849 25.7829 31.8849 25.6673L31.7692 25.4935C31.1904 26.3042 30.2065 27.115 29.3951 27.5782C28.3532 28.157 27.1367 28.0995 26.3322 27.8094C24.0738 27.1143 21.9315 25.6091 21.469 25.204C21.469 25.204 21.469 25.4935 21.5272 25.6091C22.4648 26.5959 23.5141 27.4703 24.6538 28.2145L21.991 28.5039L23.2649 38.3472C22.6861 38.4053 22.6273 38.4628 21.991 38.5784C21.4697 36.6676 20.4282 35.4518 19.2694 34.6992C18.2848 34.0616 16.8952 33.8885 15.5638 34.1778L15.5056 34.2935C16.4321 34.1778 17.5322 34.3516 18.6324 35.0461C19.7325 35.7405 20.6014 37.5358 20.9483 38.5778C21.3534 39.9674 21.6434 41.4157 20.5433 42.9785C19.7325 44.0786 17.4166 44.7162 15.5638 43.3835C16.0851 44.1942 16.7221 44.8312 17.6484 44.9462C18.9799 45.1201 20.2538 44.8881 21.1802 44.0199C21.9328 43.2673 22.3385 41.6458 22.2223 39.9086L23.4381 39.7349L23.8431 42.7978L43.579 40.4425L41.8413 24.6934L40.8567 24.8672L38.8883 5L6 8.82174L10.0531 41.5939L13.9323 41.0157Z" fill="#5C2D90"/>
<path d="M29.581 23.7898C30.4561 24.4274 31.2024 24.8317 31.955 24.7742C32.4176 24.7161 32.8815 23.9635 33.1708 23.269C33.4021 22.8064 33.4021 22.2846 33.0552 22.1107C32.8815 22.0526 32.1801 22.0526 31.6656 22.1107C30.6811 22.2263 29.6966 22.5733 29.4653 22.7483C29.1177 22.9797 29.2915 23.5584 29.581 23.7898ZM29.8122 17.0144V17.0725L29.8703 17.1881C30.1017 17.6507 30.3329 18.1146 30.7968 18.3465C30.9124 18.3465 31.028 18.2883 31.1443 18.2883C31.5494 18.2883 31.7819 18.3465 31.955 18.404V18.0565C31.8969 17.4776 32.0706 16.4349 30.913 15.8562C30.4504 15.6248 29.871 15.7404 29.6391 15.9718H29.7547C30.0442 16.0874 29.8703 16.203 29.8128 16.3193C29.7547 16.5506 29.6966 16.6088 29.8122 17.0144Z" fill="#5C2D90"/>
<path d="M24.5995 17.1312C24.889 16.9 23.2682 16.5524 21.9942 17.3626C21.0679 18.0001 21.0678 19.3316 21.9361 20.0842C22.0232 20.1274 22.1016 20.1863 22.1673 20.258C22.3986 20.1423 22.7462 20.0267 23.0424 19.9104C23.6213 19.7367 24.0845 19.621 24.4901 19.5629C24.664 19.3316 24.8952 18.984 24.8377 18.3471C24.7796 17.472 24.0851 17.652 24.6064 17.1312H24.5995ZM34.044 31.1958L31.2649 35.8215L28.0225 34.8369L25.1846 39.1794L25.3002 40.5689L40.8181 37.731L39.8917 28.061L37.3438 33.3879L34.044 31.1958Z" fill="#5C2D90"/>
</svg>
