<svg width="100" height="100" viewBox="0 0 100 100" fill="none" xmlns="http://www.w3.org/2000/svg">
<path d="M45.4431 80.3018C45.6984 79.9613 45.8308 79.5443 45.8188 79.1189C45.8067 78.6935 45.6509 78.2847 45.3768 77.9592L22.0404 54.6228C21.715 54.3484 21.3062 54.1925 20.8807 54.1805C20.4552 54.1685 20.0383 54.301 19.6979 54.5566L12.2064 57.8492C11.9756 57.9541 11.7734 58.1128 11.6166 58.312C11.4599 58.5112 11.3532 58.7451 11.3056 58.9941C11.2579 59.2431 11.2707 59.4998 11.3429 59.7428C11.415 59.9858 11.5444 60.208 11.7202 60.3906L39.609 88.2795C39.7917 88.4552 40.0138 88.5846 40.2568 88.6567C40.4998 88.7289 40.7566 88.7416 41.0056 88.694C41.2545 88.6464 41.4884 88.5397 41.6876 88.3829C41.8868 88.2262 42.0455 88.024 42.1504 87.7932L45.4431 80.3018ZM71.7519 9.90563C73.9589 23.0248 83.8192 28.2249 93.232 28.4911C94.1219 21.9146 93.864 15.2337 92.4697 8.74543C92.4082 8.44614 92.2603 8.17147 92.0442 7.95543C91.8282 7.73938 91.5535 7.59147 91.2542 7.53C84.7661 6.13568 78.0852 5.87772 71.5088 6.7676C71.5374 7.81701 71.6185 8.86433 71.7519 9.90563Z" fill="black"/>
<path d="M78.2279 58.9433C85.5378 51.3783 90.553 41.8957 92.6917 31.5958C86.277 31.5102 80.1491 28.9239 75.6129 24.3875C71.0767 19.8512 68.4905 13.7233 68.4051 7.30859C45.5761 11.6565 29.3143 31.619 21.1133 51.043C22.2964 51.0799 23.4199 51.5704 24.2513 52.413L47.5877 75.7495C48.4303 76.5808 48.9209 77.7044 48.9579 78.8875C59.9721 74.3043 69.9328 67.5172 78.2279 58.9433ZM47.5435 52.4572C45.3199 50.2281 44.0712 47.2081 44.0712 44.0596C44.0712 40.9111 45.3199 37.8911 47.5435 35.662C59.0529 24.9433 75.0562 40.9523 64.3385 52.4573C62.1094 54.6808 59.0895 55.9295 55.941 55.9295C52.7925 55.9295 49.7725 54.6807 47.5435 52.4572Z" fill="black"/>
<path d="M62.1284 37.8719C53.6939 29.9504 41.8324 41.8156 49.7532 50.2473C58.1877 58.1686 70.0492 46.3033 62.1284 37.8719ZM38.9246 19.4855C39.2782 19.1541 39.6428 18.8115 40.0406 18.4579C30.3369 17.0965 20.4457 18.3515 11.3895 22.0932C6.18528 24.1435 7.0773 32.2268 12.6714 32.9658C16.9008 33.5899 20.9201 35.2151 24.3946 37.7061C28.3765 30.993 33.266 24.8616 38.9246 19.4855ZM77.8961 88.5999C81.6497 79.5507 82.9089 69.6608 81.5424 59.9597C75.9414 66.1059 69.4492 71.3763 62.2831 75.5947C64.782 79.0703 66.4112 83.0942 67.0344 87.3292C67.2189 88.5593 67.8031 89.6945 68.6968 90.5597C69.5905 91.4249 70.7441 91.9719 71.9795 92.1164C73.215 92.261 74.4637 91.995 75.5329 91.3594C76.6022 90.7239 77.4326 89.7542 77.8961 88.5999ZM11.0911 86.6994C10.8068 86.9942 10.6497 87.3889 10.6534 87.7984C10.6572 88.2079 10.8216 88.5996 11.1112 88.8892C11.4008 89.1788 11.7925 89.3431 12.202 89.3469C12.6115 89.3506 13.0062 89.1934 13.301 88.9092L24.5603 77.6499L22.3504 75.44L11.0911 86.6994ZM6.71544 73.5727C6.43102 73.8675 6.27372 74.2622 6.27741 74.6718C6.28109 75.0815 6.44546 75.4733 6.73514 75.7629C7.02482 76.0526 7.41665 76.2169 7.82629 76.2206C8.23592 76.2243 8.63062 76.0669 8.92542 75.7825L15.8092 68.8988L13.5992 66.6889L6.71544 73.5727ZM24.2178 91.075C23.9335 91.3698 23.7764 91.7645 23.7801 92.174C23.7839 92.5835 23.9483 92.9752 24.2379 93.2648C24.5275 93.5544 24.9192 93.7187 25.3287 93.7225C25.7382 93.7262 26.1329 93.5691 26.4277 93.2848L33.3114 86.4011L31.1015 84.1912L24.2178 91.075Z" fill="black"/>
</svg>
