<svg width="100" height="100" viewBox="0 0 100 100" fill="none" xmlns="http://www.w3.org/2000/svg">
<path d="M50 90.3516C72.2856 90.3516 90.3516 72.2856 90.3516 50C90.3516 27.7144 72.2856 9.64844 50 9.64844C27.7144 9.64844 9.64844 27.7144 9.64844 50C9.64844 72.2856 27.7144 90.3516 50 90.3516Z" fill="white"/>
<path d="M88.515 57.5977C90.2728 57.5977 91.679 59.0039 91.679 60.7617C91.679 62.5 90.2728 63.9258 88.515 63.9258C86.7767 63.9258 85.3509 62.5195 85.3509 60.7617C85.3509 59.0234 86.7571 57.5977 88.515 57.5977ZM35.7806 70.1953C36.015 70.4102 35.9368 70.8008 35.6243 70.8984L29.1009 73.0664C28.8079 73.1641 28.4954 72.9102 28.554 72.5977L29.2767 68.6914L29.8431 65.6055C29.9017 65.2734 30.2923 65.1563 30.5462 65.3711L35.7806 70.1953Z" fill="white"/>
<path d="M74.7852 68.7305L71.4258 74.0039L66.1523 70.6445L69.5117 65.3711L72.1094 67.0312L74.7852 68.7305Z" fill="white"/>
<path d="M72.4805 27.1094C73.9844 28.6133 73.9844 31.0742 72.4805 32.5977C70.9766 34.1016 68.5156 34.1016 66.9922 32.5977C65.6445 31.25 65.4883 29.1406 66.5625 27.6367C66.6797 27.4609 66.8359 27.2852 66.9922 27.1289C68.4961 25.5859 70.957 25.586 72.4805 27.1094ZM11.4844 35.7227C13.2227 35.7227 14.6484 37.1289 14.6484 38.8867C14.6484 40.625 13.2422 42.0508 11.4844 42.0508C9.72656 42.0508 8.32031 40.6445 8.32031 38.8867C8.32031 37.1289 9.74609 35.7227 11.4844 35.7227Z" fill="white"/>
<path d="M32.1875 26.2305L34.3164 29.9023L32.1875 33.5937H27.9297L27.6953 33.2031L25.8008 29.9023L27.9297 26.2305H32.1875Z" fill="white"/>
<path d="M87.4609 63.9844C81.7773 79.2578 67.0703 90.1563 49.8047 90.1563C27.6172 90.1563 9.64844 72.168 9.64844 50M12.3242 35.5664C18.125 20.5078 32.7148 9.84375 49.8047 9.84375C71.9922 9.84375 89.9609 27.832 89.9609 50M14.6484 38.8867C14.6484 40.625 13.2422 42.0508 11.4844 42.0508C9.72656 42.0508 8.32031 40.6445 8.32031 38.8867C8.32031 37.1289 9.72656 35.7227 11.4844 35.7227C13.2422 35.7227 14.6484 37.1289 14.6484 38.8867ZM91.6797 60.7617C91.6797 62.5 90.2734 63.9258 88.5156 63.9258C86.7773 63.9258 85.3516 62.5195 85.3516 60.7617C85.3516 59.0039 86.7578 57.5977 88.5156 57.5977C90.2539 57.5977 91.6797 59.0234 91.6797 60.7617Z" stroke="black" stroke-width="4" stroke-miterlimit="10" stroke-linecap="round" stroke-linejoin="round"/>
<path d="M29.2969 68.6911C24.8242 63.7497 22.1094 57.1872 22.0898 49.9997C22.0898 43.6911 24.1797 37.8903 27.6953 33.2028M63.4766 74.4528C59.4727 76.6599 54.8828 77.9099 50 77.9099C44.9805 77.9099 40.293 76.5817 36.2305 74.2575M74.4922 36.6989C76.4844 40.3122 77.6953 44.3747 77.8906 48.6716C78.2031 55.5857 76.0156 61.9919 72.1289 67.0114M37.0117 25.2927C41.25 23.0661 46.1328 21.8942 51.3086 22.1286C56.9727 22.3825 62.2266 24.3942 66.543 27.6169M72.4805 32.5974C70.9766 34.1013 68.5156 34.1013 66.9922 32.5974C65.6445 31.2497 65.4883 29.1403 66.5625 27.6364C66.6797 27.4607 66.8359 27.2849 66.9922 27.1286C68.4961 25.6247 70.957 25.6247 72.4805 27.1286C73.9844 28.613 73.9844 31.0739 72.4805 32.5974Z" stroke="black" stroke-width="4" stroke-miterlimit="10" stroke-linecap="round" stroke-linejoin="round"/>
<path d="M28.5544 72.5974L29.2771 68.6911L29.8435 65.6052C29.9021 65.2732 30.2927 65.156 30.5466 65.3708L35.7614 70.195C35.9958 70.4099 35.9177 70.8005 35.6052 70.8982L29.1013 73.0661C28.7888 73.1638 28.4958 72.9099 28.5544 72.5974Z" stroke="black" stroke-width="4" stroke-miterlimit="10" stroke-linecap="round" stroke-linejoin="round"/>
<path d="M71.4258 74.0039L66.1523 70.6445L69.5117 65.3711L72.1094 67.0312L74.7852 68.7305L71.4258 74.0039Z" stroke="black" stroke-width="4" stroke-miterlimit="10" stroke-linecap="round" stroke-linejoin="round"/>
<path d="M32.1875 26.2305H27.9297L25.8008 29.9023L27.6953 33.2031L27.9297 33.5937H32.1875L34.3164 29.9023L32.1875 26.2305Z" stroke="black" stroke-width="4" stroke-miterlimit="10" stroke-linecap="round" stroke-linejoin="round"/>
<path d="M53.7109 36.9922L52.5586 33.7109C50.0195 33.7109 50.0195 33.7109 47.4609 33.7109L46.3086 36.9922C45.293 37.2656 44.3359 37.6758 43.4375 38.1641L40.3125 36.6797C38.5156 38.4766 38.4961 38.4961 36.6992 40.293L38.1836 43.418C37.6758 44.3164 37.2852 45.2734 37.0117 46.2891L33.7305 47.4414C33.7305 49.9805 33.7305 49.9805 33.7305 52.5391L37.0117 53.6914C37.2852 54.707 37.6953 55.6641 38.1836 56.5625L36.6992 59.6875C38.4961 61.4844 38.5156 61.5039 40.3125 63.3008L43.4375 61.8164C44.3359 62.3242 45.293 62.7148 46.3086 62.9883L47.4609 66.2695C50 66.2695 50 66.2695 52.5586 66.2695L53.7109 62.9883C54.7266 62.7148 55.6836 62.3047 56.582 61.8164L59.707 63.3008C61.5039 61.5039 61.5234 61.4844 63.3203 59.6875L61.8359 56.5625C62.3438 55.6641 62.7344 54.707 63.0078 53.6914L66.2891 52.5391C66.2891 50 66.2891 50 66.2891 47.4414L63.0078 46.2891C62.7344 45.2734 62.3242 44.3164 61.8359 43.418L63.3203 40.293C61.5234 38.4961 61.5039 38.4766 59.707 36.6797L56.582 38.1641C55.6836 37.6758 54.7266 37.2656 53.7109 36.9922Z" fill="white" stroke="black" stroke-width="4" stroke-miterlimit="10" stroke-linecap="round" stroke-linejoin="round"/>
<path d="M50 56.5039C53.592 56.5039 56.5039 53.592 56.5039 50C56.5039 46.408 53.592 43.4961 50 43.4961C46.408 43.4961 43.4961 46.408 43.4961 50C43.4961 53.592 46.408 56.5039 50 56.5039Z" stroke="black" stroke-width="4" stroke-miterlimit="10" stroke-linecap="round" stroke-linejoin="round"/>
<path d="M50 56.5039C53.592 56.5039 56.5039 53.592 56.5039 50C56.5039 46.408 53.592 43.4961 50 43.4961C46.408 43.4961 43.4961 46.408 43.4961 50C43.4961 53.592 46.408 56.5039 50 56.5039Z" fill="black" stroke="black" stroke-width="4" stroke-miterlimit="10" stroke-linecap="round" stroke-linejoin="round"/>
</svg>
