<svg width="100" height="77" viewBox="0 0 100 77" fill="none" xmlns="http://www.w3.org/2000/svg">
<g clip-path="url(#clip0_1997_1405)">
<path d="M95.4186 63.2902V55.9665C95.4186 55.5508 95.2534 55.152 94.9595 54.8581C94.6655 54.5641 94.2668 54.3989 93.851 54.3989H87.8566C87.4409 54.3989 87.0422 54.5641 86.7482 54.8581C86.4542 55.152 86.2891 55.5508 86.2891 55.9665V63.2902C86.2891 63.7059 86.4542 64.1047 86.7482 64.3986C87.0422 64.6926 87.4409 64.8578 87.8566 64.8578H93.851C94.2668 64.8578 94.6655 64.6926 94.9595 64.3986C95.2534 64.1047 95.4186 63.7059 95.4186 63.2902Z" fill="black"/>
<path d="M100.001 20.4448H95.4241V46.9211C95.4241 47.3368 95.2589 47.7355 94.9649 48.0295C94.6709 48.3235 94.2722 48.4886 93.8565 48.4886H87.859C87.4432 48.4886 87.0445 48.3235 86.7505 48.0295C86.4565 47.7355 86.2914 47.3368 86.2914 46.9211V20.4417H81.7109L90.853 3.24854L100.001 20.4448Z" fill="black"/>
<path d="M18.2904 33.5063H13.7131V59.9795C13.7131 60.3952 13.548 60.7939 13.254 61.0879C12.96 61.3819 12.5613 61.547 12.1455 61.547H6.14801C5.73227 61.547 5.33355 61.3819 5.03957 61.0879C4.7456 60.7939 4.58044 60.3952 4.58044 59.9795V33.5063H0L9.14208 16.3101L18.2904 33.5063Z" fill="black"/>
<path d="M74.0199 24.035C74.0278 29.6401 72.0659 35.0698 68.477 39.3752C67.085 41.0494 65.8654 42.8678 65.044 44.8931C63.5485 48.5299 61.6894 54.1888 62.4199 58.1924H37.5582C38.2479 54.38 36.5926 49.0691 35.1567 45.4198C34.26 43.1625 32.9401 41.1215 31.3851 39.2436C27.577 34.5957 25.6566 28.6854 26.0052 22.6869C26.6636 10.5288 36.696 0.584119 48.8541 0.0260631C52.1017 -0.12526 55.3462 0.383531 58.3916 1.52168C61.437 2.65983 64.2199 4.4037 66.5722 6.64787C68.9245 8.89204 70.7973 11.5899 72.0774 14.5784C73.3575 17.5669 74.0183 20.7839 74.0199 24.035Z" fill="#030201"/>
<path d="M61.4772 29.6595C61.41 29.5354 61.3188 29.4257 61.209 29.3369C61.0993 29.248 60.973 29.1818 60.8376 29.1419C60.7021 29.1019 60.5601 29.0892 60.4197 29.1043C60.2793 29.1194 60.1433 29.1622 60.0194 29.23L54.5956 32.1802L50.5669 29.6752C50.3949 29.5692 50.1968 29.5131 49.9948 29.5131C49.7927 29.5131 49.5947 29.5692 49.4226 29.6752L45.394 32.1802L39.9702 29.23C39.8463 29.1622 39.7103 29.1194 39.5699 29.1043C39.4295 29.0892 39.2875 29.1019 39.152 29.1419C39.0165 29.1818 38.8903 29.248 38.7805 29.3369C38.6708 29.4257 38.5796 29.5354 38.5123 29.6595C38.4437 29.7834 38.4005 29.9196 38.3852 30.0603C38.3698 30.2011 38.3827 30.3434 38.423 30.4792C38.4632 30.6149 38.5301 30.7412 38.6198 30.8508C38.7094 30.9603 38.8199 31.051 38.945 31.1174L44.466 34.1208L48.9273 58.1141C49.0245 58.6282 49.4728 58.9919 49.987 58.9919C50.5199 58.9919 50.9651 58.6282 51.0498 58.1141L55.5079 34.1208L61.0477 31.1174C61.2966 30.9797 61.4813 30.7494 61.5617 30.4766C61.6421 30.2037 61.6117 29.9102 61.4772 29.6595ZM49.987 52.0288L46.6229 33.9547L49.987 31.8667L53.3541 33.9359L49.987 52.0288Z" fill="white"/>
<path d="M65.3109 61.4433C65.3109 63.2398 63.8561 64.6976 62.0597 64.6976H37.9191C37.0569 64.6976 36.2299 64.3551 35.6202 63.7454C35.0105 63.1357 34.668 62.3087 34.668 61.4465C34.668 60.5842 35.0105 59.7573 35.6202 59.1475C36.2299 58.5378 37.0569 58.1953 37.9191 58.1953H62.0597C63.8561 58.1953 65.3109 59.65 65.3109 61.4433Z" fill="black"/>
<path d="M63.1154 67.9489C63.1154 69.7453 61.6575 71.2 59.8642 71.2H40.1222C39.26 71.2 38.433 70.8575 37.8233 70.2478C37.2136 69.6381 36.8711 68.8112 36.8711 67.9489C36.8711 67.0866 37.2136 66.2597 37.8233 65.65C38.433 65.0403 39.26 64.6978 40.1222 64.6978H59.8642C61.6575 64.6978 63.1154 66.1525 63.1154 67.9489Z" fill="black"/>
<path d="M57.7542 71.2002C57.7542 72.7246 57.1488 74.1866 56.0712 75.2649C54.9935 76.3431 53.5318 76.9492 52.0074 76.9501H47.9725C46.4481 76.9501 44.9861 76.3447 43.9079 75.2671C42.8296 74.1894 42.2235 72.7277 42.2227 71.2033H57.7542V71.2002Z" fill="#5B5E8B"/>
<path d="M42.3223 72.2722C42.251 71.9204 42.2164 71.5621 42.2189 71.2031H57.7504C57.7504 71.5699 57.7222 71.9211 57.6501 72.2722" fill="white"/>
<path d="M40.1642 65.2747C40.0727 64.9102 40.0282 64.539 40.0314 64.167H59.9708C59.9708 64.5471 59.9345 64.9109 59.842 65.2747" fill="white"/>
</g>
<defs>
<clipPath id="clip0_1997_1405">
<rect width="100" height="77" fill="white"/>
</clipPath>
</defs>
</svg>
