<svg width="100" height="100" viewBox="0 0 100 100" fill="none" xmlns="http://www.w3.org/2000/svg">
<path d="M60.4154 35.4165C60.4154 32.6538 59.3179 30.0043 57.3644 28.0508C55.4109 26.0973 52.7614 24.9998 49.9987 24.9998C47.236 24.9998 44.5865 26.0973 42.633 28.0508C40.6795 30.0043 39.582 32.6538 39.582 35.4165V39.5832C39.582 42.3458 40.6795 44.9954 42.633 46.9489C44.5865 48.9024 47.236 49.9998 49.9987 49.9998C52.7614 49.9998 55.4109 48.9024 57.3644 46.9489C59.3179 44.9954 60.4154 42.3458 60.4154 39.5832V35.4165ZM29.1654 72.9165V81.2498C29.1654 81.8024 29.3849 82.3323 29.7756 82.723C30.1663 83.1137 30.6962 83.3332 31.2487 83.3332H68.7487C69.3012 83.3332 69.8311 83.1137 70.2218 82.723C70.6125 82.3323 70.832 81.8024 70.832 81.2498V72.9165C70.8265 67.9454 68.8493 63.1795 65.3342 59.6643C61.8191 56.1492 57.0531 54.172 52.082 54.1665H47.9154C42.9442 54.172 38.1783 56.1492 34.6632 59.6643C31.1481 63.1795 29.1709 67.9454 29.1654 72.9165ZM24.9987 41.6665C27.7604 41.6632 30.408 40.5647 32.3607 38.6119C34.3135 36.6591 35.4121 34.0115 35.4154 31.2498V27.0832C35.4154 24.3205 34.3179 21.671 32.3644 19.7175C30.4109 17.764 27.7614 16.6665 24.9987 16.6665C22.236 16.6665 19.5865 17.764 17.633 19.7175C15.6795 21.671 14.582 24.3205 14.582 27.0832V31.2498C14.5853 34.0115 15.6839 36.6591 17.6367 38.6119C19.5894 40.5647 22.237 41.6632 24.9987 41.6665Z" fill="black"/>
<path d="M25.0013 72.9165C25.0021 68.1731 26.4757 63.5469 29.2186 59.677C31.9615 55.807 35.8384 52.8843 40.3138 51.3123C36.8049 47.8043 32.0464 45.8334 27.0846 45.8332H22.918C17.9475 45.8409 13.1829 47.8188 9.66824 51.3334C6.1536 54.8481 4.17568 59.6127 4.16797 64.5832V72.9165C4.16797 73.469 4.38746 73.9989 4.77816 74.3896C5.16886 74.7803 5.69877 74.9998 6.2513 74.9998H25.0013V72.9165ZM75.0013 41.6665C77.763 41.6632 80.4106 40.5647 82.3633 38.6119C84.3161 36.6591 85.4147 34.0115 85.418 31.2498V27.0832C85.418 24.3205 84.3205 21.671 82.367 19.7175C80.4135 17.764 77.764 16.6665 75.0013 16.6665C72.2386 16.6665 69.5891 17.764 67.6356 19.7175C65.6821 21.671 64.5846 24.3205 64.5846 27.0832V31.2498C64.5879 34.0115 65.6865 36.6591 67.6393 38.6119C69.592 40.5647 72.2396 41.6632 75.0013 41.6665ZM77.0846 45.8332H72.918C67.9562 45.8334 63.1977 47.8043 59.6888 51.3123C64.1642 52.8843 68.0411 55.807 70.784 59.677C73.5269 63.5469 75.0005 68.1731 75.0013 72.9165V74.9998H93.7513C94.3038 74.9998 94.8337 74.7803 95.2244 74.3896C95.6151 73.9989 95.8346 73.469 95.8346 72.9165V64.5832C95.8269 59.6127 93.849 54.8481 90.3344 51.3334C86.8197 47.8188 82.0551 45.8409 77.0846 45.8332Z" fill="black"/>
</svg>
