<svg xmlns="http://www.w3.org/2000/svg" viewBox="0 0 64 64"><path d="M32.88 12.0917a1.0023 1.0023 0 0 0-1.46-.36L7.03 28.5117l1.92 3.71 7.02 13.54 1.93 3.72 27.77-10.26a.9944.9944 0 0 0 .54-1.4zM36.86 15.4217v.01l8.93 17.22a10.1614 10.1614 0 0 0-8.93-17.23zM2.43 35.3417a1.0007 1.0007 0 0 0-.32 1.28l6.32 12.19a.99.99 0 0 0 .89.54 1.0157 1.0157 0 0 0 .34-.06l4.94-1.82-7.83-15.12zM31.36 46.6317l-9.16 3.39 5.85 10.14a1.0066 1.0066 0 0 0 .87.5.9458.9458 0 0 0 .46-.11l6.77-3.51a.9965.9965 0 0 0 .5-.6 1.034 1.034 0 0 0-.09-.79zM61.8879 13.3792a1 1 0 0 0-1.3476-.4278L50.384 18.2141a1 1 0 1 0 .92 1.7754L61.46 14.7268A1 1 0 0 0 61.8879 13.3792zM60.0383 31.1536L52.0432 28.616a1 1 0 0 0-.6054 1.9062L59.4329 33.06a1 1 0 0 0 .6054-1.9062zM42.5061 13.2874a.9986.9986 0 0 0 1.2559-.65L46.3 4.6414a1 1 0 0 0-1.9063-.6055l-2.5381 7.9956A1 1 0 0 0 42.5061 13.2874z"/></svg>