<svg xmlns="http://www.w3.org/2000/svg" viewBox="0 0 1792 1792"><path d="M420 1042q0-57.75-41.125-98.875T280 902q-57.75 0-98.875 41.125T140 1042q0 57.75 41.125 98.875T280 1182q57.75 0 98.875-41.125T420 1042Zm31.5-280h889l-77.875-312.375q-1.75-7-12.25-15.312Q1239.875 426 1232 426H560q-7.875 0-18.375 8.313-10.5 8.312-12.25 15.312zM1652 1042q0-57.75-41.125-98.875T1512 902q-57.75 0-98.875 41.125T1372 1042q0 57.75 41.125 98.875T1512 1182q57.75 0 98.875-41.125T1652 1042Zm140-84v336q0 12.25-7.875 20.125T1764 1322h-84v112q0 70-49 119t-119 49q-70 0-119-49t-49-119v-112H448v112q0 70-49 119t-119 49q-70 0-119-49t-49-119v-112H28q-12.25 0-20.125-7.875T0 1294V958q0-81.375 57.313-138.687Q114.624 762 196 762h24.5l91.875-366.625q20.125-82.25 91-137.812Q474.25 202 560 202h672q85.75 0 156.625 55.563 70.875 55.562 91 137.812L1571.5 762h24.5q81.375 0 138.688 57.313Q1792 876.625 1792 958Z"/></svg>