<svg xmlns="http://www.w3.org/2000/svg" viewBox="0 0 32 32"><g data-name="Layer 7"><path d="M17.13,1.08a1.66,1.66,0,0,0-2.26,0l-12,11.1H29.17ZM16,10.77a2.6,2.6,0,1,1,2.6-2.6A2.6,2.6,0,0,1,16,10.77Z"/><rect width="2.64" height="11.78" x="2.34" y="15.18"/><rect width="2.64" height="11.78" x="8.51" y="15.18"/><rect width="2.64" height="11.78" x="14.68" y="15.18"/><rect width="2.64" height="11.78" x="20.85" y="15.18"/><rect width="2.64" height="11.78" x="27.02" y="15.18"/><path d="M30.8 27.48H1.2a1 1 0 0 0-1 1v0a.94.94 0 0 0 1 .94H30.8a.94.94 0 0 0 1-.94v0A1 1 0 0 0 30.8 27.48zM3.46 29.94a.86.86 0 0 0-.06.33v.23a.85.85 0 0 0 .85.86H27.76a.85.85 0 0 0 .85-.86v-.23a.86.86 0 0 0-.06-.33zM30.8 12.71H1.2a1 1 0 0 0-1 1v0a.94.94 0 0 0 1 .94H30.8a.94.94 0 0 0 1-.94v0A1 1 0 0 0 30.8 12.71z"/></g></svg>