<svg xmlns="http://www.w3.org/2000/svg" enable-background="new 0 0 128 128" viewBox="0 0 128 128"><rect width="13.805" height="13.778" x="57.097" y="104.163"/><rect width="13.805" height="13.778" x="94.729" y="104.163"/><rect width="13.805" height="13.778" x="95.155" y="72.925"/><path d="M70.903,72.925H57.097v13.778h13.805L70.903,72.925L70.903,72.925z M68.957,78.548l-4.561,4.764
			c-0.311,0.324-0.73,0.492-1.152,0.492c-0.316,0-0.635-0.094-0.911-0.286l-2.013-1.401c-0.722-0.503-0.899-1.493-0.396-2.213
			s1.496-0.898,2.218-0.395l0.893,0.622l3.618-3.778c0.608-0.635,1.616-0.658,2.252-0.051
			C69.542,76.907,69.564,77.913,68.957,78.548z"/><rect width="13.805" height="13.778" x="57.097" y="41.687"/><rect width="13.805" height="13.778" x="95.155" y="41.687"/><path d="M28.06,20.597c2.505,0,4.543-2.034,4.543-4.533v-4.801V6.534c0-2.5-2.038-4.534-4.543-4.534s-4.543,2.034-4.543,4.534
			v4.729v4.801C23.517,18.563,25.555,20.597,28.06,20.597z"/><path d="M120.653,12.853h-15.799v3.211c0,4.253-3.467,7.713-7.729,7.713s-7.729-3.46-7.729-7.713v-3.211H35.789v3.211
			c0,4.253-3.467,7.713-7.729,7.713s-7.729-3.46-7.729-7.713v-3.211H7.347C5.501,12.853,4,14.268,4,16.008v14.375h120V16.008
			C124,14.268,122.499,12.853,120.653,12.853z"/><path d="M97.126,20.597c2.505,0,4.543-2.034,4.543-4.533v-4.801V6.534c0-2.5-2.038-4.534-4.543-4.534s-4.543,2.034-4.543,4.534
			v4.729v4.801C92.583,18.563,94.621,20.597,97.126,20.597z"/><rect width="13.805" height="13.778" x="19.04" y="41.687"/><rect width="13.805" height="13.778" x="19.04" y="104.163"/><rect width="13.805" height="13.778" x="19.04" y="72.925"/><path d="M4,125.47c0,0.292,0.238,0.53,0.531,0.53h118.938c0.293,0,0.531-0.238,0.531-0.53V33.563H4V125.47z M91.969,40.097
			c0-0.878,0.713-1.59,1.593-1.59h16.991c0.88,0,1.593,0.712,1.593,1.59v16.957c0,0.878-0.713,1.59-1.593,1.59H93.562
			c-0.88,0-1.593-0.712-1.593-1.59C91.969,57.054,91.969,40.097,91.969,40.097z M91.969,71.335c0-0.878,0.713-1.59,1.593-1.59
			h16.991c0.88,0,1.593,0.712,1.593,1.59v16.957c0,0.878-0.713,1.59-1.593,1.59H93.562c-0.88,0-1.593-0.712-1.593-1.59
			C91.969,88.292,91.969,71.335,91.969,71.335z M91.543,102.573c0-0.878,0.713-1.59,1.593-1.59h16.991
			c0.88,0,1.593,0.712,1.593,1.59v16.957c0,0.878-0.713,1.59-1.593,1.59H93.136c-0.88,0-1.593-0.712-1.593-1.59V102.573z
			 M53.911,40.097c0-0.878,0.713-1.59,1.593-1.59h16.991c0.88,0,1.593,0.712,1.593,1.59v16.957c0,0.878-0.713,1.59-1.593,1.59
			H55.504c-0.88,0-1.593-0.712-1.593-1.59C53.911,57.054,53.911,40.097,53.911,40.097z M53.911,71.335
			c0-0.878,0.713-1.59,1.593-1.59h16.991c0.88,0,1.593,0.712,1.593,1.59v16.957c0,0.878-0.713,1.59-1.593,1.59H55.504
			c-0.88,0-1.593-0.712-1.593-1.59C53.911,88.292,53.911,71.335,53.911,71.335z M53.911,102.573c0-0.878,0.713-1.59,1.593-1.59
			h16.991c0.88,0,1.593,0.712,1.593,1.59v16.957c0,0.878-0.713,1.59-1.593,1.59H55.504c-0.88,0-1.593-0.712-1.593-1.59
			C53.911,119.53,53.911,102.573,53.911,102.573z M15.854,40.097c0-0.878,0.713-1.59,1.593-1.59h16.991
			c0.88,0,1.593,0.712,1.593,1.59v16.957c0,0.878-0.713,1.59-1.593,1.59H17.447c-0.88,0-1.593-0.712-1.593-1.59V40.097z
			 M15.854,71.335c0-0.878,0.713-1.59,1.593-1.59h16.991c0.88,0,1.593,0.712,1.593,1.59v16.957c0,0.878-0.713,1.59-1.593,1.59
			H17.447c-0.88,0-1.593-0.712-1.593-1.59V71.335z M15.854,102.573c0-0.878,0.713-1.59,1.593-1.59h16.991
			c0.88,0,1.593,0.712,1.593,1.59v16.957c0,0.878-0.713,1.59-1.593,1.59H17.447c-0.88,0-1.593-0.712-1.593-1.59V102.573z"/></svg>