<svg xmlns="http://www.w3.org/2000/svg" viewBox="0 0 70 70"><path d="M54.935 15.7c-1.38 0-2.7.24-3.94.71a8.554 8.554 0 0 0-6.46-2.91c-1.04 0-2.08.2-3.04.56-2.12-6.41-8.16-10.81-14.99-10.81-7.74 0-14.35 5.66-15.57 13.24a11.128 11.128 0 0 0-7.02 10.34c0 6.14 5 11.14 11.14 11.14h3.11v-3.5c0-1.1.79-2.04 1.87-2.22l2.1-.35-1.24-1.74c-.64-.91-.54-2.13.24-2.9l3.91-3.89c.42-.42.99-.66 1.59-.66.47 0 .93.15 1.31.43l1.73 1.22.35-2.1a2.245 2.245 0 0 1 2.22-1.88h5.51c1.11 0 2.04.8 2.22 1.89l.35 2.09 1.73-1.23a2.248 2.248 0 0 1 2.9.24l3.9 3.89c.79.79.89 2.02.23 2.92l-1.23 1.72 2.12.35c1.08.18 1.87 1.12 1.87 2.22v3.5h3.09c6.14 0 11.15-5 11.15-11.14 0-6.14-5.01-11.13-11.15-11.13z"/><path d="M35 34.444c.561 0 1.017.454 1.017 1.01a.75.75 0 0 0 1.5 0 2.507 2.507 0 0 0-1.767-2.383v-.383a.75.75 0 0 0-1.5 0v.383a2.506 2.506 0 0 0-1.76 2.384A2.517 2.517 0 0 0 35 37.972c.561 0 1.017.454 1.017 1.01 0 .562-.456 1.018-1.017 1.018-.557 0-1.01-.456-1.01-1.017a.75.75 0 0 0-1.5 0c0 1.124.744 2.068 1.76 2.39v.383a.75.75 0 0 0 1.5 0v-.383a2.513 2.513 0 0 0 1.767-2.39c0-1.385-1.129-2.511-2.517-2.511a1.015 1.015 0 0 1 0-2.028z"/><path d="M51.955 58.74v-4.89c0-.2-.08-.39-.22-.53l-5.57-5.56 1.63-1.63c.26-.26.3-.67.09-.97l-1.9-2.66c.19-.4.36-.81.51-1.24l3.23-.54a.75.75 0 0 0 .62-.74v-5.51c0-.37-.26-.68-.62-.74l-3.23-.54c-.15-.43-.32-.85-.51-1.25l1.89-2.65c.22-.3.18-.71-.08-.97l-3.9-3.89a.758.758 0 0 0-.97-.08l-2.65 1.89c-.4-.19-.81-.37-1.24-.51l-.54-3.22a.743.743 0 0 0-.74-.63h-5.51c-.37 0-.68.27-.74.63l-.54 3.22c-.43.14-.84.32-1.24.51l-2.66-1.89a.745.745 0 0 0-.96.08l-3.91 3.89c-.26.26-.29.67-.08.97l1.9 2.65c-.19.4-.36.82-.51 1.25l-3.22.54c-.36.06-.62.37-.62.74v5.51c0 .36.26.68.62.74l3.22.54c.15.43.32.84.51 1.24l-1.9 2.66c-.21.3-.18.71.08.97l1.88 1.87-5.32 5.32a.75.75 0 0 0-.22.53v4.89c-1.87.35-3.29 2-3.29 3.97 0 2.23 1.81 4.04 4.04 4.04a4.04 4.04 0 0 0 4.03-4.04c0-1.96-1.42-3.61-3.28-3.97v-4.58l5.1-5.1.97.96c.26.26.67.29.97.08l2.65-1.9c.4.19.81.37 1.24.52l.54 3.21c.06.36.37.63.74.63h2.01v6.18c-1.87.35-3.29 2-3.29 3.97 0 2.23 1.81 4.04 4.04 4.04s4.04-1.81 4.04-4.04c0-1.97-1.42-3.62-3.29-3.97v-6.18h2c.37 0 .68-.27.74-.63l.55-3.21c.42-.15.83-.33 1.23-.52l2.65 1.9c.3.21.71.18.97-.08l1.21-1.2 5.35 5.34v4.58c-1.87.35-3.29 2-3.29 3.97 0 2.23 1.81 4.04 4.04 4.04 2.22 0 4.04-1.81 4.04-4.04 0-1.96-1.42-3.61-3.29-3.97zM35.006 45.749c-4.704 0-8.541-3.825-8.541-8.529s3.837-8.529 8.541-8.529 8.529 3.825 8.529 8.529-3.825 8.529-8.529 8.529z"/></svg>