<svg xmlns="http://www.w3.org/2000/svg" viewBox="0 0 64 64"><path d="M46.287 23.916v-3.454a2.5 2.5 0 0 0-2.495-2.495H39.44a2.497 2.497 0 0 0-2.495 2.495v3.892h-3.892a2.497 2.497 0 0 0-2.495 2.495v4.353c0 .56.188 1.083.509 1.5-4.515-4-11.992-11.351-11.992-16.187 0-5.808 4.706-10.514 10.514-10.514 1.747 0 3.39.792 4.839 1.548C35.876 6.793 37.523 6 39.27 6c5.809 0 10.515 4.706 10.515 10.514 0 2.142-1.47 4.78-3.498 7.4z"/><path d="M50.176 26.195h-5.731v-5.731a.653.653 0 0 0-.653-.653h-4.353a.653.653 0 0 0-.653.653v5.731h-5.731a.653.653 0 0 0-.653.653v4.353c0 .36.292.653.653.653h5.731v5.73c0 .362.292.654.653.654h4.353c.36 0 .653-.292.653-.653v-5.731h5.731c.36 0 .653-.293.653-.653v-4.353a.653.653 0 0 0-.653-.653zM61.443 46.16c-2.233 2.065-6.674 5.52-12.482 8.326-8.102 3.919-17.412 4.64-25.892 1.754a18.285 18.285 0 0 1-1.824-.754c-.817-.378-2.609-.97-5.16-.46a1.144 1.144 0 0 1-1.316-1.13V41.871c0-.6.468-1.088 1.068-1.134 1.285-.1 2.407-.42 3.262-.873 3.317-1.76 7.679-1.307 10.227.385 1.402.93 3.006 1.512 4.662 1.802 1.036.183 8.03 1.063 8.03 1.063a2.802 2.802 0 0 1 .387 5.579l-8.822.502c-1.092.154-1.17 1.707-.098 1.96 0 0 9.534 1.21 16.303-3.452.283-.195 6.893-4.223 8.312-5.381a2.545 2.545 0 0 1 3.343 3.838z"/><path d="M56.784 40.765c-1.065.846-5.488 3.59-7.154 4.628-.573.341-.942.587-1.01.628-.6.423-1.242.792-1.911 1.106.109-.383.163-.792.163-1.215 0-.492-.068-.97-.204-1.407l7.727-4.983c.26-.164.56-.246.847-.246.505 0 .996.246 1.297.71.15.246.232.505.245.779zM51.61 39.44l-5.666 3.645a4.76 4.76 0 0 0-2.785-1.884l6.772-4.355c.26-.177.546-.246.832-.246.506 0 1.01.246 1.298.697.464.723.259 1.679-.451 2.143zm-40.926.082h-8.2a.741.741 0 0 0-.74.741v15.898c0 .409.332.74.74.74h8.2c1.124 0 2.034-.91 2.034-2.033V41.556c0-1.123-.91-2.034-2.034-2.034z"/></svg>