<svg xmlns="http://www.w3.org/2000/svg" id="Layer_1" x="0" y="0" version="1.1" viewBox="0 0 30 30" xml:space="preserve"><path d="M22.2 22.5c-.5 0-1-.2-1.4-.5-.5-.4-.8-1-.8-1.7v-4.9c0-.7.3-1.3.8-1.7.5-.4 1.2-.6 1.8-.5l1.8.3c1.5.3 2.7 1.7 2.7 3.2v2.1c0 1.6-1.1 2.9-2.7 3.2l-1.8.3c-.2.2-.3.2-.4.2zm0-7.4h-.1s-.1.1-.1.2v4.9c0 .1 0 .1.1.2 0 0 .1.1.2 0l1.8-.3c.6-.1 1.1-.7 1.1-1.3v-2.1c0-.6-.4-1.2-1-1.3l-2-.3zM7.8 22.5h-.4l-1.8-.3C4.1 21.8 3 20.4 3 18.9v-2.1c0-1.6 1.1-2.9 2.7-3.2l1.8-.3c.7-.1 1.3 0 1.8.5.5.4.8 1 .8 1.7v4.9c0 .7-.3 1.3-.8 1.7-.4.2-.9.4-1.5.4zm0-7.4-1.8.3c-.6.2-1 .7-1 1.4v2.1c0 .6.4 1.2 1.1 1.3l1.8.3h.2s.1-.1.1-.2v-4.9c0-.1 0-.1-.1-.2-.1 0-.2-.1-.3-.1z"/><path d="M24.9 15.8c-.6 0-1-.4-1-1 0-4.9-4-8.9-8.9-8.9s-8.9 4-8.9 8.9c0 .6-.4 1-1 1s-1-.4-1-1C4.1 8.8 9 3.9 15 3.9s10.9 4.9 10.9 10.9c0 .5-.5 1-1 1zM18.7 26.1h-3.3c-.6 0-1-.4-1-1s.4-1 1-1h3.3c1.5 0 2.7-1.2 2.7-2.7 0-.6.4-1 1-1s1 .4 1 1c0 2.6-2.1 4.7-4.7 4.7z"/></svg>