<svg xmlns="http://www.w3.org/2000/svg" viewBox="0 0 32 32"><path fill-rule="evenodd" d="m6.543 2-3.064.176a.5.5 0 1 0 .056.998l2.658-.153a746.366 746.366 0 0 0 2.657 9.825L7.576 15.05a.5.5 0 0 0-.047.383l1.135 4.15a.5.5 0 0 0 .057.209l1.252 4.576.078.291c-.226.471-.367.99-.4 1.537-.137 2.214 1.525 4.093 3.712 4.17 2.187.077 4.073-1.676 4.21-3.89a4.043 4.043 0 0 0-.03-.75l9.693-2.653.528-.142a.45.45 0 0 0-.12-.887.45.45 0 0 0-.119.017l-.527.145-9.666 2.645c-.336-.92-1-1.674-1.86-2.118l9.356-2.56-2.639-9.645-.402.114a.602.602 0 0 1-.16.044h.016l-2.344.641 1.445 5.291.004.014c.158.524-.522.884-.867.459l-1.33-1.074-.719 1.724c-.185.535-.976.4-.973-.166l-1.42-5.191-2.394.654h-.02l-.035.008-.447.123 2.574 9.414a3.785 3.785 0 0 0-1.258-.28 3.901 3.901 0 0 0-1.3.194c-1.555-5.626-4.095-14.66-5.506-20.123A.5.5 0 0 0 6.543 2zm12.307.113-1.93.524 1.142 4.177a.5.5 0 0 1-.345.793.5.5 0 0 1-.5-.207l-1.332-1.027-.684 1.713c-.003.005-.005.006-.008.016a.5.5 0 0 1-.941-.065l-1.19-4.348-1.93.528 2.112 7.715 5.295-1.448h.024l2.398-.656-2.111-7.715zm-2.895.791-1.928.528.795 2.908.38-.95a.501.501 0 0 1 .769-.21l.77.593-.786-2.869zm2.379 8.688-1.93.527 1.065 3.895.414-.994a.493.493 0 0 1 .451-.31.502.502 0 0 1 .324.112l.717.578-1.041-3.808zm-9.111 2.611c.404 1.463.734 2.653 1.115 4.024l-.86.543-.93-3.399.675-1.168zm1.392 5.031c.337 1.213.736 2.648 1.018 3.67-.31.191-.584.43-.834.696l-1.045-3.82.861-.546zm3.182 4.069c1.635.058 2.879 1.452 2.775 3.138-.103 1.687-1.511 2.986-3.146 2.928-1.635-.058-2.88-1.45-2.776-3.137.104-1.686 1.512-2.987 3.147-2.93zm-.09 1.035a2.008 2.008 0 0 0-2.094 1.902 2.006 2.006 0 0 0 1.9 2.094 2.01 2.01 0 0 0 2.096-1.902 2.008 2.008 0 0 0-1.902-2.094z" color="#000" font-family="sans-serif" font-weight="400" overflow="visible" style="line-height:normal;text-indent:0;text-align:start;text-decoration-line:none;text-decoration-style:solid;text-decoration-color:#000;text-transform:none;block-progression:tb;isolation:auto;mix-blend-mode:normal"/></svg>