<svg xmlns="http://www.w3.org/2000/svg" viewBox="0 0 32 32"><g data-name="Layer 2"><path d="M29 28H16.214l12.493-12.493a2.696 2.696 0 0 0 0-3.814l-8.4-8.4a2.76 2.76 0 0 0-3.814 0l-13.2 13.2a2.696 2.696 0 0 0 0 3.814l1.798 1.798.002.003.002.001L10.985 28H3a1 1 0 0 0 0 2h26a1 1 0 0 0 0-2Zm-1.503-14.4a.692.692 0 0 1-.204.493l-13.2 13.2a.713.713 0 0 1-.986 0L7.214 21.4 21.4 7.214l5.893 5.893a.692.692 0 0 1 .204.494ZM4.503 18.4a.692.692 0 0 1 .204-.493l13.2-13.2a.697.697 0 0 1 .986 0L19.986 5.8 5.8 19.986l-1.093-1.093a.692.692 0 0 1-.204-.494Z"/><path d="m16.793 18.793-3.5 3.5a1 1 0 1 0 1.414 1.414l3.5-3.5a1 1 0 0 0-1.414-1.414Z"/></g></svg>