<svg xmlns="http://www.w3.org/2000/svg" viewBox="0 0 66 66"><path fill="#030303" d="M28.2 31c-.6 0-1.1.5-1.1 1.1v6.7c1.8.3 3.5.9 4.8 2 1.6 1 4.3 2.6 6.8 3.8V32c0-.6-.5-1.1-1.1-1.1h-9.4z"/><circle cx="33" cy="17.4" r="2.5" fill="#030303"/><path fill="#030303" d="m50.1 49.9.9-.3c1.8-.6 4.1-1.3 6.5-1.6V28.8c-.3-.1-.5-.3-.8-.5L33 10.1 9.3 28.3c-.2.2-.5.4-.8.5v11l8.5-1h.3c.8 0 1.6.3 2.1.9l.3-.1c1.9-.6 3.7-.9 5.4-1V32c0-1.7 1.4-3.1 3.1-3.1h9.6c1.7 0 3.1 1.4 3.1 3.1v13.4c2.1.9 6.7 1.5 9.2 4.5zM33 21.9c-2.5 0-4.5-2-4.5-4.5s2-4.5 4.5-4.5 4.5 2 4.5 4.5-2 4.5-4.5 4.5z"/><path fill="#030303" d="M3.7 26.1c1.1 1.4 3.1 1.6 4.4.6L33 7.6l24.9 19.1c1.4 1.1 3.4.8 4.4-.6 1.1-1.4.8-3.3-.6-4.4L35 1.2c-1.1-.9-2.7-.9-3.8 0l-27 20.5c-1.3 1.1-1.6 3.1-.5 4.4zM56.2 5.7c0-.5-.4-1-1-1h-8c-.5 0-1 .5-1 1v1.5l10 7.7V5.7zM62 50.3c-2.9-.9-7.2.1-10.4 1.2 0 .2-.1.3-.3.5-1.6 1.5-6.5 5-8.6 5-.7-.1-2.4.1-5.1-1.7-2.3-1.5-5.1-2-5.2-2-.5-.1-.9-.6-.8-1.2.1-.5.6-.9 1.2-.8.1 0 3.3.6 5.9 2.3 1.4.9 2.7 1.4 4 1.4.1 0 1.9-.2 6-3.5-1.4-2.1-5.5-3.3-6.4-3.5-4-.9-10.9-5.3-11.5-5.7-3-2.4-7.1-1.9-10.4-.8l2.2 18.4c6 1.5 12.6 4.2 12.6 4.2 5 2.1 10.5 1.6 15.4-.6 3.8-1.7 9.8-3.6 12.8-6.3 2.2-2.1 1.5-6-1.4-6.9zM20.4 61.5c.2-.2.2-.5.2-.7l-2.3-19.1c-.1-.5-.6-.9-1.1-.9l-15 1.8c-.3 0-.5.2-.7.4-.2.2-.2.5-.2.7l2.3 19.1c.1.5.5.9 1 .9h.1l15.1-1.8c.2-.1.5-.2.6-.4z"/></svg>