<svg xmlns="http://www.w3.org/2000/svg" enable-background="new 0 0 50 50" viewBox="0 0 50 50"><circle cx="13.743" cy="8.738" r="3.083"/><path d="M18.7866,20.2797H8.6991V17.096c0-2.4046,1.9493-4.3539,4.3539-4.3539h1.3797
		c2.4046,0,4.3539,1.9493,4.3539,4.3539V20.2797z"/><circle cx="28.392" cy="8.738" r="3.083"/><path d="M33.4363,20.2797H23.3488V17.096c0-2.4046,1.9493-4.3539,4.3539-4.3539h1.3797
		c2.4046,0,4.3539,1.9493,4.3539,4.3539V20.2797z"/><circle cx="6.044" cy="24.956" r="3.083"/><path d="M11.0875,36.4978H1v-3.1836c0-2.4046,1.9493-4.3539,4.3539-4.3539h1.3797
		c2.4046,0,4.3539,1.9493,4.3539,4.3539V36.4978z"/><circle cx="21.442" cy="24.956" r="3.083"/><path d="M26.4856,36.4978H16.3982v-3.1836c0-2.4046,1.9493-4.3539,4.3539-4.3539h1.3797
			c2.4046,0,4.3539,1.9493,4.3539,4.3539V36.4978z"/><circle cx="34.595" cy="24.956" r="3.083"/><path d="M36.1591,31.6062c0.255-0.5676,0.7414-0.9962,1.3438-1.1816c0.1852-0.058,0.3708-0.0811,0.556-0.0811
		c-0.7645-0.7182-1.7377-1.2048-2.8381-1.3322c0.1158,0.1854,0.2316,0.3823,0.336,0.5676
		c-0.1855,0.2201-0.3708,0.4402-0.5562,0.6603h-0.753c-0.2084-0.2201-0.4054-0.4402-0.6256-0.6719
		c0.116-0.1969,0.2202-0.3706,0.3476-0.556c-2.5021,0.3012-4.4136,2.4212-4.4136,4.9929v2.4907h8.1437l-1.5059-3.1162
		C35.9275,32.8226,35.9159,32.1738,36.1591,31.6062z M34.5836,35.1047c-0.3938-0.5444-0.7877-1.0657-1.1816-1.5987
		c0.278-1.0541,0.5444-2.12,0.8109-3.1857h0.73c0.278,1.0773,0.556,2.1316,0.8456,3.1973
		C35.3829,34.0506,34.9892,34.5718,34.5836,35.1047z"/><path d="M48.7671,39.7661l-2.442-5.0535c-0.2223-0.46-0.7602-0.7238-1.2363-0.5386
		c-0.4913,0.1911-0.72,0.7281-0.5549,1.2043l-0.0118,0.0013l-0.2399-0.4964c-0.214-0.4429-0.7221-0.7031-1.1885-0.5465
		c-0.376,0.1262-0.6089,0.4505-0.6479,0.805l-0.0953-0.1972c-0.2189-0.4531-0.7443-0.7159-1.2169-0.543
		c-0.3783,0.1384-0.6034,0.4802-0.6245,0.8455l-1.5265-3.159c-0.2074-0.4292-0.6928-0.6852-1.1497-0.5494
		c-0.5822,0.1731-0.8484,0.8127-0.5956,1.3359l1.5136,3.1322l0.9585,1.9835l0.9376,1.9404l-1.4882-0.8861
		c-0.4036-0.2403-0.9256-0.108-1.1659,0.2956c-0.2403,0.4036-0.108,0.9256,0.2956,1.1659l2.252,1.3409
		c0.7713,0.4593,1.4614,1.0335,2.1387,1.6226c1.5446,1.3435,4.3356,1.3693,5.8606-1.5403C48.682,41.6578,48.8674,41.247,49,40.7097"/></svg>