<svg xmlns="http://www.w3.org/2000/svg" data-name="Soccer Ball" viewBox="0 0 24 24"><path fill="#303c42" d="M12 0a12 12 0 1 0 12 12A12 12 0 0 0 12 0Zm10.71 9.54-2.94.46-2.21-4 1.29-2.58a11 11 0 0 1 3.86 6.12ZM14.46 20.4l-2.8-1.6 1.67-3.34 3.36-.46 1.2 2.79Zm-3.79-1.87L6.26 19l-2.2-3.53L5.36 12l4.41-.44 2.65 3.53Zm-1-8L5.45 11 5 6.76l3.46-2.14 2.46 2ZM18 2.81l-1.32 2.72-5 .46L9 3.8l.47-2.51A10.87 10.87 0 0 1 18 2.81ZM2.21 7H4l.44 4.43-1.3 3.47-1.91-.48A10.84 10.84 0 0 1 2.21 7ZM6.5 21.51V20l4.39-.44L14 21.29v1.52a10.82 10.82 0 0 1-7.5-1.3ZM21.23 18l-2.37-.41-1.29-3L19.8 11l3.09-.44A10.72 10.72 0 0 1 21.23 18Z"/></svg>