<svg xmlns="http://www.w3.org/2000/svg" viewBox="0 0 512 512"><g data-name="Layer 2"><g data-name="15_technology, laptop"><path d="M421.67,512H90.33A90.43,90.43,0,0,1,0,421.67a10,10,0,0,1,10-10H502a10,10,0,0,1,10,10A90.43,90.43,0,0,1,421.67,512Zm-401-80.33A70.44,70.44,0,0,0,90.33,492H421.67a70.44,70.44,0,0,0,69.62-60.33Z"/><path d="M301.18,471.84H210.82a50.23,50.23,0,0,1-50.17-50.17,10,10,0,0,1,10-10h170.7a10,10,0,0,1,10,10A50.23,50.23,0,0,1,301.18,471.84ZM182.36,431.67a30.21,30.21,0,0,0,28.46,20.17h90.36a30.21,30.21,0,0,0,28.46-20.17Z"/><path d="M481.92,431.67H30.08a10,10,0,0,1-10-10V148a47.63,47.63,0,0,1,47.58-47.58H444.34A47.63,47.63,0,0,1,491.92,148V421.67A10,10,0,0,1,481.92,431.67Zm-441.84-20H471.92V148a27.61,27.61,0,0,0-27.58-27.58H67.66A27.61,27.61,0,0,0,40.08,148Z"/><path d="M441.75,391.51H70.25a10,10,0,0,1-10-10V150.57a10,10,0,0,1,10-10h371.5a10,10,0,0,1,10,10V381.51A10,10,0,0,1,441.75,391.51Zm-361.5-20h351.5V160.57H80.25Z"/><path d="M133.64,391.51a10.78,10.78,0,0,1-1.68-.14,10,10,0,0,1-8.19-11.53,133.94,133.94,0,0,1,24.12-56.78l-6.19-8.66a10,10,0,0,1,1.07-12.89l16.33-16.33A10,10,0,0,1,172,284.11l9.52,6.8a133.61,133.61,0,0,1,54.21-21l1.75-10.5a10,10,0,0,1,9.86-8.36h23.11a10,10,0,0,1,9.86,8.36l1.93,11.54a133.73,133.73,0,0,1,53.21,23.46l8.66-6.18A10,10,0,0,1,357,289.26l16.33,16.33a10,10,0,0,1,1.07,12.88L367.57,328a134.33,134.33,0,0,1,20.66,51.83,10,10,0,1,1-19.72,3.35,114.29,114.29,0,0,0-21.2-49.2,10,10,0,0,1-.14-11.82l6-8.42-4.35-4.35L341,315a10,10,0,0,1-12.19-.44,113.7,113.7,0,0,0-56.66-25.08,10,10,0,0,1-8.46-8.26L262,271h-6.16l-1.58,9.51a10,10,0,0,1-8.94,8.32,113.72,113.72,0,0,0-57.8,22.33,10,10,0,0,1-11.81.14l-8.42-6-4.36,4.35,5.61,7.85a10,10,0,0,1-.44,12.19,114,114,0,0,0-24.58,53.48A10,10,0,0,1,133.64,391.51Z"/><path d="M338.27 391.51a10 10 0 01-9.69-7.53 74.91 74.91 0 00-145.16 0A10 10 0 01164 379 94.92 94.92 0 01348 379a10 10 0 01-9.7 12.47zM180.91 218.5a10 10 0 01-10-10V157.08L86.27 119.55a10 10 0 01-5.94-9.14V70.09a10 10 0 0120 0V103.9L185 141.43a10 10 0 015.95 9.14V208.5A10 10 0 01180.91 218.5z"/><path d="M140.53 80.25H40.12a10 10 0 01-10-10V10a10 10 0 0110-10H140.53a10 10 0 0110 10V70.25A10 10 0 01140.53 80.25zm-90.41-20h80.41V20H50.12zM331.09 218.5a10 10 0 01-10-10V150.57a10 10 0 016-9.14l84.63-37.53V70.09a10 10 0 1120 0v40.32a10 10 0 01-5.94 9.14l-84.64 37.53V208.5A10 10 0 01331.09 218.5z"/><path d="M471.88 80.25H371.47a10 10 0 01-10-10V10a10 10 0 0110-10H471.88a10 10 0 0110 10V70.25A10 10 0 01471.88 80.25zm-90.41-20h80.41V20H381.47zM306.2 80.25H205.8a10 10 0 01-10-10V10a10 10 0 0110-10H306.2a10 10 0 0110 10V70.25A10 10 0 01306.2 80.25zm-90.4-20h80.4V20H215.8z"/><path d="M256,210.78a10,10,0,0,1-10-10V70.25a10,10,0,0,1,20,0V200.78A10,10,0,0,1,256,210.78Z"/></g></g></svg>