<svg xmlns="http://www.w3.org/2000/svg" viewBox="0 0 24 24"><path fill="#303c42" d="M22.7 10.12a2.05 2.05 0 0 0-2.7 1.14l-1.2 2.85a.49.49 0 0 0-.3-.11h-6a.5.5 0 0 0-.35.15l-1 1a.5.5 0 1 0 .71.71l.85-.85H13v2h-2V11h3.58l6-1a.5.5 0 0 0 .23-.88l-10-8a.5.5 0 0 0-.23-.12h-.16a.5.5 0 0 0-.22.09l-10 8a.5.5 0 0 0 .22.91l6 1H10v6H2a2 2 0 0 0-2 2 2 2 0 0 0 1.15 1.8L.1 22.2a.5.5 0 0 0 .8.6L2.25 21H10v1.5a.5.5 0 1 0 1 0V21h7.75l1.35 1.8a.5.5 0 0 0 .8-.6l-1-1.31a2 2 0 0 0 1.25-1.21l2.72-7a2 2 0 0 0-1.17-2.56ZM10.5 2.73 13.73 10H7.27ZM14 15h4.42l-.87 2H14Z"/></svg>